Slabo Xpx b005.ufo
<glyph name="exclam" format="1">
  <advance width="298"/>
  <unicode hex="0021"/>
  <outline>
    <contour>
      <point x="104" y="700" type="line"/>
      <point x="204" y="700" type="line"/>
      <point x="185" y="196" type="line"/>
      <point x="124" y="196" type="line"/>
    </contour>
    <contour>
      <point x="90" y="49" type="qcurve"/>
      <point x="90" y="79"/>
      <point x="125" y="115"/>
      <point x="155" y="115" type="qcurve"/>
      <point x="183" y="115"/>
      <point x="218" y="80"/>
      <point x="218" y="52" type="qcurve"/>
      <point x="218" y="21"/>
      <point x="182" y="-13"/>
      <point x="152" y="-13" type="qcurve"/>
      <point x="124" y="-13"/>
      <point x="90" y="21"/>
    </contour>
  </outline>
</glyph>
<glyph name="numbersign" format="1">
  <advance width="585"/>
  <unicode hex="0023"/>
  <outline>
    <contour>
      <point x="207" y="0" type="line"/>
      <point x="144" y="0" type="line"/>
      <point x="202" y="565" type="line"/>
      <point x="264" y="565" type="line"/>
    </contour>
    <contour>
      <point x="385" y="0" type="line"/>
      <point x="321" y="0" type="line"/>
      <point x="380" y="565" type="line"/>
      <point x="442" y="565" type="line"/>
    </contour>
    <contour>
      <point x="545" y="406" type="line"/>
      <point x="539" y="346" type="line"/>
      <point x="60" y="346" type="line"/>
      <point x="65" y="406" type="line"/>
    </contour>
    <contour>
      <point x="526" y="219" type="line"/>
      <point x="520" y="160" type="line"/>
      <point x="40" y="160" type="line"/>
      <point x="46" y="219" type="line"/>
    </contour>
  </outline>
</glyph>
<glyph name="dollar" format="1">
  <advance width="536"/>
  <unicode hex="0024"/>
  <outline>
    <contour>
      <point x="237" y="-90" type="line"/>
      <point x="237" y="-2" type="line"/>
      <point x="143" y="-1"/>
      <point x="58" y="33" type="qcurve"/>
      <point x="58" y="185" type="line"/>
      <point x="130" y="185" type="line"/>
      <point x="130" y="87" type="line"/>
      <point x="169" y="71"/>
      <point x="236" y="69" type="qcurve"/>
      <point x="237" y="69" type="line"/>
      <point x="237" y="318" type="line"/>
      <point x="135" y="360"/>
      <point x="50" y="446"/>
      <point x="50" y="514" type="qcurve"/>
      <point x="50" y="590"/>
      <point x="149" y="690"/>
      <point x="237" y="700" type="qcurve"/>
      <point x="237" y="790" type="line"/>
      <point x="302" y="790" type="line"/>
      <point x="302" y="701" type="line"/>
      <point x="398" y="696"/>
      <point x="464" y="663" type="qcurve"/>
      <point x="464" y="521" type="line"/>
      <point x="392" y="521" type="line"/>
      <point x="392" y="613" type="line"/>
      <point x="352" y="629"/>
      <point x="302" y="631" type="qcurve"/>
      <point x="302" y="387" type="line"/>
      <point x="404" y="346"/>
      <point x="490" y="255"/>
      <point x="490" y="189" type="qcurve"/>
      <point x="490" y="115"/>
      <point x="396" y="12"/>
      <point x="302" y="1" type="qcurve"/>
      <point x="302" y="-90" type="line"/>
    </contour>
    <contour>
      <point x="405" y="177" type="qcurve"/>
      <point x="405" y="221"/>
      <point x="350" y="274"/>
      <point x="302" y="295" type="qcurve"/>
      <point x="302" y="71" type="line"/>
      <point x="356" y="80"/>
      <point x="405" y="138"/>
    </contour>
    <contour>
      <point x="135" y="526" type="qcurve"/>
      <point x="135" y="482"/>
      <point x="190" y="431"/>
      <point x="237" y="411" type="qcurve"/>
      <point x="237" y="630" type="line"/>
      <point x="186" y="623"/>
      <point x="135" y="565"/>
    </contour>
  </outline>
</glyph>
<glyph name="ampersand" format="1">
  <advance width="723"/>
  <unicode hex="0026"/>
  <outline>
    <contour>
      <point x="500" y="186" type="qcurve"/>
      <point x="544" y="263"/>
      <point x="546" y="355" type="qcurve"/>
      <point x="477" y="355" type="line"/>
      <point x="477" y="423" type="line"/>
      <point x="690" y="423" type="line"/>
      <point x="690" y="355" type="line"/>
      <point x="615" y="355" type="line"/>
      <point x="610" y="240"/>
      <point x="550" y="139" type="qcurve"/>
      <point x="598" y="95"/>
      <point x="650" y="65"/>
      <point x="676" y="65" type="qcurve"/>
      <point x="690" y="65"/>
      <point x="708" y="68" type="qcurve"/>
      <point x="708" y="1" type="line"/>
      <point x="686" y="-6"/>
      <point x="657" y="-6" type="qcurve"/>
      <point x="619" y="-6"/>
      <point x="551" y="32"/>
      <point x="501" y="76" type="qcurve"/>
      <point x="414" y="-13"/>
      <point x="280" y="-13" type="qcurve"/>
      <point x="175" y="-13"/>
      <point x="42" y="93"/>
      <point x="42" y="179" type="qcurve"/>
      <point x="42" y="293"/>
      <point x="185" y="385" type="qcurve"/>
      <point x="137" y="437"/>
      <point x="99" y="511"/>
      <point x="99" y="550" type="qcurve"/>
      <point x="99" y="621"/>
      <point x="199" y="713"/>
      <point x="283" y="713" type="qcurve"/>
      <point x="356" y="713"/>
      <point x="449" y="635"/>
      <point x="449" y="567" type="qcurve"/>
      <point x="449" y="510"/>
      <point x="374" y="417"/>
      <point x="308" y="377" type="qcurve"/>
      <point x="419" y="263"/>
    </contour>
    <contour>
      <point x="231" y="336" type="qcurve"/>
      <point x="131" y="276"/>
      <point x="131" y="193" type="qcurve"/>
      <point x="131" y="131"/>
      <point x="219" y="56"/>
      <point x="288" y="56" type="qcurve"/>
      <point x="379" y="56"/>
      <point x="449" y="121" type="qcurve"/>
      <point x="357" y="203"/>
    </contour>
    <contour>
      <point x="369" y="561" type="qcurve"/>
      <point x="369" y="600"/>
      <point x="315" y="644"/>
      <point x="274" y="644" type="qcurve"/>
      <point x="235" y="644"/>
      <point x="179" y="601"/>
      <point x="179" y="560" type="qcurve"/>
      <point x="179" y="532"/>
      <point x="214" y="473"/>
      <point x="260" y="425" type="qcurve"/>
      <point x="369" y="489"/>
    </contour>
  </outline>
</glyph>
<glyph name="quotesingle" format="1">
  <advance width="230"/>
  <unicode hex="0027"/>
  <outline>
    <contour>
      <point x="65" y="700" type="line"/>
      <point x="165" y="700" type="line"/>
      <point x="144" y="446" type="line"/>
      <point x="88" y="446" type="line"/>
    </contour>
  </outline>
</glyph>
<glyph name="parenleft" format="1">
  <advance width="342"/>
  <unicode hex="0028"/>
  <outline>
    <contour>
      <point x="142" y="285" type="qcurve"/>
      <point x="142" y="17"/>
      <point x="321" y="-176" type="qcurve"/>
      <point x="244" y="-176" type="line"/>
      <point x="55" y="33"/>
      <point x="55" y="280" type="qcurve"/>
      <point x="55" y="527"/>
      <point x="244" y="740" type="qcurve"/>
      <point x="321" y="740" type="line"/>
      <point x="142" y="548"/>
    </contour>
  </outline>
</glyph>
<glyph name="parenright" format="1">
  <advance width="342"/>
  <unicode hex="0029"/>
  <outline>
    <contour>
      <point x="200" y="280" type="qcurve"/>
      <point x="200" y="546"/>
      <point x="20" y="740" type="qcurve"/>
      <point x="98" y="740" type="line"/>
      <point x="287" y="531"/>
      <point x="287" y="285" type="qcurve"/>
      <point x="287" y="37"/>
      <point x="98" y="-176" type="qcurve"/>
      <point x="20" y="-176" type="line"/>
      <point x="200" y="15"/>
    </contour>
  </outline>
</glyph>
<glyph name="asterisk" format="1">
  <advance width="465"/>
  <unicode hex="002A"/>
  <outline>
    <contour>
      <point x="271" y="705" type="line"/>
      <point x="261" y="565" type="line"/>
      <point x="392" y="617" type="line"/>
      <point x="415" y="542" type="line"/>
      <point x="277" y="513" type="line"/>
      <point x="370" y="402" type="line"/>
      <point x="306" y="356" type="line"/>
      <point x="233" y="480" type="line"/>
      <point x="158" y="357" type="line"/>
      <point x="95" y="404" type="line"/>
      <point x="187" y="513" type="line"/>
      <point x="50" y="544" type="line"/>
      <point x="74" y="618" type="line"/>
      <point x="205" y="567" type="line"/>
      <point x="194" y="705" type="line"/>
    </contour>
  </outline>
</glyph>
<glyph name="plus" format="1">
  <advance width="561"/>
  <unicode hex="002B"/>
  <outline>
    <contour>
      <point x="55" y="245" type="line"/>
      <point x="55" y="320" type="line"/>
      <point x="243" y="320" type="line"/>
      <point x="243" y="508" type="line"/>
      <point x="318" y="508" type="line"/>
      <point x="318" y="320" type="line"/>
      <point x="506" y="320" type="line"/>
      <point x="506" y="245" type="line"/>
      <point x="318" y="245" type="line"/>
      <point x="318" y="57" type="line"/>
      <point x="243" y="57" type="line"/>
      <point x="243" y="245" type="line"/>
    </contour>
  </outline>
</glyph>
<glyph name="comma" format="1">
  <advance width="250"/>
  <unicode hex="002C"/>
  <outline>
    <contour>
      <point x="135" y="137" type="line"/>
      <point x="196" y="77"/>
      <point x="196" y="14" type="qcurve"/>
      <point x="196" y="-65"/>
      <point x="96" y="-158" type="qcurve"/>
      <point x="56" y="-121" type="line"/>
      <point x="111" y="-65"/>
      <point x="111" y="-19" type="qcurve"/>
      <point x="111" y="25"/>
      <point x="62" y="74" type="qcurve"/>
    </contour>
  </outline>
</glyph>
<glyph name="period" format="1">
  <advance width="250"/>
  <unicode hex="002E"/>
  <outline>
    <contour>
      <point x="60" y="50" type="qcurve"/>
      <point x="60" y="81"/>
      <point x="95" y="117"/>
      <point x="126" y="117" type="qcurve"/>
      <point x="155" y="117"/>
      <point x="190" y="82"/>
      <point x="190" y="54" type="qcurve"/>
      <point x="190" y="21"/>
      <point x="154" y="-13"/>
      <point x="123" y="-13" type="qcurve"/>
      <point x="94" y="-13"/>
      <point x="60" y="21"/>
    </contour>
  </outline>
</glyph>
<glyph name="slash" format="1">
  <advance width="379"/>
  <unicode hex="002F"/>
  <outline>
    <contour>
      <point x="275" y="713" type="line"/>
      <point x="349" y="713" type="line"/>
      <point x="57" y="-152" type="line"/>
      <point x="-17" y="-152" type="line"/>
    </contour>
  </outline>
</glyph>
<glyph name="zero" format="1">
  <advance width="579"/>
  <unicode hex="0030"/>
  <outline>
    <contour>
      <point x="50" y="283" type="qcurve"/>
      <point x="50" y="418"/>
      <point x="185" y="579"/>
      <point x="295" y="579" type="qcurve"/>
      <point x="400" y="579"/>
      <point x="529" y="424"/>
      <point x="529" y="290" type="qcurve"/>
      <point x="529" y="154"/>
      <point x="396" y="-13"/>
      <point x="287" y="-13" type="qcurve"/>
      <point x="179" y="-13"/>
      <point x="50" y="150"/>
    </contour>
    <contour>
      <point x="140" y="287" type="qcurve"/>
      <point x="140" y="180"/>
      <point x="219" y="57"/>
      <point x="289" y="57" type="qcurve"/>
      <point x="361" y="57"/>
      <point x="439" y="182"/>
      <point x="439" y="288" type="qcurve"/>
      <point x="439" y="390"/>
      <point x="365" y="508"/>
      <point x="290" y="508" type="qcurve"/>
      <point x="219" y="508"/>
      <point x="140" y="394"/>
    </contour>
  </outline>
</glyph>
<glyph name="one" format="1">
  <advance width="315"/>
  <unicode hex="0031"/>
  <outline>
    <contour>
      <point x="130" y="0" type="line"/>
      <point x="130" y="496" type="line"/>
      <point x="35" y="496" type="line"/>
      <point x="35" y="565" type="line"/>
      <point x="215" y="565" type="line"/>
      <point x="215" y="0" type="line"/>
    </contour>
  </outline>
</glyph>
<glyph name="two" format="1">
  <advance width="482"/>
  <unicode hex="0032"/>
  <outline>
    <contour>
      <point x="437" y="148" type="line"/>
      <point x="437" y="0" type="line"/>
      <point x="35" y="0" type="line"/>
      <point x="35" y="58" type="line"/>
      <point x="179" y="173"/>
      <point x="321" y="344"/>
      <point x="321" y="415" type="qcurve"/>
      <point x="321" y="455"/>
      <point x="273" y="508"/>
      <point x="220" y="508" type="qcurve"/>
      <point x="163" y="508"/>
      <point x="119" y="483" type="qcurve"/>
      <point x="119" y="415" type="line"/>
      <point x="46" y="415" type="line"/>
      <point x="46" y="520" type="line"/>
      <point x="133" y="579"/>
      <point x="231" y="579" type="qcurve"/>
      <point x="312" y="579"/>
      <point x="411" y="498"/>
      <point x="411" y="426" type="qcurve"/>
      <point x="411" y="346"/>
      <point x="269" y="165"/>
      <point x="148" y="68" type="qcurve"/>
      <point x="365" y="68" type="line"/>
      <point x="365" y="148" type="line"/>
    </contour>
  </outline>
</glyph>
<glyph name="three" format="1">
  <advance width="514"/>
  <unicode hex="0033"/>
  <outline>
    <contour>
      <point x="50" y="-55" type="line"/>
      <point x="121" y="-77"/>
      <point x="195" y="-77" type="qcurve"/>
      <point x="283" y="-77"/>
      <point x="379" y="-4"/>
      <point x="379" y="65" type="qcurve"/>
      <point x="379" y="132"/>
      <point x="287" y="196"/>
      <point x="196" y="196" type="qcurve"/>
      <point x="150" y="196" type="line"/>
      <point x="150" y="263" type="line"/>
      <point x="181" y="263" type="line"/>
      <point x="262" y="263"/>
      <point x="350" y="332"/>
      <point x="350" y="399" type="qcurve"/>
      <point x="350" y="454"/>
      <point x="290" y="510"/>
      <point x="231" y="510" type="qcurve"/>
      <point x="171" y="510"/>
      <point x="121" y="486" type="qcurve"/>
      <point x="121" y="418" type="line"/>
      <point x="50" y="418" type="line"/>
      <point x="50" y="523" type="line"/>
      <point x="136" y="579"/>
      <point x="237" y="579" type="qcurve"/>
      <point x="329" y="579"/>
      <point x="438" y="485"/>
      <point x="438" y="407" type="qcurve"/>
      <point x="438" y="293"/>
      <point x="315" y="242" type="qcurve"/>
      <point x="315" y="240" type="line"/>
      <point x="390" y="223"/>
      <point x="469" y="133"/>
      <point x="469" y="67" type="qcurve"/>
      <point x="469" y="-29"/>
      <point x="314" y="-146"/>
      <point x="190" y="-146" type="qcurve"/>
      <point x="117" y="-146"/>
      <point x="50" y="-129" type="qcurve"/>
    </contour>
  </outline>
</glyph>
<glyph name="four" format="1">
  <advance width="564"/>
  <unicode hex="0034"/>
  <outline>
    <contour>
      <point x="339" y="68" type="line"/>
      <point x="35" y="68" type="line"/>
      <point x="35" y="127" type="line"/>
      <point x="354" y="570" type="line"/>
      <point x="424" y="570" type="line"/>
      <point x="424" y="136" type="line"/>
      <point x="535" y="136" type="line"/>
      <point x="535" y="68" type="line"/>
      <point x="424" y="68" type="line"/>
      <point x="424" y="-98" type="line"/>
      <point x="339" y="-98" type="line"/>
    </contour>
    <contour>
      <point x="121" y="136" type="line"/>
      <point x="339" y="136" type="line"/>
      <point x="339" y="438" type="line"/>
      <point x="337" y="438" type="line"/>
      <point x="121" y="138" type="line"/>
    </contour>
  </outline>
</glyph>
<glyph name="five" format="1">
  <advance width="533"/>
  <unicode hex="0035"/>
  <outline>
    <contour>
      <point x="75" y="-54" type="line"/>
      <point x="146" y="-77"/>
      <point x="210" y="-77" type="qcurve"/>
      <point x="296" y="-77"/>
      <point x="393" y="8"/>
      <point x="393" y="90" type="qcurve"/>
      <point x="393" y="168"/>
      <point x="295" y="246"/>
      <point x="194" y="246" type="qcurve"/>
      <point x="149" y="246"/>
      <point x="95" y="239" type="qcurve"/>
      <point x="95" y="565" type="line"/>
      <point x="446" y="565" type="line"/>
      <point x="446" y="425" type="line"/>
      <point x="375" y="425" type="line"/>
      <point x="375" y="496" type="line"/>
      <point x="175" y="496" type="line"/>
      <point x="175" y="312" type="line"/>
      <point x="196" y="314"/>
      <point x="220" y="314" type="qcurve"/>
      <point x="340" y="314"/>
      <point x="483" y="201"/>
      <point x="483" y="94" type="qcurve"/>
      <point x="483" y="-15"/>
      <point x="330" y="-146"/>
      <point x="206" y="-146" type="qcurve"/>
      <point x="139" y="-146"/>
      <point x="75" y="-127" type="qcurve"/>
    </contour>
  </outline>
</glyph>
<glyph name="six" format="1">
  <advance width="577"/>
  <unicode hex="0036"/>
  <outline>
    <contour>
      <point x="473" y="629" type="line"/>
      <point x="430" y="635"/>
      <point x="400" y="635" type="qcurve"/>
      <point x="276" y="635"/>
      <point x="149" y="477"/>
      <point x="149" y="321" type="qcurve"/>
      <point x="149" y="199"/>
      <point x="229" y="56"/>
      <point x="304" y="56" type="qcurve"/>
      <point x="363" y="56"/>
      <point x="440" y="140"/>
      <point x="440" y="213" type="qcurve"/>
      <point x="440" y="281"/>
      <point x="367" y="365"/>
      <point x="302" y="365" type="qcurve"/>
      <point x="210" y="365"/>
      <point x="139" y="279" type="qcurve"/>
      <point x="140" y="350" type="line"/>
      <point x="217" y="435"/>
      <point x="320" y="435" type="qcurve"/>
      <point x="408" y="435"/>
      <point x="527" y="315"/>
      <point x="527" y="225" type="qcurve"/>
      <point x="527" y="129"/>
      <point x="406" y="-13"/>
      <point x="301" y="-13" type="qcurve"/>
      <point x="189" y="-13"/>
      <point x="60" y="157"/>
      <point x="60" y="312" type="qcurve"/>
      <point x="60" y="495"/>
      <point x="239" y="705"/>
      <point x="399" y="705" type="qcurve"/>
      <point x="432" y="705"/>
      <point x="473" y="699" type="qcurve"/>
    </contour>
  </outline>
</glyph>
<glyph name="seven" format="1">
  <advance width="493"/>
  <unicode hex="0037"/>
  <outline>
    <contour>
      <point x="140" y="-130" type="line"/>
      <point x="144" y="-49"/>
      <point x="192" y="120"/>
      <point x="227" y="201" type="qcurve"/>
      <point x="263" y="285"/>
      <point x="346" y="435"/>
      <point x="383" y="496" type="qcurve"/>
      <point x="112" y="496" type="line"/>
      <point x="112" y="402" type="line"/>
      <point x="40" y="402" type="line"/>
      <point x="40" y="565" type="line"/>
      <point x="468" y="565" type="line"/>
      <point x="468" y="507" type="line"/>
      <point x="427" y="442"/>
      <point x="345" y="290"/>
      <point x="311" y="208" type="qcurve"/>
      <point x="279" y="129"/>
      <point x="235" y="-43"/>
      <point x="232" y="-130" type="qcurve"/>
    </contour>
  </outline>
</glyph>
<glyph name="eight" format="1">
  <advance width="557"/>
  <unicode hex="0038"/>
  <outline>
    <contour>
      <point x="294" y="396" type="line"/>
      <point x="357" y="426"/>
      <point x="408" y="505"/>
      <point x="408" y="540" type="qcurve"/>
      <point x="408" y="585"/>
      <point x="337" y="637"/>
      <point x="279" y="637" type="qcurve"/>
      <point x="223" y="637"/>
      <point x="149" y="585"/>
      <point x="149" y="542" type="qcurve"/>
      <point x="149" y="517"/>
      <point x="173" y="479"/>
      <point x="194" y="461" type="qcurve"/>
      <point x="215" y="444"/>
      <point x="275" y="411"/>
      <point x="311" y="393" type="qcurve"/>
      <point x="346" y="375"/>
      <point x="419" y="335"/>
      <point x="448" y="310" type="qcurve"/>
      <point x="476" y="285"/>
      <point x="512" y="221"/>
      <point x="512" y="180" type="qcurve"/>
      <point x="512" y="99"/>
      <point x="385" y="-13"/>
      <point x="271" y="-13" type="qcurve"/>
      <point x="168" y="-13"/>
      <point x="45" y="88"/>
      <point x="45" y="168" type="qcurve"/>
      <point x="45" y="233"/>
      <point x="130" y="326"/>
      <point x="204" y="362" type="qcurve"/>
      <point x="270" y="335" type="line"/>
      <point x="135" y="276"/>
      <point x="135" y="174" type="qcurve"/>
      <point x="135" y="115"/>
      <point x="211" y="57"/>
      <point x="277" y="57" type="qcurve"/>
      <point x="346" y="57"/>
      <point x="423" y="121"/>
      <point x="423" y="171" type="qcurve"/>
      <point x="423" y="204"/>
      <point x="389" y="249"/>
      <point x="361" y="269" type="qcurve"/>
      <point x="332" y="289"/>
      <point x="263" y="323"/>
      <point x="229" y="340" type="qcurve"/>
      <point x="196" y="358"/>
      <point x="138" y="395"/>
      <point x="115" y="415" type="qcurve"/>
      <point x="92" y="440"/>
      <point x="64" y="495"/>
      <point x="64" y="530" type="qcurve"/>
      <point x="64" y="608"/>
      <point x="188" y="707"/>
      <point x="283" y="707" type="qcurve"/>
      <point x="379" y="707"/>
      <point x="493" y="615"/>
      <point x="493" y="542" type="qcurve"/>
      <point x="493" y="485"/>
      <point x="418" y="400"/>
      <point x="340" y="360" type="qcurve"/>
    </contour>
  </outline>
</glyph>
<glyph name="nine" format="1">
  <advance width="575"/>
  <unicode hex="0039"/>
  <outline>
    <contour>
      <point x="102" y="-65" type="line"/>
      <point x="138" y="-70"/>
      <point x="165" y="-70" type="qcurve"/>
      <point x="296" y="-70"/>
      <point x="426" y="85"/>
      <point x="426" y="251" type="qcurve"/>
      <point x="426" y="374"/>
      <point x="346" y="510"/>
      <point x="271" y="510" type="qcurve"/>
      <point x="210" y="510"/>
      <point x="137" y="426"/>
      <point x="137" y="360" type="qcurve"/>
      <point x="137" y="292"/>
      <point x="208" y="205"/>
      <point x="275" y="205" type="qcurve"/>
      <point x="370" y="205"/>
      <point x="438" y="289" type="qcurve"/>
      <point x="436" y="217" type="line"/>
      <point x="361" y="136"/>
      <point x="257" y="136" type="qcurve"/>
      <point x="167" y="136"/>
      <point x="50" y="255"/>
      <point x="50" y="346" type="qcurve"/>
      <point x="50" y="445"/>
      <point x="171" y="579"/>
      <point x="274" y="579" type="qcurve"/>
      <point x="387" y="579"/>
      <point x="515" y="414"/>
      <point x="515" y="260" type="qcurve"/>
      <point x="515" y="69"/>
      <point x="331" y="-140"/>
      <point x="165" y="-140" type="qcurve"/>
      <point x="140" y="-140"/>
      <point x="102" y="-135" type="qcurve"/>
    </contour>
  </outline>
</glyph>
<glyph name="colon" format="1">
  <advance width="250"/>
  <unicode hex="003A"/>
  <outline>
    <contour>
      <point x="70" y="432" type="qcurve"/>
      <point x="70" y="463"/>
      <point x="105" y="499"/>
      <point x="136" y="499" type="qcurve"/>
      <point x="165" y="499"/>
      <point x="200" y="464"/>
      <point x="200" y="435" type="qcurve"/>
      <point x="200" y="404"/>
      <point x="164" y="369"/>
      <point x="133" y="369" type="qcurve"/>
      <point x="104" y="369"/>
      <point x="70" y="404"/>
    </contour>
    <contour>
      <point x="70" y="50" type="qcurve"/>
      <point x="70" y="81"/>
      <point x="105" y="117"/>
      <point x="136" y="117" type="qcurve"/>
      <point x="165" y="117"/>
      <point x="200" y="82"/>
      <point x="200" y="54" type="qcurve"/>
      <point x="200" y="21"/>
      <point x="164" y="-13"/>
      <point x="133" y="-13" type="qcurve"/>
      <point x="104" y="-13"/>
      <point x="70" y="21"/>
    </contour>
  </outline>
</glyph>
<glyph name="semicolon" format="1">
  <advance width="250"/>
  <unicode hex="003B"/>
  <outline>
    <contour>
      <point x="70" y="432" type="qcurve"/>
      <point x="70" y="463"/>
      <point x="105" y="499"/>
      <point x="136" y="499" type="qcurve"/>
      <point x="165" y="499"/>
      <point x="200" y="464"/>
      <point x="200" y="435" type="qcurve"/>
      <point x="200" y="404"/>
      <point x="164" y="369"/>
      <point x="133" y="369" type="qcurve"/>
      <point x="104" y="369"/>
      <point x="70" y="404"/>
    </contour>
    <contour>
      <point x="145" y="137" type="line"/>
      <point x="206" y="77"/>
      <point x="206" y="14" type="qcurve"/>
      <point x="206" y="-65"/>
      <point x="106" y="-158" type="qcurve"/>
      <point x="65" y="-121" type="line"/>
      <point x="121" y="-65"/>
      <point x="121" y="-19" type="qcurve"/>
      <point x="121" y="25"/>
      <point x="71" y="74" type="qcurve"/>
    </contour>
  </outline>
</glyph>
<glyph name="less" format="1">
  <advance width="561"/>
  <unicode hex="003C"/>
  <outline>
    <contour>
      <point x="150" y="281" type="line"/>
      <point x="506" y="137" type="line"/>
      <point x="506" y="57" type="line"/>
      <point x="55" y="245" type="line"/>
      <point x="55" y="320" type="line"/>
      <point x="506" y="508" type="line"/>
      <point x="506" y="429" type="line"/>
      <point x="150" y="283" type="line"/>
    </contour>
  </outline>
</glyph>
<glyph name="equal" format="1">
  <advance width="561"/>
  <unicode hex="003D"/>
  <outline>
    <contour>
      <point x="55" y="145" type="line"/>
      <point x="55" y="220" type="line"/>
      <point x="506" y="220" type="line"/>
      <point x="506" y="145" type="line"/>
    </contour>
    <contour>
      <point x="55" y="345" type="line"/>
      <point x="55" y="420" type="line"/>
      <point x="506" y="420" type="line"/>
      <point x="506" y="345" type="line"/>
    </contour>
  </outline>
</glyph>
<glyph name="greater" format="1">
  <advance width="561"/>
  <unicode hex="003E"/>
  <outline>
    <contour>
      <point x="411" y="283" type="line"/>
      <point x="55" y="429" type="line"/>
      <point x="55" y="508" type="line"/>
      <point x="506" y="320" type="line"/>
      <point x="506" y="245" type="line"/>
      <point x="55" y="57" type="line"/>
      <point x="55" y="137" type="line"/>
      <point x="411" y="281" type="line"/>
    </contour>
  </outline>
</glyph>
<glyph name="question" format="1">
  <advance width="415"/>
  <unicode hex="003F"/>
  <outline>
    <contour>
      <point x="75" y="686" type="line"/>
      <point x="127" y="704"/>
      <point x="180" y="704" type="qcurve"/>
      <point x="265" y="704"/>
      <point x="375" y="615"/>
      <point x="375" y="537" type="qcurve"/>
      <point x="375" y="482"/>
      <point x="326" y="406"/>
      <point x="279" y="371" type="qcurve"/>
      <point x="240" y="342"/>
      <point x="186" y="283"/>
      <point x="186" y="244" type="qcurve"/>
      <point x="186" y="223"/>
      <point x="195" y="196" type="qcurve"/>
      <point x="135" y="196" type="line"/>
      <point x="121" y="232"/>
      <point x="121" y="269" type="qcurve"/>
      <point x="121" y="312"/>
      <point x="168" y="376"/>
      <point x="204" y="402" type="qcurve"/>
      <point x="243" y="430"/>
      <point x="287" y="492"/>
      <point x="287" y="532" type="qcurve"/>
      <point x="287" y="580"/>
      <point x="224" y="632"/>
      <point x="167" y="632" type="qcurve"/>
      <point x="123" y="632"/>
      <point x="75" y="615" type="qcurve"/>
    </contour>
    <contour>
      <point x="101" y="50" type="qcurve"/>
      <point x="101" y="79"/>
      <point x="136" y="115"/>
      <point x="165" y="115" type="qcurve"/>
      <point x="194" y="115"/>
      <point x="229" y="80"/>
      <point x="229" y="52" type="qcurve"/>
      <point x="229" y="21"/>
      <point x="193" y="-13"/>
      <point x="164" y="-13" type="qcurve"/>
      <point x="135" y="-13"/>
      <point x="101" y="21"/>
    </contour>
  </outline>
</glyph>
<glyph name="at" format="1">
  <advance width="833"/>
  <unicode hex="0040"/>
  <outline>
    <contour>
      <point x="606" y="-143" type="line"/>
      <point x="504" y="-180"/>
      <point x="410" y="-180" type="qcurve"/>
      <point x="249" y="-180"/>
      <point x="55" y="12"/>
      <point x="55" y="170" type="qcurve"/>
      <point x="55" y="340"/>
      <point x="271" y="565"/>
      <point x="440" y="565" type="qcurve"/>
      <point x="592" y="565"/>
      <point x="779" y="380"/>
      <point x="779" y="245" type="qcurve"/>
      <point x="779" y="140"/>
      <point x="671" y="-2"/>
      <point x="594" y="-2" type="qcurve"/>
      <point x="548" y="-2"/>
      <point x="489" y="54"/>
      <point x="489" y="107" type="qcurve"/>
      <point x="486" y="108" type="line"/>
      <point x="440" y="-2"/>
      <point x="357" y="-2" type="qcurve"/>
      <point x="301" y="-2"/>
      <point x="243" y="85"/>
      <point x="243" y="154" type="qcurve"/>
      <point x="243" y="255"/>
      <point x="352" y="393"/>
      <point x="444" y="393" type="qcurve"/>
      <point x="501" y="393"/>
      <point x="570" y="370" type="qcurve"/>
      <point x="560" y="230" type="line"/>
      <point x="554" y="155"/>
      <point x="554" y="120" type="qcurve"/>
      <point x="554" y="61"/>
      <point x="594" y="61" type="qcurve"/>
      <point x="640" y="61"/>
      <point x="706" y="167"/>
      <point x="706" y="244" type="qcurve"/>
      <point x="706" y="358"/>
      <point x="556" y="498"/>
      <point x="438" y="498" type="qcurve"/>
      <point x="306" y="498"/>
      <point x="133" y="319"/>
      <point x="133" y="179" type="qcurve"/>
      <point x="133" y="44"/>
      <point x="289" y="-111"/>
      <point x="418" y="-111" type="qcurve"/>
      <point x="506" y="-111"/>
      <point x="606" y="-74" type="qcurve"/>
    </contour>
    <contour>
      <point x="493" y="326" type="line"/>
      <point x="463" y="335"/>
      <point x="440" y="335" type="qcurve"/>
      <point x="389" y="335"/>
      <point x="326" y="236"/>
      <point x="326" y="160" type="qcurve"/>
      <point x="326" y="115"/>
      <point x="350" y="65"/>
      <point x="377" y="65" type="qcurve"/>
      <point x="420" y="65"/>
      <point x="483" y="201"/>
      <point x="489" y="275" type="qcurve"/>
    </contour>
  </outline>
</glyph>
<glyph name="A" format="1">
  <advance width="664"/>
  <unicode hex="0041"/>
  <outline>
    <contour>
      <point x="211" y="68" type="line"/>
      <point x="211" y="0" type="line"/>
      <point x="-8" y="0" type="line"/>
      <point x="-8" y="68" type="line"/>
      <point x="57" y="68" type="line"/>
      <point x="289" y="704" type="line"/>
      <point x="375" y="704" type="line"/>
      <point x="607" y="68" type="line"/>
      <point x="671" y="68" type="line"/>
      <point x="671" y="0" type="line"/>
      <point x="445" y="0" type="line"/>
      <point x="445" y="68" type="line"/>
      <point x="515" y="68" type="line"/>
      <point x="449" y="252" type="line"/>
      <point x="205" y="252" type="line"/>
      <point x="140" y="68" type="line"/>
    </contour>
    <contour>
      <point x="325" y="594" type="line"/>
      <point x="229" y="321" type="line"/>
      <point x="424" y="321" type="line"/>
      <point x="327" y="594" type="line"/>
    </contour>
  </outline>
</glyph>
<glyph name="B" format="1">
  <advance width="610"/>
  <unicode hex="0042"/>
  <outline>
    <contour>
      <point x="417" y="369" type="line"/>
      <point x="494" y="352"/>
      <point x="564" y="260"/>
      <point x="564" y="199" type="qcurve"/>
      <point x="564" y="105"/>
      <point x="423" y="0"/>
      <point x="282" y="0" type="qcurve"/>
      <point x="45" y="0" type="line"/>
      <point x="45" y="68" type="line"/>
      <point x="120" y="68" type="line"/>
      <point x="120" y="632" type="line"/>
      <point x="45" y="632" type="line"/>
      <point x="45" y="700" type="line"/>
      <point x="285" y="700" type="line"/>
      <point x="414" y="700"/>
      <point x="535" y="610"/>
      <point x="535" y="529" type="qcurve"/>
      <point x="535" y="471"/>
      <point x="479" y="390"/>
      <point x="417" y="371" type="qcurve"/>
    </contour>
    <contour>
      <point x="287" y="68" type="line"/>
      <point x="381" y="68"/>
      <point x="474" y="129"/>
      <point x="474" y="199" type="qcurve"/>
      <point x="474" y="265"/>
      <point x="392" y="330"/>
      <point x="301" y="330" type="qcurve"/>
      <point x="205" y="330" type="line"/>
      <point x="205" y="68" type="line"/>
    </contour>
    <contour>
      <point x="286" y="396" type="line"/>
      <point x="446" y="396"/>
      <point x="446" y="515" type="qcurve"/>
      <point x="446" y="579"/>
      <point x="367" y="632"/>
      <point x="279" y="632" type="qcurve"/>
      <point x="205" y="632" type="line"/>
      <point x="205" y="396" type="line"/>
    </contour>
  </outline>
</glyph>
<glyph name="C" format="1">
  <advance width="656"/>
  <unicode hex="0043"/>
  <outline>
    <contour>
      <point x="611" y="43" type="line"/>
      <point x="508" y="-13"/>
      <point x="386" y="-13" type="qcurve"/>
      <point x="235" y="-13"/>
      <point x="55" y="186"/>
      <point x="55" y="349" type="qcurve"/>
      <point x="55" y="514"/>
      <point x="236" y="713"/>
      <point x="389" y="713" type="qcurve"/>
      <point x="496" y="713"/>
      <point x="611" y="661" type="qcurve"/>
      <point x="611" y="514" type="line"/>
      <point x="538" y="514" type="line"/>
      <point x="538" y="608" type="line"/>
      <point x="471" y="640"/>
      <point x="386" y="640" type="qcurve"/>
      <point x="268" y="640"/>
      <point x="145" y="493"/>
      <point x="145" y="355" type="qcurve"/>
      <point x="145" y="214"/>
      <point x="275" y="60"/>
      <point x="394" y="60" type="qcurve"/>
      <point x="493" y="60"/>
      <point x="611" y="119" type="qcurve"/>
    </contour>
  </outline>
</glyph>
<glyph name="D" format="1">
  <advance width="719"/>
  <unicode hex="0044"/>
  <outline>
    <contour>
      <point x="45" y="68" type="line"/>
      <point x="120" y="68" type="line"/>
      <point x="120" y="632" type="line"/>
      <point x="45" y="632" type="line"/>
      <point x="45" y="700" type="line"/>
      <point x="302" y="700" type="line"/>
      <point x="487" y="700"/>
      <point x="664" y="533"/>
      <point x="664" y="369" type="qcurve"/>
      <point x="664" y="188"/>
      <point x="463" y="0"/>
      <point x="276" y="0" type="qcurve"/>
      <point x="45" y="0" type="line"/>
    </contour>
    <contour>
      <point x="205" y="68" type="line"/>
      <point x="286" y="68" type="line"/>
      <point x="425" y="68"/>
      <point x="574" y="210"/>
      <point x="574" y="360" type="qcurve"/>
      <point x="574" y="500"/>
      <point x="437" y="632"/>
      <point x="287" y="632" type="qcurve"/>
      <point x="205" y="632" type="line"/>
    </contour>
  </outline>
</glyph>
<glyph name="E" format="1">
  <advance width="594"/>
  <unicode hex="0045"/>
  <outline>
    <contour>
      <point x="471" y="68" type="line"/>
      <point x="471" y="168" type="line"/>
      <point x="544" y="168" type="line"/>
      <point x="544" y="0" type="line"/>
      <point x="45" y="0" type="line"/>
      <point x="45" y="68" type="line"/>
      <point x="120" y="68" type="line"/>
      <point x="120" y="632" type="line"/>
      <point x="45" y="632" type="line"/>
      <point x="45" y="700" type="line"/>
      <point x="535" y="700" type="line"/>
      <point x="535" y="532" type="line"/>
      <point x="461" y="532" type="line"/>
      <point x="461" y="632" type="line"/>
      <point x="205" y="632" type="line"/>
      <point x="205" y="396" type="line"/>
      <point x="358" y="396" type="line"/>
      <point x="358" y="467" type="line"/>
      <point x="427" y="467" type="line"/>
      <point x="427" y="254" type="line"/>
      <point x="358" y="254" type="line"/>
      <point x="358" y="329" type="line"/>
      <point x="205" y="329" type="line"/>
      <point x="205" y="68" type="line"/>
    </contour>
  </outline>
</glyph>
<glyph name="F" format="1">
  <advance width="556"/>
  <unicode hex="0046"/>
  <outline>
    <contour>
      <point x="45" y="632" type="line"/>
      <point x="45" y="700" type="line"/>
      <point x="531" y="700" type="line"/>
      <point x="531" y="532" type="line"/>
      <point x="458" y="532" type="line"/>
      <point x="458" y="632" type="line"/>
      <point x="205" y="632" type="line"/>
      <point x="205" y="382" type="line"/>
      <point x="365" y="382" type="line"/>
      <point x="365" y="452" type="line"/>
      <point x="435" y="452" type="line"/>
      <point x="435" y="235" type="line"/>
      <point x="365" y="235" type="line"/>
      <point x="365" y="314" type="line"/>
      <point x="205" y="314" type="line"/>
      <point x="205" y="68" type="line"/>
      <point x="290" y="68" type="line"/>
      <point x="290" y="0" type="line"/>
      <point x="45" y="0" type="line"/>
      <point x="45" y="68" type="line"/>
      <point x="120" y="68" type="line"/>
      <point x="120" y="632" type="line"/>
    </contour>
  </outline>
</glyph>
<glyph name="G" format="1">
  <advance width="724"/>
  <unicode hex="0047"/>
  <outline>
    <contour>
      <point x="439" y="319" type="line"/>
      <point x="694" y="319" type="line"/>
      <point x="694" y="251" type="line"/>
      <point x="619" y="251" type="line"/>
      <point x="619" y="40" type="line"/>
      <point x="513" y="-13"/>
      <point x="392" y="-13" type="qcurve"/>
      <point x="237" y="-13"/>
      <point x="55" y="181"/>
      <point x="55" y="349" type="qcurve"/>
      <point x="55" y="518"/>
      <point x="238" y="713"/>
      <point x="390" y="713" type="qcurve"/>
      <point x="506" y="713"/>
      <point x="619" y="661" type="qcurve"/>
      <point x="619" y="514" type="line"/>
      <point x="546" y="514" type="line"/>
      <point x="546" y="608" type="line"/>
      <point x="479" y="640"/>
      <point x="389" y="640" type="qcurve"/>
      <point x="271" y="640"/>
      <point x="145" y="500"/>
      <point x="145" y="356" type="qcurve"/>
      <point x="145" y="212"/>
      <point x="279" y="60"/>
      <point x="396" y="60" type="qcurve"/>
      <point x="465" y="60"/>
      <point x="535" y="85" type="qcurve"/>
      <point x="535" y="251" type="line"/>
      <point x="439" y="251" type="line"/>
    </contour>
  </outline>
</glyph>
<glyph name="H" format="1">
  <advance width="775"/>
  <unicode hex="0048"/>
  <outline>
    <contour>
      <point x="495" y="68" type="line"/>
      <point x="570" y="68" type="line"/>
      <point x="570" y="329" type="line"/>
      <point x="205" y="329" type="line"/>
      <point x="205" y="68" type="line"/>
      <point x="280" y="68" type="line"/>
      <point x="280" y="0" type="line"/>
      <point x="45" y="0" type="line"/>
      <point x="45" y="68" type="line"/>
      <point x="120" y="68" type="line"/>
      <point x="120" y="632" type="line"/>
      <point x="45" y="632" type="line"/>
      <point x="45" y="700" type="line"/>
      <point x="279" y="700" type="line"/>
      <point x="279" y="632" type="line"/>
      <point x="205" y="632" type="line"/>
      <point x="205" y="396" type="line"/>
      <point x="570" y="396" type="line"/>
      <point x="570" y="632" type="line"/>
      <point x="495" y="632" type="line"/>
      <point x="495" y="700" type="line"/>
      <point x="730" y="700" type="line"/>
      <point x="730" y="632" type="line"/>
      <point x="655" y="632" type="line"/>
      <point x="655" y="68" type="line"/>
      <point x="730" y="68" type="line"/>
      <point x="730" y="0" type="line"/>
      <point x="495" y="0" type="line"/>
    </contour>
  </outline>
</glyph>
<glyph name="I" format="1">
  <advance width="325"/>
  <unicode hex="0049"/>
  <outline>
    <contour>
      <point x="45" y="68" type="line"/>
      <point x="120" y="68" type="line"/>
      <point x="120" y="632" type="line"/>
      <point x="45" y="632" type="line"/>
      <point x="45" y="700" type="line"/>
      <point x="280" y="700" type="line"/>
      <point x="280" y="632" type="line"/>
      <point x="205" y="632" type="line"/>
      <point x="205" y="68" type="line"/>
      <point x="280" y="68" type="line"/>
      <point x="280" y="0" type="line"/>
      <point x="45" y="0" type="line"/>
    </contour>
  </outline>
</glyph>
<glyph name="J" format="1">
  <advance width="296"/>
  <unicode hex="004A"/>
  <outline>
    <contour>
      <point x="-14" y="-106" type="line"/>
      <point x="4" y="-108"/>
      <point x="20" y="-108" type="qcurve"/>
      <point x="67" y="-108"/>
      <point x="105" y="-60"/>
      <point x="105" y="4" type="qcurve"/>
      <point x="105" y="632" type="line"/>
      <point x="30" y="632" type="line"/>
      <point x="30" y="700" type="line"/>
      <point x="265" y="700" type="line"/>
      <point x="265" y="632" type="line"/>
      <point x="190" y="632" type="line"/>
      <point x="190" y="15" type="line"/>
      <point x="190" y="-82"/>
      <point x="119" y="-180"/>
      <point x="29" y="-180" type="qcurve"/>
      <point x="7" y="-180"/>
      <point x="-14" y="-176" type="qcurve"/>
    </contour>
  </outline>
</glyph>
<glyph name="K" format="1">
  <advance width="643"/>
  <unicode hex="004B"/>
  <outline>
    <contour>
      <point x="205" y="68" type="line"/>
      <point x="280" y="68" type="line"/>
      <point x="280" y="0" type="line"/>
      <point x="45" y="0" type="line"/>
      <point x="45" y="68" type="line"/>
      <point x="120" y="68" type="line"/>
      <point x="120" y="632" type="line"/>
      <point x="45" y="632" type="line"/>
      <point x="45" y="700" type="line"/>
      <point x="279" y="700" type="line"/>
      <point x="279" y="632" type="line"/>
      <point x="205" y="632" type="line"/>
    </contour>
    <contour>
      <point x="465" y="68" type="line"/>
      <point x="210" y="358" type="line"/>
      <point x="280" y="404" type="line"/>
      <point x="579" y="68" type="line"/>
    </contour>
    <contour>
      <point x="554" y="632" type="line"/>
      <point x="276" y="325" type="line"/>
      <point x="210" y="358" type="line"/>
      <point x="456" y="632" type="line"/>
    </contour>
    <contour>
      <point x="573" y="68" type="line"/>
      <point x="643" y="68" type="line"/>
      <point x="643" y="0" type="line"/>
      <point x="401" y="0" type="line"/>
      <point x="401" y="68" type="line"/>
      <point x="465" y="68" type="line"/>
    </contour>
    <contour>
      <point x="456" y="632" type="line"/>
      <point x="390" y="632" type="line"/>
      <point x="390" y="700" type="line"/>
      <point x="623" y="700" type="line"/>
      <point x="623" y="632" type="line"/>
      <point x="554" y="632" type="line"/>
    </contour>
  </outline>
</glyph>
<glyph name="L" format="1">
  <advance width="539"/>
  <unicode hex="004C"/>
  <outline>
    <contour>
      <point x="45" y="68" type="line"/>
      <point x="120" y="68" type="line"/>
      <point x="120" y="632" type="line"/>
      <point x="45" y="632" type="line"/>
      <point x="45" y="700" type="line"/>
      <point x="279" y="700" type="line"/>
      <point x="279" y="632" type="line"/>
      <point x="205" y="632" type="line"/>
      <point x="205" y="68" type="line"/>
      <point x="440" y="68" type="line"/>
      <point x="440" y="168" type="line"/>
      <point x="514" y="168" type="line"/>
      <point x="514" y="0" type="line"/>
      <point x="45" y="0" type="line"/>
    </contour>
  </outline>
</glyph>
<glyph name="M" format="1">
  <advance width="943"/>
  <unicode hex="004D"/>
  <outline>
    <contour>
      <point x="730" y="579" type="line"/>
      <point x="496" y="-5" type="line"/>
      <point x="438" y="-5" type="line"/>
      <point x="206" y="567" type="line"/>
      <point x="204" y="567" type="line"/>
      <point x="192" y="68" type="line"/>
      <point x="267" y="68" type="line"/>
      <point x="267" y="0" type="line"/>
      <point x="40" y="0" type="line"/>
      <point x="40" y="68" type="line"/>
      <point x="115" y="68" type="line"/>
      <point x="130" y="632" type="line"/>
      <point x="48" y="632" type="line"/>
      <point x="48" y="700" type="line"/>
      <point x="244" y="700" type="line"/>
      <point x="474" y="135" type="line"/>
      <point x="701" y="700" type="line"/>
      <point x="892" y="700" type="line"/>
      <point x="892" y="632" type="line"/>
      <point x="815" y="632" type="line"/>
      <point x="826" y="68" type="line"/>
      <point x="901" y="68" type="line"/>
      <point x="901" y="0" type="line"/>
      <point x="667" y="0" type="line"/>
      <point x="667" y="68" type="line"/>
      <point x="742" y="68" type="line"/>
      <point x="732" y="579" type="line"/>
    </contour>
  </outline>
</glyph>
<glyph name="N" format="1">
  <advance width="765"/>
  <unicode hex="004E"/>
  <outline>
    <contour>
      <point x="573" y="632" type="line"/>
      <point x="498" y="632" type="line"/>
      <point x="498" y="700" type="line"/>
      <point x="725" y="700" type="line"/>
      <point x="725" y="632" type="line"/>
      <point x="650" y="632" type="line"/>
      <point x="650" y="0" type="line"/>
      <point x="569" y="0" type="line"/>
      <point x="199" y="550" type="line"/>
      <point x="196" y="550" type="line"/>
      <point x="196" y="68" type="line"/>
      <point x="271" y="68" type="line"/>
      <point x="271" y="0" type="line"/>
      <point x="45" y="0" type="line"/>
      <point x="45" y="68" type="line"/>
      <point x="120" y="68" type="line"/>
      <point x="120" y="632" type="line"/>
      <point x="45" y="632" type="line"/>
      <point x="45" y="700" type="line"/>
      <point x="201" y="700" type="line"/>
      <point x="571" y="150" type="line"/>
      <point x="573" y="150" type="line"/>
    </contour>
  </outline>
</glyph>
<glyph name="O" format="1">
  <advance width="760"/>
  <unicode hex="004F"/>
  <outline>
    <contour>
      <point x="55" y="351" type="qcurve"/>
      <point x="55" y="514"/>
      <point x="235" y="713"/>
      <point x="387" y="713" type="qcurve"/>
      <point x="535" y="713"/>
      <point x="705" y="521"/>
      <point x="705" y="360" type="qcurve"/>
      <point x="705" y="190"/>
      <point x="525" y="-13"/>
      <point x="377" y="-13" type="qcurve"/>
      <point x="231" y="-13"/>
      <point x="55" y="186"/>
    </contour>
    <contour>
      <point x="145" y="356" type="qcurve"/>
      <point x="145" y="219"/>
      <point x="270" y="60"/>
      <point x="380" y="60" type="qcurve"/>
      <point x="490" y="60"/>
      <point x="615" y="218"/>
      <point x="615" y="357" type="qcurve"/>
      <point x="615" y="489"/>
      <point x="496" y="640"/>
      <point x="382" y="640" type="qcurve"/>
      <point x="268" y="640"/>
      <point x="145" y="493"/>
    </contour>
  </outline>
</glyph>
<glyph name="P" format="1">
  <advance width="571"/>
  <unicode hex="0050"/>
  <outline>
    <contour>
      <point x="205" y="289" type="line"/>
      <point x="205" y="68" type="line"/>
      <point x="290" y="68" type="line"/>
      <point x="290" y="0" type="line"/>
      <point x="45" y="0" type="line"/>
      <point x="45" y="68" type="line"/>
      <point x="120" y="68" type="line"/>
      <point x="120" y="632" type="line"/>
      <point x="45" y="632" type="line"/>
      <point x="45" y="700" type="line"/>
      <point x="285" y="700" type="line"/>
      <point x="415" y="700"/>
      <point x="536" y="601"/>
      <point x="536" y="505" type="qcurve"/>
      <point x="536" y="399"/>
      <point x="396" y="289"/>
      <point x="265" y="289" type="qcurve"/>
    </contour>
    <contour>
      <point x="269" y="357" type="line"/>
      <point x="355" y="357"/>
      <point x="448" y="421"/>
      <point x="448" y="498" type="qcurve"/>
      <point x="448" y="571"/>
      <point x="365" y="632"/>
      <point x="276" y="632" type="qcurve"/>
      <point x="205" y="632" type="line"/>
      <point x="205" y="357" type="line"/>
    </contour>
  </outline>
</glyph>
<glyph name="Q" format="1">
  <advance width="760"/>
  <unicode hex="0051"/>
  <outline>
    <contour>
      <point x="845" y="-149" type="line"/>
      <point x="774" y="-180"/>
      <point x="694" y="-180" type="qcurve"/>
      <point x="596" y="-180"/>
      <point x="426" y="-90"/>
      <point x="369" y="-13" type="qcurve"/>
      <point x="226" y="-10"/>
      <point x="55" y="188"/>
      <point x="55" y="351" type="qcurve"/>
      <point x="55" y="514"/>
      <point x="235" y="713"/>
      <point x="387" y="713" type="qcurve"/>
      <point x="535" y="713"/>
      <point x="705" y="521"/>
      <point x="705" y="360" type="qcurve"/>
      <point x="705" y="229"/>
      <point x="589" y="36"/>
      <point x="471" y="1" type="qcurve"/>
      <point x="471" y="-1" type="line"/>
      <point x="510" y="-52"/>
      <point x="632" y="-110"/>
      <point x="704" y="-110" type="qcurve"/>
      <point x="777" y="-110"/>
      <point x="845" y="-79" type="qcurve"/>
    </contour>
    <contour>
      <point x="145" y="356" type="qcurve"/>
      <point x="145" y="219"/>
      <point x="270" y="60"/>
      <point x="380" y="60" type="qcurve"/>
      <point x="490" y="60"/>
      <point x="615" y="218"/>
      <point x="615" y="357" type="qcurve"/>
      <point x="615" y="489"/>
      <point x="496" y="640"/>
      <point x="382" y="640" type="qcurve"/>
      <point x="268" y="640"/>
      <point x="145" y="493"/>
    </contour>
  </outline>
</glyph>
<glyph name="R" format="1">
  <advance width="617"/>
  <unicode hex="0052"/>
  <outline>
    <contour>
      <point x="205" y="68" type="line"/>
      <point x="280" y="68" type="line"/>
      <point x="280" y="0" type="line"/>
      <point x="45" y="0" type="line"/>
      <point x="45" y="68" type="line"/>
      <point x="120" y="68" type="line"/>
      <point x="120" y="632" type="line"/>
      <point x="45" y="632" type="line"/>
      <point x="45" y="700" type="line"/>
      <point x="285" y="700" type="line"/>
      <point x="417" y="700"/>
      <point x="537" y="606"/>
      <point x="537" y="519" type="qcurve"/>
      <point x="537" y="361"/>
      <point x="360" y="330" type="qcurve"/>
      <point x="360" y="329" type="line"/>
      <point x="380" y="319"/>
      <point x="425" y="275"/>
      <point x="456" y="225" type="qcurve"/>
      <point x="552" y="68" type="line"/>
      <point x="627" y="68" type="line"/>
      <point x="627" y="0" type="line"/>
      <point x="488" y="0" type="line"/>
      <point x="471" y="31"/>
      <point x="440" y="85"/>
      <point x="426" y="108" type="qcurve"/>
      <point x="374" y="196" type="line"/>
      <point x="346" y="240"/>
      <point x="307" y="292"/>
      <point x="290" y="304" type="qcurve"/>
      <point x="274" y="314"/>
      <point x="248" y="319"/>
      <point x="221" y="319" type="qcurve"/>
      <point x="205" y="319" type="line"/>
    </contour>
    <contour>
      <point x="267" y="385" type="line"/>
      <point x="358" y="385"/>
      <point x="449" y="445"/>
      <point x="449" y="511" type="qcurve"/>
      <point x="449" y="577"/>
      <point x="367" y="632"/>
      <point x="276" y="632" type="qcurve"/>
      <point x="205" y="632" type="line"/>
      <point x="205" y="385" type="line"/>
    </contour>
  </outline>
</glyph>
<glyph name="S" format="1">
  <advance width="519"/>
  <unicode hex="0053"/>
  <outline>
    <contour>
      <point x="238" y="-13" type="qcurve"/>
      <point x="142" y="-13"/>
      <point x="52" y="23" type="qcurve"/>
      <point x="52" y="190" type="line"/>
      <point x="125" y="190" type="line"/>
      <point x="125" y="77" type="line"/>
      <point x="176" y="58"/>
      <point x="244" y="58" type="qcurve"/>
      <point x="313" y="58"/>
      <point x="390" y="121"/>
      <point x="390" y="171" type="qcurve"/>
      <point x="390" y="201"/>
      <point x="367" y="242"/>
      <point x="346" y="258" type="qcurve"/>
      <point x="327" y="274"/>
      <point x="271" y="300"/>
      <point x="240" y="313" type="qcurve"/>
      <point x="206" y="329"/>
      <point x="136" y="360"/>
      <point x="108" y="383" type="qcurve"/>
      <point x="80" y="407"/>
      <point x="45" y="471"/>
      <point x="45" y="518" type="qcurve"/>
      <point x="45" y="606"/>
      <point x="171" y="713"/>
      <point x="276" y="713" type="qcurve"/>
      <point x="371" y="713"/>
      <point x="451" y="673" type="qcurve"/>
      <point x="451" y="514" type="line"/>
      <point x="379" y="514" type="line"/>
      <point x="379" y="621" type="line"/>
      <point x="330" y="642"/>
      <point x="269" y="642" type="qcurve"/>
      <point x="202" y="642"/>
      <point x="132" y="576"/>
      <point x="132" y="531" type="qcurve"/>
      <point x="132" y="502"/>
      <point x="157" y="461"/>
      <point x="179" y="445" type="qcurve"/>
      <point x="199" y="430"/>
      <point x="257" y="404"/>
      <point x="290" y="390" type="qcurve"/>
      <point x="324" y="375"/>
      <point x="392" y="342"/>
      <point x="419" y="318" type="qcurve"/>
      <point x="446" y="295"/>
      <point x="479" y="231"/>
      <point x="479" y="185" type="qcurve"/>
      <point x="479" y="96"/>
      <point x="350" y="-13"/>
    </contour>
  </outline>
</glyph>
<glyph name="T" format="1">
  <advance width="604"/>
  <unicode hex="0054"/>
  <outline>
    <contour>
      <point x="179" y="68" type="line"/>
      <point x="260" y="68" type="line"/>
      <point x="260" y="632" type="line"/>
      <point x="98" y="632" type="line"/>
      <point x="98" y="532" type="line"/>
      <point x="25" y="532" type="line"/>
      <point x="25" y="700" type="line"/>
      <point x="579" y="700" type="line"/>
      <point x="579" y="532" type="line"/>
      <point x="505" y="532" type="line"/>
      <point x="505" y="632" type="line"/>
      <point x="344" y="632" type="line"/>
      <point x="344" y="68" type="line"/>
      <point x="424" y="68" type="line"/>
      <point x="424" y="0" type="line"/>
      <point x="179" y="0" type="line"/>
    </contour>
  </outline>
</glyph>
<glyph name="U" format="1">
  <advance width="729"/>
  <unicode hex="0055"/>
  <outline>
    <contour>
      <point x="190" y="246" type="line"/>
      <point x="190" y="157"/>
      <point x="285" y="60"/>
      <point x="365" y="60" type="qcurve"/>
      <point x="449" y="60"/>
      <point x="545" y="160"/>
      <point x="545" y="250" type="qcurve"/>
      <point x="545" y="632" type="line"/>
      <point x="470" y="632" type="line"/>
      <point x="470" y="700" type="line"/>
      <point x="698" y="700" type="line"/>
      <point x="698" y="632" type="line"/>
      <point x="623" y="632" type="line"/>
      <point x="623" y="254" type="line"/>
      <point x="623" y="135"/>
      <point x="483" y="-13"/>
      <point x="362" y="-13" type="qcurve"/>
      <point x="245" y="-13"/>
      <point x="105" y="126"/>
      <point x="105" y="245" type="qcurve"/>
      <point x="105" y="632" type="line"/>
      <point x="30" y="632" type="line"/>
      <point x="30" y="700" type="line"/>
      <point x="264" y="700" type="line"/>
      <point x="264" y="632" type="line"/>
      <point x="190" y="632" type="line"/>
    </contour>
  </outline>
</glyph>
<glyph name="V" format="1">
  <advance width="664"/>
  <unicode hex="0056"/>
  <outline>
    <contour>
      <point x="339" y="106" type="line"/>
      <point x="523" y="632" type="line"/>
      <point x="454" y="632" type="line"/>
      <point x="454" y="700" type="line"/>
      <point x="671" y="700" type="line"/>
      <point x="671" y="632" type="line"/>
      <point x="607" y="632" type="line"/>
      <point x="375" y="-4" type="line"/>
      <point x="289" y="-4" type="line"/>
      <point x="57" y="632" type="line"/>
      <point x="-8" y="632" type="line"/>
      <point x="-8" y="700" type="line"/>
      <point x="219" y="700" type="line"/>
      <point x="219" y="632" type="line"/>
      <point x="149" y="632" type="line"/>
      <point x="337" y="106" type="line"/>
    </contour>
  </outline>
</glyph>
<glyph name="W" format="1">
  <advance width="1004"/>
  <unicode hex="0057"/>
  <outline>
    <contour>
      <point x="540" y="500" type="line"/>
      <point x="368" y="-4" type="line"/>
      <point x="330" y="105" type="line"/>
      <point x="495" y="587" type="line"/>
    </contour>
    <contour>
      <point x="158" y="635" type="line"/>
      <point x="332" y="105" type="line"/>
      <point x="335" y="105" type="line"/>
      <point x="368" y="-4" type="line"/>
      <point x="282" y="-4" type="line"/>
      <point x="65" y="637" type="line"/>
    </contour>
    <contour>
      <point x="67" y="632" type="line"/>
      <point x="2" y="632" type="line"/>
      <point x="2" y="700" type="line"/>
      <point x="229" y="700" type="line"/>
      <point x="229" y="632" type="line"/>
      <point x="160" y="632" type="line"/>
    </contour>
    <contour>
      <point x="938" y="637" type="line"/>
      <point x="720" y="-4" type="line"/>
      <point x="682" y="105" type="line"/>
      <point x="854" y="635" type="line"/>
    </contour>
    <contour>
      <point x="507" y="635" type="line"/>
      <point x="685" y="105" type="line"/>
      <point x="686" y="105" type="line"/>
      <point x="720" y="-4" type="line"/>
      <point x="635" y="-4" type="line"/>
      <point x="418" y="637" type="line"/>
    </contour>
    <contour>
      <point x="415" y="632" type="line"/>
      <point x="349" y="632" type="line"/>
      <point x="349" y="700" type="line"/>
      <point x="579" y="700" type="line"/>
      <point x="579" y="632" type="line"/>
      <point x="505" y="632" type="line"/>
    </contour>
    <contour>
      <point x="854" y="632" type="line"/>
      <point x="783" y="632" type="line"/>
      <point x="783" y="700" type="line"/>
      <point x="1001" y="700" type="line"/>
      <point x="1001" y="632" type="line"/>
      <point x="936" y="632" type="line"/>
    </contour>
  </outline>
</glyph>
<glyph name="X" format="1">
  <advance width="639"/>
  <unicode hex="0058"/>
  <outline>
    <contour>
      <point x="79" y="632" type="line"/>
      <point x="8" y="632" type="line"/>
      <point x="8" y="700" type="line"/>
      <point x="244" y="700" type="line"/>
      <point x="244" y="632" type="line"/>
      <point x="179" y="632" type="line"/>
      <point x="567" y="68" type="line"/>
      <point x="637" y="68" type="line"/>
      <point x="637" y="0" type="line"/>
      <point x="401" y="0" type="line"/>
      <point x="401" y="68" type="line"/>
      <point x="465" y="68" type="line"/>
    </contour>
    <contour>
      <point x="287" y="371" type="line"/>
      <point x="465" y="632" type="line"/>
      <point x="401" y="632" type="line"/>
      <point x="401" y="700" type="line"/>
      <point x="625" y="700" type="line"/>
      <point x="625" y="632" type="line"/>
      <point x="555" y="632" type="line"/>
      <point x="324" y="299" type="line"/>
    </contour>
    <contour>
      <point x="340" y="335" type="line"/>
      <point x="161" y="68" type="line"/>
      <point x="226" y="68" type="line"/>
      <point x="226" y="0" type="line"/>
      <point x="2" y="0" type="line"/>
      <point x="2" y="68" type="line"/>
      <point x="71" y="68" type="line"/>
      <point x="304" y="407" type="line"/>
    </contour>
  </outline>
</glyph>
<glyph name="Y" format="1">
  <advance width="625"/>
  <unicode hex="0059"/>
  <outline>
    <contour>
      <point x="270" y="286" type="line"/>
      <point x="42" y="632" type="line"/>
      <point x="-23" y="632" type="line"/>
      <point x="-23" y="700" type="line"/>
      <point x="211" y="700" type="line"/>
      <point x="211" y="632" type="line"/>
      <point x="140" y="632" type="line"/>
      <point x="319" y="360" type="line"/>
      <point x="488" y="632" type="line"/>
      <point x="418" y="632" type="line"/>
      <point x="418" y="700" type="line"/>
      <point x="640" y="700" type="line"/>
      <point x="640" y="632" type="line"/>
      <point x="576" y="632" type="line"/>
      <point x="355" y="286" type="line"/>
      <point x="355" y="68" type="line"/>
      <point x="435" y="68" type="line"/>
      <point x="435" y="0" type="line"/>
      <point x="190" y="0" type="line"/>
      <point x="190" y="68" type="line"/>
      <point x="270" y="68" type="line"/>
    </contour>
  </outline>
</glyph>
<glyph name="Z" format="1">
  <advance width="579"/>
  <unicode hex="005A"/>
  <outline>
    <contour>
      <point x="40" y="60" type="line"/>
      <point x="419" y="632" type="line"/>
      <point x="129" y="632" type="line"/>
      <point x="129" y="532" type="line"/>
      <point x="55" y="532" type="line"/>
      <point x="55" y="700" type="line"/>
      <point x="523" y="700" type="line"/>
      <point x="523" y="640" type="line"/>
      <point x="145" y="68" type="line"/>
      <point x="455" y="68" type="line"/>
      <point x="455" y="168" type="line"/>
      <point x="529" y="168" type="line"/>
      <point x="529" y="0" type="line"/>
      <point x="40" y="0" type="line"/>
    </contour>
  </outline>
</glyph>
<glyph name="bracketleft" format="1">
  <advance width="331"/>
  <unicode hex="005B"/>
  <outline>
    <contour>
      <point x="80" y="740" type="line"/>
      <point x="281" y="740" type="line"/>
      <point x="281" y="671" type="line"/>
      <point x="160" y="671" type="line"/>
      <point x="160" y="-108" type="line"/>
      <point x="281" y="-108" type="line"/>
      <point x="281" y="-176" type="line"/>
      <point x="80" y="-176" type="line"/>
    </contour>
  </outline>
</glyph>
<glyph name="backslash" format="1">
  <advance width="399"/>
  <unicode hex="005C"/>
  <outline>
    <contour>
      <point x="406" y="-152" type="line"/>
      <point x="332" y="-152" type="line"/>
      <point x="40" y="713" type="line"/>
      <point x="114" y="713" type="line"/>
    </contour>
  </outline>
</glyph>
<glyph name="bracketright" format="1">
  <advance width="331"/>
  <unicode hex="005D"/>
  <outline>
    <contour>
      <point x="251" y="-176" type="line"/>
      <point x="50" y="-176" type="line"/>
      <point x="50" y="-108" type="line"/>
      <point x="171" y="-108" type="line"/>
      <point x="171" y="671" type="line"/>
      <point x="50" y="671" type="line"/>
      <point x="50" y="740" type="line"/>
      <point x="251" y="740" type="line"/>
    </contour>
  </outline>
</glyph>
<glyph name="asciicircum" format="1">
  <advance width="535"/>
  <unicode hex="005E"/>
  <outline>
    <contour>
      <point x="265" y="605" type="line"/>
      <point x="127" y="319" type="line"/>
      <point x="50" y="319" type="line"/>
      <point x="240" y="700" type="line"/>
      <point x="295" y="700" type="line"/>
      <point x="485" y="319" type="line"/>
      <point x="408" y="319" type="line"/>
      <point x="268" y="605" type="line"/>
    </contour>
  </outline>
</glyph>
<glyph name="underscore" format="1">
  <advance width="400"/>
  <unicode hex="005F"/>
  <outline>
    <contour>
      <point x="-15" y="-58" type="line"/>
      <point x="415" y="-58" type="line"/>
      <point x="415" y="-121" type="line"/>
      <point x="-15" y="-121" type="line"/>
    </contour>
  </outline>
</glyph>
<glyph name="a" format="1">
  <advance width="515"/>
  <unicode hex="0061"/>
  <outline>
    <contour>
      <point x="73" y="452" type="line"/>
      <point x="160" y="513"/>
      <point x="251" y="513" type="qcurve"/>
      <point x="335" y="513"/>
      <point x="425" y="433"/>
      <point x="425" y="345" type="qcurve"/>
      <point x="425" y="68" type="line"/>
      <point x="500" y="68" type="line"/>
      <point x="500" y="0" type="line"/>
      <point x="346" y="0" type="line"/>
      <point x="343" y="64" type="line"/>
      <point x="340" y="64" type="line"/>
      <point x="275" y="-13"/>
      <point x="187" y="-13" type="qcurve"/>
      <point x="123" y="-13"/>
      <point x="40" y="61"/>
      <point x="40" y="121" type="qcurve"/>
      <point x="40" y="200"/>
      <point x="182" y="287"/>
      <point x="317" y="287" type="qcurve"/>
      <point x="340" y="287" type="line"/>
      <point x="340" y="348" type="line"/>
      <point x="340" y="400"/>
      <point x="294" y="446"/>
      <point x="242" y="446" type="qcurve"/>
      <point x="185" y="446"/>
      <point x="146" y="420" type="qcurve"/>
      <point x="146" y="350" type="line"/>
      <point x="73" y="350" type="line"/>
    </contour>
    <contour>
      <point x="310" y="229" type="line"/>
      <point x="226" y="229"/>
      <point x="131" y="185"/>
      <point x="131" y="130" type="qcurve"/>
      <point x="131" y="89"/>
      <point x="180" y="54"/>
      <point x="210" y="54" type="qcurve"/>
      <point x="285" y="54"/>
      <point x="340" y="124" type="qcurve"/>
      <point x="340" y="229" type="line"/>
    </contour>
  </outline>
</glyph>
<glyph name="b" format="1">
  <advance width="557"/>
  <unicode hex="0062"/>
  <outline>
    <contour>
      <point x="170" y="63" type="line"/>
      <point x="213" y="54"/>
      <point x="255" y="54" type="qcurve"/>
      <point x="340" y="54"/>
      <point x="421" y="154"/>
      <point x="421" y="251" type="qcurve"/>
      <point x="421" y="340"/>
      <point x="350" y="444"/>
      <point x="288" y="444" type="qcurve"/>
      <point x="225" y="444"/>
      <point x="170" y="396" type="qcurve"/>
    </contour>
    <contour>
      <point x="170" y="462" type="line"/>
      <point x="171" y="462" type="line"/>
      <point x="235" y="513"/>
      <point x="312" y="513" type="qcurve"/>
      <point x="404" y="513"/>
      <point x="512" y="370"/>
      <point x="512" y="263" type="qcurve"/>
      <point x="512" y="140"/>
      <point x="375" y="-13"/>
      <point x="254" y="-13" type="qcurve"/>
      <point x="179" y="-13"/>
      <point x="85" y="12" type="qcurve"/>
      <point x="85" y="671" type="line"/>
      <point x="10" y="671" type="line"/>
      <point x="10" y="740" type="line"/>
      <point x="170" y="740" type="line"/>
    </contour>
  </outline>
</glyph>
<glyph name="c" format="1">
  <advance width="476"/>
  <unicode hex="0063"/>
  <outline>
    <contour>
      <point x="440" y="25" type="line"/>
      <point x="369" y="-13"/>
      <point x="288" y="-13" type="qcurve"/>
      <point x="179" y="-13"/>
      <point x="45" y="123"/>
      <point x="45" y="244" type="qcurve"/>
      <point x="45" y="367"/>
      <point x="187" y="513"/>
      <point x="296" y="513" type="qcurve"/>
      <point x="373" y="513"/>
      <point x="440" y="481" type="qcurve"/>
      <point x="440" y="349" type="line"/>
      <point x="367" y="349" type="line"/>
      <point x="367" y="433" type="line"/>
      <point x="337" y="446"/>
      <point x="290" y="446" type="qcurve"/>
      <point x="211" y="446"/>
      <point x="135" y="352"/>
      <point x="135" y="260" type="qcurve"/>
      <point x="135" y="160"/>
      <point x="219" y="58"/>
      <point x="300" y="58" type="qcurve"/>
      <point x="371" y="58"/>
      <point x="440" y="96" type="qcurve"/>
    </contour>
  </outline>
</glyph>
<glyph name="d" format="1">
  <advance width="577"/>
  <unicode hex="0064"/>
  <outline>
    <contour>
      <point x="302" y="671" type="line"/>
      <point x="302" y="740" type="line"/>
      <point x="471" y="740" type="line"/>
      <point x="471" y="68" type="line"/>
      <point x="546" y="68" type="line"/>
      <point x="546" y="0" type="line"/>
      <point x="390" y="0" type="line"/>
      <point x="387" y="48" type="line"/>
      <point x="385" y="48" type="line"/>
      <point x="325" y="-13"/>
      <point x="240" y="-13" type="qcurve"/>
      <point x="154" y="-13"/>
      <point x="45" y="129"/>
      <point x="45" y="243" type="qcurve"/>
      <point x="45" y="367"/>
      <point x="179" y="513"/>
      <point x="279" y="513" type="qcurve"/>
      <point x="335" y="513"/>
      <point x="385" y="490" type="qcurve"/>
      <point x="387" y="490" type="line"/>
      <point x="387" y="671" type="line"/>
    </contour>
    <contour>
      <point x="387" y="424" type="line"/>
      <point x="340" y="446"/>
      <point x="282" y="446" type="qcurve"/>
      <point x="210" y="446"/>
      <point x="135" y="350"/>
      <point x="135" y="251" type="qcurve"/>
      <point x="135" y="157"/>
      <point x="204" y="54"/>
      <point x="265" y="54" type="qcurve"/>
      <point x="337" y="54"/>
      <point x="387" y="112" type="qcurve"/>
    </contour>
  </outline>
</glyph>
<glyph name="e" format="1">
  <advance width="515"/>
  <unicode hex="0065"/>
  <outline>
    <contour>
      <point x="458" y="35" type="line"/>
      <point x="376" y="-13"/>
      <point x="288" y="-13" type="qcurve"/>
      <point x="175" y="-13"/>
      <point x="45" y="126"/>
      <point x="45" y="245" type="qcurve"/>
      <point x="45" y="365"/>
      <point x="181" y="513"/>
      <point x="285" y="513" type="qcurve"/>
      <point x="368" y="513"/>
      <point x="470" y="392"/>
      <point x="470" y="285" type="qcurve"/>
      <point x="470" y="246" type="line"/>
      <point x="135" y="246" type="line"/>
      <point x="137" y="157"/>
      <point x="218" y="58"/>
      <point x="299" y="58" type="qcurve"/>
      <point x="380" y="58"/>
      <point x="458" y="107" type="qcurve"/>
    </contour>
    <contour>
      <point x="383" y="310" type="line"/>
      <point x="383" y="376"/>
      <point x="325" y="446"/>
      <point x="271" y="446" type="qcurve"/>
      <point x="214" y="446"/>
      <point x="143" y="374"/>
      <point x="137" y="310" type="qcurve"/>
    </contour>
  </outline>
</glyph>
<glyph name="f" format="1">
  <advance width="325"/>
  <unicode hex="0066"/>
  <outline>
    <contour>
      <point x="410" y="604" type="line"/>
      <point x="337" y="604" type="line"/>
      <point x="337" y="674" type="line"/>
      <point x="318" y="679"/>
      <point x="294" y="679" type="qcurve"/>
      <point x="242" y="679"/>
      <point x="195" y="617"/>
      <point x="195" y="558" type="qcurve"/>
      <point x="195" y="499" type="line"/>
      <point x="320" y="499" type="line"/>
      <point x="320" y="431" type="line"/>
      <point x="195" y="431" type="line"/>
      <point x="195" y="68" type="line"/>
      <point x="270" y="68" type="line"/>
      <point x="270" y="0" type="line"/>
      <point x="35" y="0" type="line"/>
      <point x="35" y="68" type="line"/>
      <point x="110" y="68" type="line"/>
      <point x="110" y="431" type="line"/>
      <point x="35" y="431" type="line"/>
      <point x="35" y="499" type="line"/>
      <point x="110" y="499" type="line"/>
      <point x="110" y="542" type="line"/>
      <point x="110" y="645"/>
      <point x="207" y="745"/>
      <point x="292" y="745" type="qcurve"/>
      <point x="352" y="745"/>
      <point x="410" y="724" type="qcurve"/>
    </contour>
  </outline>
</glyph>
<glyph name="g" format="1">
  <advance width="552"/>
  <unicode hex="0067"/>
  <outline>
    <contour>
      <point x="382" y="436" type="line"/>
      <point x="329" y="446"/>
      <point x="288" y="446" type="qcurve"/>
      <point x="211" y="446"/>
      <point x="135" y="350"/>
      <point x="135" y="254" type="qcurve"/>
      <point x="135" y="164"/>
      <point x="201" y="62"/>
      <point x="263" y="62" type="qcurve"/>
      <point x="332" y="62"/>
      <point x="382" y="118" type="qcurve"/>
    </contour>
    <contour>
      <point x="467" y="19" type="line"/>
      <point x="467" y="-107"/>
      <point x="356" y="-230"/>
      <point x="233" y="-230" type="qcurve"/>
      <point x="149" y="-230"/>
      <point x="70" y="-206" type="qcurve"/>
      <point x="70" y="-131" type="line"/>
      <point x="155" y="-160"/>
      <point x="235" y="-160" type="qcurve"/>
      <point x="329" y="-160"/>
      <point x="382" y="-71"/>
      <point x="382" y="18" type="qcurve"/>
      <point x="382" y="55" type="line"/>
      <point x="379" y="55" type="line"/>
      <point x="319" y="-5"/>
      <point x="239" y="-5" type="qcurve"/>
      <point x="151" y="-5"/>
      <point x="45" y="135"/>
      <point x="45" y="243" type="qcurve"/>
      <point x="45" y="364"/>
      <point x="179" y="513"/>
      <point x="294" y="513" type="qcurve"/>
      <point x="369" y="513"/>
      <point x="467" y="485" type="qcurve"/>
    </contour>
  </outline>
</glyph>
<glyph name="h" format="1">
  <advance width="589"/>
  <unicode hex="0068"/>
  <outline>
    <contour>
      <point x="30" y="68" type="line"/>
      <point x="105" y="68" type="line"/>
      <point x="105" y="671" type="line"/>
      <point x="30" y="671" type="line"/>
      <point x="30" y="740" type="line"/>
      <point x="190" y="740" type="line"/>
      <point x="190" y="444" type="line"/>
      <point x="192" y="444" type="line"/>
      <point x="227" y="479"/>
      <point x="304" y="513"/>
      <point x="351" y="513" type="qcurve"/>
      <point x="431" y="513"/>
      <point x="499" y="427"/>
      <point x="499" y="354" type="qcurve"/>
      <point x="499" y="68" type="line"/>
      <point x="574" y="68" type="line"/>
      <point x="574" y="0" type="line"/>
      <point x="344" y="0" type="line"/>
      <point x="344" y="68" type="line"/>
      <point x="414" y="68" type="line"/>
      <point x="414" y="343" type="line"/>
      <point x="414" y="398"/>
      <point x="371" y="444"/>
      <point x="327" y="444" type="qcurve"/>
      <point x="250" y="444"/>
      <point x="190" y="374" type="qcurve"/>
      <point x="190" y="68" type="line"/>
      <point x="260" y="68" type="line"/>
      <point x="260" y="0" type="line"/>
      <point x="30" y="0" type="line"/>
    </contour>
  </outline>
</glyph>
<glyph name="i" format="1">
  <advance width="295"/>
  <unicode hex="0069"/>
  <outline>
    <contour>
      <point x="35" y="68" type="line"/>
      <point x="110" y="68" type="line"/>
      <point x="110" y="431" type="line"/>
      <point x="35" y="431" type="line"/>
      <point x="35" y="499" type="line"/>
      <point x="195" y="499" type="line"/>
      <point x="195" y="68" type="line"/>
      <point x="270" y="68" type="line"/>
      <point x="270" y="0" type="line"/>
      <point x="35" y="0" type="line"/>
    </contour>
    <contour>
      <point x="87" y="646" type="qcurve"/>
      <point x="87" y="675"/>
      <point x="119" y="708"/>
      <point x="146" y="708" type="qcurve"/>
      <point x="173" y="708"/>
      <point x="206" y="675"/>
      <point x="206" y="649" type="qcurve"/>
      <point x="206" y="621"/>
      <point x="173" y="589"/>
      <point x="145" y="589" type="qcurve"/>
      <point x="119" y="589"/>
      <point x="87" y="621"/>
    </contour>
  </outline>
</glyph>
<glyph name="j" format="1">
  <advance width="270"/>
  <unicode hex="006A"/>
  <outline>
    <contour>
      <point x="77" y="646" type="qcurve"/>
      <point x="77" y="675"/>
      <point x="110" y="708"/>
      <point x="136" y="708" type="qcurve"/>
      <point x="164" y="708"/>
      <point x="196" y="675"/>
      <point x="196" y="649" type="qcurve"/>
      <point x="196" y="621"/>
      <point x="162" y="589"/>
      <point x="136" y="589" type="qcurve"/>
      <point x="108" y="589"/>
      <point x="77" y="621"/>
    </contour>
    <contour>
      <point x="185" y="-36" type="line"/>
      <point x="185" y="-132"/>
      <point x="115" y="-225"/>
      <point x="39" y="-225" type="qcurve"/>
      <point x="25" y="-225"/>
      <point x="0" y="-221" type="qcurve"/>
      <point x="0" y="-155" type="line"/>
      <point x="8" y="-156"/>
      <point x="23" y="-156" type="qcurve"/>
      <point x="68" y="-156"/>
      <point x="100" y="-108"/>
      <point x="100" y="-49" type="qcurve"/>
      <point x="100" y="431" type="line"/>
      <point x="25" y="431" type="line"/>
      <point x="25" y="499" type="line"/>
      <point x="185" y="499" type="line"/>
    </contour>
  </outline>
</glyph>
<glyph name="k" format="1">
  <advance width="561"/>
  <unicode hex="006B"/>
  <outline>
    <contour>
      <point x="326" y="68" type="line"/>
      <point x="374" y="68" type="line"/>
      <point x="375" y="70" type="line"/>
      <point x="195" y="265" type="line"/>
      <point x="368" y="431" type="line"/>
      <point x="308" y="431" type="line"/>
      <point x="308" y="499" type="line"/>
      <point x="539" y="499" type="line"/>
      <point x="539" y="431" type="line"/>
      <point x="458" y="431" type="line"/>
      <point x="294" y="276" type="line"/>
      <point x="485" y="68" type="line"/>
      <point x="556" y="68" type="line"/>
      <point x="556" y="0" type="line"/>
      <point x="326" y="0" type="line"/>
    </contour>
    <contour>
      <point x="30" y="68" type="line"/>
      <point x="105" y="68" type="line"/>
      <point x="105" y="671" type="line"/>
      <point x="30" y="671" type="line"/>
      <point x="30" y="740" type="line"/>
      <point x="190" y="740" type="line"/>
      <point x="190" y="68" type="line"/>
      <point x="255" y="68" type="line"/>
      <point x="255" y="0" type="line"/>
      <point x="30" y="0" type="line"/>
    </contour>
  </outline>
</glyph>
<glyph name="l" format="1">
  <advance width="295"/>
  <unicode hex="006C"/>
  <outline>
    <contour>
      <point x="30" y="68" type="line"/>
      <point x="105" y="68" type="line"/>
      <point x="105" y="671" type="line"/>
      <point x="30" y="671" type="line"/>
      <point x="30" y="740" type="line"/>
      <point x="190" y="740" type="line"/>
      <point x="190" y="68" type="line"/>
      <point x="265" y="68" type="line"/>
      <point x="265" y="0" type="line"/>
      <point x="30" y="0" type="line"/>
    </contour>
  </outline>
</glyph>
<glyph name="m" format="1">
  <advance width="881"/>
  <unicode hex="006D"/>
  <outline>
    <contour>
      <point x="493" y="68" type="line"/>
      <point x="558" y="68" type="line"/>
      <point x="558" y="0" type="line"/>
      <point x="343" y="0" type="line"/>
      <point x="343" y="68" type="line"/>
      <point x="408" y="68" type="line"/>
      <point x="408" y="349" type="line"/>
      <point x="408" y="406"/>
      <point x="365" y="444"/>
      <point x="331" y="444" type="qcurve"/>
      <point x="289" y="444"/>
      <point x="219" y="400"/>
      <point x="195" y="368" type="qcurve"/>
      <point x="195" y="68" type="line"/>
      <point x="260" y="68" type="line"/>
      <point x="260" y="0" type="line"/>
      <point x="35" y="0" type="line"/>
      <point x="35" y="68" type="line"/>
      <point x="110" y="68" type="line"/>
      <point x="110" y="431" type="line"/>
      <point x="35" y="431" type="line"/>
      <point x="35" y="499" type="line"/>
      <point x="192" y="499" type="line"/>
      <point x="195" y="439" type="line"/>
      <point x="196" y="439" type="line"/>
      <point x="229" y="474"/>
      <point x="308" y="513"/>
      <point x="356" y="513" type="qcurve"/>
      <point x="406" y="513"/>
      <point x="470" y="470"/>
      <point x="483" y="429" type="qcurve"/>
      <point x="485" y="429" type="line"/>
      <point x="520" y="469"/>
      <point x="604" y="513"/>
      <point x="654" y="513" type="qcurve"/>
      <point x="723" y="513"/>
      <point x="790" y="435"/>
      <point x="790" y="360" type="qcurve"/>
      <point x="790" y="68" type="line"/>
      <point x="865" y="68" type="line"/>
      <point x="865" y="0" type="line"/>
      <point x="640" y="0" type="line"/>
      <point x="640" y="68" type="line"/>
      <point x="706" y="68" type="line"/>
      <point x="706" y="349" type="line"/>
      <point x="706" y="406"/>
      <point x="664" y="444"/>
      <point x="629" y="444" type="qcurve"/>
      <point x="587" y="444"/>
      <point x="517" y="400"/>
      <point x="493" y="368" type="qcurve"/>
    </contour>
  </outline>
</glyph>
<glyph name="n" format="1">
  <advance width="594"/>
  <unicode hex="006E"/>
  <outline>
    <contour>
      <point x="35" y="68" type="line"/>
      <point x="110" y="68" type="line"/>
      <point x="110" y="431" type="line"/>
      <point x="35" y="431" type="line"/>
      <point x="35" y="499" type="line"/>
      <point x="192" y="499" type="line"/>
      <point x="195" y="439" type="line"/>
      <point x="196" y="439" type="line"/>
      <point x="229" y="473"/>
      <point x="307" y="513"/>
      <point x="360" y="513" type="qcurve"/>
      <point x="435" y="513"/>
      <point x="504" y="429"/>
      <point x="504" y="354" type="qcurve"/>
      <point x="504" y="68" type="line"/>
      <point x="579" y="68" type="line"/>
      <point x="579" y="0" type="line"/>
      <point x="349" y="0" type="line"/>
      <point x="349" y="68" type="line"/>
      <point x="419" y="68" type="line"/>
      <point x="419" y="343" type="line"/>
      <point x="419" y="400"/>
      <point x="373" y="444"/>
      <point x="335" y="444" type="qcurve"/>
      <point x="290" y="444"/>
      <point x="220" y="400"/>
      <point x="195" y="368" type="qcurve"/>
      <point x="195" y="68" type="line"/>
      <point x="265" y="68" type="line"/>
      <point x="265" y="0" type="line"/>
      <point x="35" y="0" type="line"/>
    </contour>
  </outline>
</glyph>
<glyph name="o" format="1">
  <advance width="550"/>
  <unicode hex="006F"/>
  <outline>
    <contour>
      <point x="45" y="248" type="qcurve"/>
      <point x="45" y="367"/>
      <point x="177" y="513"/>
      <point x="281" y="513" type="qcurve"/>
      <point x="383" y="513"/>
      <point x="505" y="376"/>
      <point x="505" y="260" type="qcurve"/>
      <point x="505" y="138"/>
      <point x="376" y="-13"/>
      <point x="271" y="-13" type="qcurve"/>
      <point x="169" y="-13"/>
      <point x="45" y="131"/>
    </contour>
    <contour>
      <point x="135" y="260" type="qcurve"/>
      <point x="135" y="163"/>
      <point x="208" y="54"/>
      <point x="279" y="54" type="qcurve"/>
      <point x="346" y="54"/>
      <point x="415" y="155"/>
      <point x="415" y="250" type="qcurve"/>
      <point x="415" y="344"/>
      <point x="345" y="446"/>
      <point x="273" y="446" type="qcurve"/>
      <point x="207" y="446"/>
      <point x="135" y="355"/>
    </contour>
  </outline>
</glyph>
<glyph name="p" format="1">
  <advance width="571"/>
  <unicode hex="0070"/>
  <outline>
    <contour>
      <point x="182" y="499" type="line"/>
      <point x="185" y="455" type="line"/>
      <point x="188" y="455" type="line"/>
      <point x="252" y="513"/>
      <point x="329" y="513" type="qcurve"/>
      <point x="417" y="513"/>
      <point x="527" y="373"/>
      <point x="527" y="261" type="qcurve"/>
      <point x="527" y="139"/>
      <point x="399" y="-13"/>
      <point x="296" y="-13" type="qcurve"/>
      <point x="239" y="-13"/>
      <point x="187" y="11" type="qcurve"/>
      <point x="185" y="10" type="line"/>
      <point x="185" y="-152" type="line"/>
      <point x="275" y="-152" type="line"/>
      <point x="275" y="-220" type="line"/>
      <point x="25" y="-220" type="line"/>
      <point x="25" y="-152" type="line"/>
      <point x="100" y="-152" type="line"/>
      <point x="100" y="431" type="line"/>
      <point x="25" y="431" type="line"/>
      <point x="25" y="499" type="line"/>
    </contour>
    <contour>
      <point x="185" y="75" type="line"/>
      <point x="229" y="54"/>
      <point x="285" y="54" type="qcurve"/>
      <point x="357" y="54"/>
      <point x="437" y="148"/>
      <point x="437" y="248" type="qcurve"/>
      <point x="437" y="342"/>
      <point x="364" y="444"/>
      <point x="304" y="444" type="qcurve"/>
      <point x="238" y="444"/>
      <point x="185" y="385" type="qcurve"/>
    </contour>
  </outline>
</glyph>
<glyph name="q" format="1">
  <advance width="560"/>
  <unicode hex="0071"/>
  <outline>
    <contour>
      <point x="545" y="-152" type="line"/>
      <point x="545" y="-220" type="line"/>
      <point x="305" y="-220" type="line"/>
      <point x="305" y="-152" type="line"/>
      <point x="385" y="-152" type="line"/>
      <point x="385" y="45" type="line"/>
      <point x="382" y="45" type="line"/>
      <point x="325" y="-13"/>
      <point x="242" y="-13" type="qcurve"/>
      <point x="154" y="-13"/>
      <point x="45" y="126"/>
      <point x="45" y="239" type="qcurve"/>
      <point x="45" y="361"/>
      <point x="179" y="513"/>
      <point x="296" y="513" type="qcurve"/>
      <point x="373" y="513"/>
      <point x="470" y="485" type="qcurve"/>
      <point x="470" y="-152" type="line"/>
    </contour>
    <contour>
      <point x="385" y="436" type="line"/>
      <point x="329" y="446"/>
      <point x="290" y="446" type="qcurve"/>
      <point x="212" y="446"/>
      <point x="135" y="348"/>
      <point x="135" y="250" type="qcurve"/>
      <point x="135" y="154"/>
      <point x="207" y="54"/>
      <point x="265" y="54" type="qcurve"/>
      <point x="335" y="54"/>
      <point x="385" y="108" type="qcurve"/>
    </contour>
  </outline>
</glyph>
<glyph name="r" format="1">
  <advance width="377"/>
  <unicode hex="0072"/>
  <outline>
    <contour>
      <point x="35" y="68" type="line"/>
      <point x="110" y="68" type="line"/>
      <point x="110" y="431" type="line"/>
      <point x="35" y="431" type="line"/>
      <point x="35" y="499" type="line"/>
      <point x="192" y="499" type="line"/>
      <point x="195" y="417" type="line"/>
      <point x="196" y="417" type="line"/>
      <point x="221" y="458"/>
      <point x="286" y="508"/>
      <point x="335" y="508" type="qcurve"/>
      <point x="356" y="508"/>
      <point x="371" y="504" type="qcurve"/>
      <point x="371" y="420" type="line"/>
      <point x="348" y="426"/>
      <point x="321" y="426" type="qcurve"/>
      <point x="280" y="426"/>
      <point x="219" y="382"/>
      <point x="195" y="340" type="qcurve"/>
      <point x="195" y="68" type="line"/>
      <point x="285" y="68" type="line"/>
      <point x="285" y="0" type="line"/>
      <point x="35" y="0" type="line"/>
    </contour>
  </outline>
</glyph>
<glyph name="s" format="1">
  <advance width="445"/>
  <unicode hex="0073"/>
  <outline>
    <contour>
      <point x="208" y="-13" type="qcurve"/>
      <point x="129" y="-13"/>
      <point x="54" y="17" type="qcurve"/>
      <point x="54" y="150" type="line"/>
      <point x="127" y="150" type="line"/>
      <point x="127" y="65" type="line"/>
      <point x="165" y="52"/>
      <point x="212" y="52" type="qcurve"/>
      <point x="269" y="52"/>
      <point x="320" y="93"/>
      <point x="320" y="125" type="qcurve"/>
      <point x="320" y="146"/>
      <point x="299" y="174"/>
      <point x="283" y="185" type="qcurve"/>
      <point x="265" y="194"/>
      <point x="226" y="210"/>
      <point x="207" y="215" type="qcurve"/>
      <point x="180" y="225"/>
      <point x="125" y="248"/>
      <point x="104" y="264" type="qcurve"/>
      <point x="79" y="281"/>
      <point x="50" y="329"/>
      <point x="50" y="363" type="qcurve"/>
      <point x="50" y="429"/>
      <point x="156" y="513"/>
      <point x="240" y="513" type="qcurve"/>
      <point x="318" y="513"/>
      <point x="386" y="481" type="qcurve"/>
      <point x="386" y="354" type="line"/>
      <point x="312" y="354" type="line"/>
      <point x="312" y="435" type="line"/>
      <point x="282" y="448"/>
      <point x="236" y="448" type="qcurve"/>
      <point x="185" y="448"/>
      <point x="132" y="410"/>
      <point x="132" y="379" type="qcurve"/>
      <point x="132" y="361"/>
      <point x="149" y="336"/>
      <point x="164" y="326" type="qcurve"/>
      <point x="179" y="315"/>
      <point x="220" y="299"/>
      <point x="245" y="290" type="qcurve"/>
      <point x="273" y="280"/>
      <point x="330" y="256"/>
      <point x="354" y="239" type="qcurve"/>
      <point x="376" y="221"/>
      <point x="405" y="174"/>
      <point x="405" y="139" type="qcurve"/>
      <point x="405" y="71"/>
      <point x="299" y="-13"/>
    </contour>
  </outline>
</glyph>
<glyph name="t" format="1">
  <advance width="321"/>
  <unicode hex="0074"/>
  <outline>
    <contour>
      <point x="221" y="-13" type="qcurve"/>
      <point x="165" y="-13"/>
      <point x="90" y="50"/>
      <point x="90" y="112" type="qcurve"/>
      <point x="90" y="431" type="line"/>
      <point x="15" y="431" type="line"/>
      <point x="15" y="499" type="line"/>
      <point x="90" y="499" type="line"/>
      <point x="90" y="613" type="line"/>
      <point x="175" y="629" type="line"/>
      <point x="175" y="499" type="line"/>
      <point x="302" y="499" type="line"/>
      <point x="302" y="431" type="line"/>
      <point x="175" y="431" type="line"/>
      <point x="175" y="126" type="line"/>
      <point x="175" y="85"/>
      <point x="210" y="57"/>
      <point x="235" y="57" type="qcurve"/>
      <point x="268" y="57"/>
      <point x="302" y="74" type="qcurve"/>
      <point x="302" y="5" type="line"/>
      <point x="264" y="-13"/>
    </contour>
  </outline>
</glyph>
<glyph name="u" format="1">
  <advance width="590"/>
  <unicode hex="0075"/>
  <outline>
    <contour>
      <point x="396" y="431" type="line"/>
      <point x="321" y="431" type="line"/>
      <point x="321" y="499" type="line"/>
      <point x="481" y="499" type="line"/>
      <point x="481" y="68" type="line"/>
      <point x="556" y="68" type="line"/>
      <point x="556" y="0" type="line"/>
      <point x="402" y="0" type="line"/>
      <point x="399" y="60" type="line"/>
      <point x="396" y="60" type="line"/>
      <point x="335" y="-13"/>
      <point x="243" y="-13" type="qcurve"/>
      <point x="168" y="-13"/>
      <point x="90" y="65"/>
      <point x="90" y="138" type="qcurve"/>
      <point x="90" y="431" type="line"/>
      <point x="15" y="431" type="line"/>
      <point x="15" y="499" type="line"/>
      <point x="175" y="499" type="line"/>
      <point x="175" y="152" type="line"/>
      <point x="175" y="96"/>
      <point x="226" y="54"/>
      <point x="267" y="54" type="qcurve"/>
      <point x="345" y="54"/>
      <point x="396" y="121" type="qcurve"/>
    </contour>
  </outline>
</glyph>
<glyph name="v" format="1">
  <advance width="526"/>
  <unicode hex="0076"/>
  <outline>
    <contour>
      <point x="52" y="440" type="line"/>
      <point x="75" y="431" type="line"/>
      <point x="-10" y="431" type="line"/>
      <point x="-10" y="499" type="line"/>
      <point x="210" y="499" type="line"/>
      <point x="210" y="431" type="line"/>
      <point x="129" y="431" type="line"/>
      <point x="140" y="440" type="line"/>
      <point x="267" y="101" type="line"/>
      <point x="270" y="101" type="line"/>
      <point x="302" y="-4" type="line"/>
      <point x="224" y="-4" type="line"/>
    </contour>
    <contour>
      <point x="302" y="-4" type="line"/>
      <point x="235" y="-4" type="line"/>
      <point x="267" y="101" type="line"/>
      <point x="270" y="101" type="line"/>
      <point x="396" y="439" type="line"/>
      <point x="410" y="431" type="line"/>
      <point x="329" y="431" type="line"/>
      <point x="329" y="499" type="line"/>
      <point x="536" y="499" type="line"/>
      <point x="536" y="431" type="line"/>
      <point x="460" y="431" type="line"/>
      <point x="474" y="439" type="line"/>
    </contour>
  </outline>
</glyph>
<glyph name="w" format="1">
  <advance width="783"/>
  <unicode hex="0077"/>
  <outline>
    <contour>
      <point x="56" y="440" type="line"/>
      <point x="67" y="431" type="line"/>
      <point x="-6" y="431" type="line"/>
      <point x="-6" y="499" type="line"/>
      <point x="207" y="499" type="line"/>
      <point x="207" y="431" type="line"/>
      <point x="135" y="431" type="line"/>
      <point x="144" y="440" type="line"/>
      <point x="260" y="101" type="line"/>
      <point x="263" y="101" type="line"/>
      <point x="294" y="-4" type="line"/>
      <point x="218" y="-4" type="line"/>
    </contour>
    <contour>
      <point x="419" y="351" type="line"/>
      <point x="294" y="-4" type="line"/>
      <point x="229" y="-4" type="line"/>
      <point x="260" y="101" type="line"/>
      <point x="263" y="101" type="line"/>
      <point x="364" y="390" type="line"/>
    </contour>
    <contour>
      <point x="329" y="440" type="line"/>
      <point x="344" y="431" type="line"/>
      <point x="271" y="431" type="line"/>
      <point x="271" y="499" type="line"/>
      <point x="487" y="499" type="line"/>
      <point x="487" y="431" type="line"/>
      <point x="404" y="431" type="line"/>
      <point x="414" y="440" type="line"/>
      <point x="531" y="101" type="line"/>
      <point x="535" y="101" type="line"/>
      <point x="565" y="-4" type="line"/>
      <point x="489" y="-4" type="line"/>
    </contour>
    <contour>
      <point x="565" y="-4" type="line"/>
      <point x="499" y="-4" type="line"/>
      <point x="531" y="101" type="line"/>
      <point x="535" y="101" type="line"/>
      <point x="651" y="440" type="line"/>
      <point x="661" y="431" type="line"/>
      <point x="588" y="431" type="line"/>
      <point x="588" y="499" type="line"/>
      <point x="789" y="499" type="line"/>
      <point x="789" y="431" type="line"/>
      <point x="714" y="431" type="line"/>
      <point x="727" y="440" type="line"/>
    </contour>
  </outline>
</glyph>
<glyph name="x" format="1">
  <advance width="521"/>
  <unicode hex="0078"/>
  <outline>
    <contour>
      <point x="289" y="279" type="line"/>
      <point x="451" y="68" type="line"/>
      <point x="515" y="68" type="line"/>
      <point x="515" y="0" type="line"/>
      <point x="300" y="0" type="line"/>
      <point x="300" y="68" type="line"/>
      <point x="350" y="68" type="line"/>
      <point x="235" y="225" type="line"/>
      <point x="76" y="431" type="line"/>
      <point x="10" y="431" type="line"/>
      <point x="10" y="499" type="line"/>
      <point x="227" y="499" type="line"/>
      <point x="227" y="431" type="line"/>
      <point x="177" y="431" type="line"/>
    </contour>
    <contour>
      <point x="250" y="282" type="line"/>
      <point x="365" y="431" type="line"/>
      <point x="315" y="431" type="line"/>
      <point x="315" y="499" type="line"/>
      <point x="511" y="499" type="line"/>
      <point x="511" y="431" type="line"/>
      <point x="446" y="431" type="line"/>
      <point x="288" y="236" type="line"/>
    </contour>
    <contour>
      <point x="279" y="236" type="line"/>
      <point x="150" y="68" type="line"/>
      <point x="201" y="68" type="line"/>
      <point x="201" y="0" type="line"/>
      <point x="5" y="0" type="line"/>
      <point x="5" y="68" type="line"/>
      <point x="70" y="68" type="line"/>
      <point x="240" y="282" type="line"/>
    </contour>
  </outline>
</glyph>
<glyph name="y" format="1">
  <advance width="526"/>
  <unicode hex="0079"/>
  <outline>
    <contour>
      <point x="535" y="499" type="line"/>
      <point x="535" y="431" type="line"/>
      <point x="469" y="431" type="line"/>
      <point x="300" y="-17" type="line"/>
      <point x="282" y="-65"/>
      <point x="242" y="-144"/>
      <point x="192" y="-200"/>
      <point x="129" y="-230"/>
      <point x="87" y="-230" type="qcurve"/>
      <point x="56" y="-230"/>
      <point x="26" y="-222" type="qcurve"/>
      <point x="26" y="-147" type="line"/>
      <point x="51" y="-153"/>
      <point x="86" y="-153" type="qcurve"/>
      <point x="108" y="-153"/>
      <point x="138" y="-145"/>
      <point x="173" y="-117"/>
      <point x="211" y="-55"/>
      <point x="232" y="0" type="qcurve"/>
      <point x="224" y="0" type="line"/>
      <point x="55" y="431" type="line"/>
      <point x="-10" y="431" type="line"/>
      <point x="-10" y="499" type="line"/>
      <point x="210" y="499" type="line"/>
      <point x="210" y="431" type="line"/>
      <point x="144" y="431" type="line"/>
      <point x="268" y="99" type="line"/>
      <point x="271" y="99" type="line"/>
      <point x="394" y="431" type="line"/>
      <point x="329" y="431" type="line"/>
      <point x="329" y="499" type="line"/>
    </contour>
  </outline>
</glyph>
<glyph name="z" format="1">
  <advance width="482"/>
  <unicode hex="007A"/>
  <outline>
    <contour>
      <point x="40" y="58" type="line"/>
      <point x="329" y="433" type="line"/>
      <point x="123" y="433" type="line"/>
      <point x="123" y="348" type="line"/>
      <point x="49" y="348" type="line"/>
      <point x="49" y="499" type="line"/>
      <point x="432" y="499" type="line"/>
      <point x="432" y="440" type="line"/>
      <point x="144" y="65" type="line"/>
      <point x="363" y="65" type="line"/>
      <point x="363" y="156" type="line"/>
      <point x="437" y="156" type="line"/>
      <point x="437" y="0" type="line"/>
      <point x="40" y="0" type="line"/>
    </contour>
  </outline>
</glyph>
<glyph name="braceleft" format="1">
  <advance width="368"/>
  <unicode hex="007B"/>
  <outline>
    <contour>
      <point x="104" y="285" type="line"/>
      <point x="154" y="270"/>
      <point x="202" y="199"/>
      <point x="202" y="137" type="qcurve"/>
      <point x="202" y="-40" type="line"/>
      <point x="202" y="-79"/>
      <point x="240" y="-108"/>
      <point x="267" y="-108" type="qcurve"/>
      <point x="313" y="-108" type="line"/>
      <point x="313" y="-176" type="line"/>
      <point x="267" y="-176" type="line"/>
      <point x="196" y="-176"/>
      <point x="123" y="-107"/>
      <point x="123" y="-33" type="qcurve"/>
      <point x="123" y="140" type="line"/>
      <point x="123" y="198"/>
      <point x="70" y="254"/>
      <point x="20" y="254" type="qcurve"/>
      <point x="20" y="315" type="line"/>
      <point x="70" y="315"/>
      <point x="123" y="371"/>
      <point x="123" y="429" type="qcurve"/>
      <point x="123" y="596" type="line"/>
      <point x="123" y="671"/>
      <point x="200" y="740"/>
      <point x="269" y="740" type="qcurve"/>
      <point x="313" y="740" type="line"/>
      <point x="313" y="671" type="line"/>
      <point x="264" y="671" type="line"/>
      <point x="238" y="671"/>
      <point x="202" y="644"/>
      <point x="202" y="604" type="qcurve"/>
      <point x="202" y="433" type="line"/>
      <point x="202" y="370"/>
      <point x="154" y="300"/>
      <point x="104" y="286" type="qcurve"/>
    </contour>
  </outline>
</glyph>
<glyph name="bar" format="1">
  <advance width="310"/>
  <unicode hex="007C"/>
  <outline>
    <contour>
      <point x="120" y="760" type="line"/>
      <point x="190" y="760" type="line"/>
      <point x="190" y="-240" type="line"/>
      <point x="120" y="-240" type="line"/>
    </contour>
  </outline>
</glyph>
<glyph name="braceright" format="1">
  <advance width="368"/>
  <unicode hex="007D"/>
  <outline>
    <contour>
      <point x="165" y="604" type="line"/>
      <point x="165" y="642"/>
      <point x="127" y="671"/>
      <point x="101" y="671" type="qcurve"/>
      <point x="55" y="671" type="line"/>
      <point x="55" y="740" type="line"/>
      <point x="101" y="740" type="line"/>
      <point x="171" y="740"/>
      <point x="245" y="671"/>
      <point x="245" y="596" type="qcurve"/>
      <point x="245" y="429" type="line"/>
      <point x="245" y="371"/>
      <point x="298" y="315"/>
      <point x="348" y="315" type="qcurve"/>
      <point x="348" y="254" type="line"/>
      <point x="298" y="254"/>
      <point x="245" y="198"/>
      <point x="245" y="140" type="qcurve"/>
      <point x="245" y="-33" type="line"/>
      <point x="245" y="-107"/>
      <point x="168" y="-176"/>
      <point x="99" y="-176" type="qcurve"/>
      <point x="55" y="-176" type="line"/>
      <point x="55" y="-108" type="line"/>
      <point x="104" y="-108" type="line"/>
      <point x="130" y="-108"/>
      <point x="165" y="-80"/>
      <point x="165" y="-40" type="qcurve"/>
      <point x="165" y="137" type="line"/>
      <point x="165" y="199"/>
      <point x="215" y="270"/>
      <point x="264" y="285" type="qcurve"/>
      <point x="264" y="286" type="line"/>
      <point x="215" y="300"/>
      <point x="165" y="370"/>
      <point x="165" y="433" type="qcurve"/>
    </contour>
  </outline>
</glyph>
<glyph name="asciitilde" format="1">
  <advance width="500"/>
  <unicode hex="007E"/>
  <outline>
    <contour>
      <point x="40" y="271" type="line"/>
      <point x="100" y="320"/>
      <point x="162" y="320" type="qcurve"/>
      <point x="192" y="320"/>
      <point x="239" y="301"/>
      <point x="259" y="290" type="qcurve"/>
      <point x="279" y="279"/>
      <point x="317" y="263"/>
      <point x="340" y="263" type="qcurve"/>
      <point x="397" y="263"/>
      <point x="460" y="317" type="qcurve"/>
      <point x="460" y="244" type="line"/>
      <point x="400" y="196"/>
      <point x="338" y="196" type="qcurve"/>
      <point x="307" y="196"/>
      <point x="262" y="215"/>
      <point x="241" y="226" type="qcurve"/>
      <point x="221" y="237"/>
      <point x="183" y="254"/>
      <point x="160" y="254" type="qcurve"/>
      <point x="103" y="254"/>
      <point x="40" y="199" type="qcurve"/>
    </contour>
  </outline>
</glyph>
<glyph name="exclamdown" format="1">
  <advance width="298"/>
  <unicode hex="00A1"/>
  <outline>
    <contour>
      <point x="194" y="-214" type="line"/>
      <point x="94" y="-214" type="line"/>
      <point x="113" y="290" type="line"/>
      <point x="174" y="290" type="line"/>
    </contour>
    <contour>
      <point x="208" y="437" type="qcurve"/>
      <point x="208" y="407"/>
      <point x="173" y="371"/>
      <point x="143" y="371" type="qcurve"/>
      <point x="115" y="371"/>
      <point x="80" y="406"/>
      <point x="80" y="435" type="qcurve"/>
      <point x="80" y="464"/>
      <point x="115" y="499"/>
      <point x="146" y="499" type="qcurve"/>
      <point x="174" y="499"/>
      <point x="208" y="464"/>
    </contour>
  </outline>
</glyph>
<glyph name="cent" format="1">
  <advance width="496"/>
  <unicode hex="00A2"/>
  <outline>
    <contour>
      <point x="304" y="437" type="line"/>
      <point x="290" y="437" type="line"/>
      <point x="210" y="437"/>
      <point x="137" y="342"/>
      <point x="137" y="256" type="qcurve"/>
      <point x="137" y="161"/>
      <point x="218" y="67"/>
      <point x="298" y="67" type="qcurve"/>
      <point x="380" y="67"/>
      <point x="450" y="114" type="qcurve"/>
      <point x="450" y="40" type="line"/>
      <point x="377" y="-2"/>
      <point x="290" y="-2" type="qcurve"/>
      <point x="179" y="-2"/>
      <point x="50" y="130"/>
      <point x="50" y="246" type="qcurve"/>
      <point x="50" y="367"/>
      <point x="185" y="502"/>
      <point x="295" y="502" type="qcurve"/>
      <point x="304" y="502" type="line"/>
    </contour>
    <contour>
      <point x="250" y="-90" type="line"/>
      <point x="250" y="590" type="line"/>
      <point x="315" y="590" type="line"/>
      <point x="315" y="-90" type="line"/>
    </contour>
    <contour>
      <point x="306" y="501" type="line"/>
      <point x="390" y="498"/>
      <point x="451" y="465" type="qcurve"/>
      <point x="451" y="339" type="line"/>
      <point x="383" y="339" type="line"/>
      <point x="383" y="421" type="line"/>
      <point x="345" y="436"/>
      <point x="305" y="436" type="qcurve"/>
    </contour>
  </outline>
</glyph>
<glyph name="sterling" format="1">
  <advance width="555"/>
  <unicode hex="00A3"/>
  <outline>
    <contour>
      <point x="104" y="514" type="qcurve"/>
      <point x="104" y="604"/>
      <point x="225" y="707"/>
      <point x="323" y="707" type="qcurve"/>
      <point x="413" y="707"/>
      <point x="490" y="668" type="qcurve"/>
      <point x="490" y="526" type="line"/>
      <point x="418" y="526" type="line"/>
      <point x="418" y="618" type="line"/>
      <point x="370" y="637"/>
      <point x="315" y="637" type="qcurve"/>
      <point x="255" y="637"/>
      <point x="190" y="576"/>
      <point x="190" y="521" type="qcurve"/>
      <point x="190" y="496"/>
      <point x="203" y="406"/>
      <point x="210" y="362" type="qcurve"/>
      <point x="221" y="303"/>
      <point x="221" y="261" type="qcurve"/>
      <point x="221" y="143"/>
      <point x="139" y="70" type="qcurve"/>
      <point x="139" y="68" type="line"/>
      <point x="429" y="68" type="line"/>
      <point x="429" y="174" type="line"/>
      <point x="500" y="174" type="line"/>
      <point x="500" y="0" type="line"/>
      <point x="45" y="0" type="line"/>
      <point x="45" y="58" type="line"/>
      <point x="135" y="129"/>
      <point x="135" y="255" type="qcurve"/>
      <point x="135" y="305"/>
      <point x="124" y="358" type="qcurve"/>
      <point x="117" y="392"/>
      <point x="104" y="484"/>
    </contour>
    <contour>
      <point x="45" y="392" type="line"/>
      <point x="385" y="392" type="line"/>
      <point x="385" y="329" type="line"/>
      <point x="45" y="329" type="line"/>
    </contour>
  </outline>
</glyph>
<glyph name="currency" format="1">
  <advance width="594"/>
  <unicode hex="00A4"/>
  <outline>
    <contour>
      <point x="92" y="26" type="line"/>
      <point x="40" y="77" type="line"/>
      <point x="132" y="165" type="line"/>
      <point x="96" y="219"/>
      <point x="96" y="282" type="qcurve"/>
      <point x="96" y="348"/>
      <point x="132" y="398" type="qcurve"/>
      <point x="40" y="487" type="line"/>
      <point x="90" y="537" type="line"/>
      <point x="179" y="444" type="line"/>
      <point x="231" y="480"/>
      <point x="296" y="480" type="qcurve"/>
      <point x="362" y="480"/>
      <point x="413" y="446" type="qcurve"/>
      <point x="504" y="539" type="line"/>
      <point x="554" y="488" type="line"/>
      <point x="461" y="399" type="line"/>
      <point x="498" y="348"/>
      <point x="498" y="282" type="qcurve"/>
      <point x="498" y="219"/>
      <point x="460" y="164" type="qcurve"/>
      <point x="552" y="75" type="line"/>
      <point x="502" y="25" type="line"/>
      <point x="412" y="118" type="line"/>
      <point x="362" y="85"/>
      <point x="296" y="85" type="qcurve"/>
      <point x="231" y="85"/>
      <point x="181" y="118" type="qcurve"/>
    </contour>
    <contour>
      <point x="171" y="282" type="qcurve"/>
      <point x="171" y="221"/>
      <point x="240" y="154"/>
      <point x="296" y="154" type="qcurve"/>
      <point x="354" y="154"/>
      <point x="423" y="221"/>
      <point x="423" y="282" type="qcurve"/>
      <point x="423" y="342"/>
      <point x="354" y="412"/>
      <point x="296" y="412" type="qcurve"/>
      <point x="240" y="412"/>
      <point x="171" y="342"/>
    </contour>
  </outline>
</glyph>
<glyph name="yen" format="1">
  <advance width="632"/>
  <unicode hex="00A5"/>
  <outline>
    <contour>
      <point x="277" y="306" type="line"/>
      <point x="258" y="324" type="line"/>
      <point x="85" y="632" type="line"/>
      <point x="20" y="632" type="line"/>
      <point x="20" y="700" type="line"/>
      <point x="250" y="700" type="line"/>
      <point x="250" y="632" type="line"/>
      <point x="180" y="632" type="line"/>
      <point x="325" y="368" type="line"/>
      <point x="464" y="632" type="line"/>
      <point x="394" y="632" type="line"/>
      <point x="394" y="700" type="line"/>
      <point x="612" y="700" type="line"/>
      <point x="612" y="632" type="line"/>
      <point x="546" y="632" type="line"/>
      <point x="380" y="324" type="line"/>
      <point x="362" y="306" type="line"/>
      <point x="362" y="68" type="line"/>
      <point x="442" y="68" type="line"/>
      <point x="442" y="0" type="line"/>
      <point x="196" y="0" type="line"/>
      <point x="196" y="68" type="line"/>
      <point x="277" y="68" type="line"/>
    </contour>
    <contour>
      <point x="107" y="226" type="line"/>
      <point x="532" y="226" type="line"/>
      <point x="532" y="163" type="line"/>
      <point x="107" y="163" type="line"/>
    </contour>
    <contour>
      <point x="107" y="360" type="line"/>
      <point x="532" y="360" type="line"/>
      <point x="532" y="296" type="line"/>
      <point x="107" y="296" type="line"/>
    </contour>
  </outline>
</glyph>
<glyph name="brokenbar" format="1">
  <advance width="310"/>
  <unicode hex="00A6"/>
  <outline>
    <contour>
      <point x="120" y="283" type="line"/>
      <point x="190" y="283" type="line"/>
      <point x="190" y="-13" type="line"/>
      <point x="120" y="-13" type="line"/>
    </contour>
    <contour>
      <point x="120" y="713" type="line"/>
      <point x="190" y="713" type="line"/>
      <point x="190" y="417" type="line"/>
      <point x="120" y="417" type="line"/>
    </contour>
  </outline>
</glyph>
<glyph name="section" format="1">
  <advance width="567"/>
  <unicode hex="00A7"/>
  <outline>
    <contour>
      <point x="300" y="140" type="line"/>
      <point x="352" y="149"/>
      <point x="406" y="212"/>
      <point x="406" y="251" type="qcurve"/>
      <point x="406" y="279"/>
      <point x="394" y="296" type="qcurve"/>
      <point x="382" y="314"/>
      <point x="362" y="329" type="qcurve"/>
      <point x="340" y="344"/>
      <point x="286" y="365"/>
      <point x="256" y="377" type="qcurve"/>
      <point x="225" y="389"/>
      <point x="164" y="417"/>
      <point x="140" y="436" type="qcurve"/>
      <point x="115" y="456"/>
      <point x="86" y="510"/>
      <point x="86" y="546" type="qcurve"/>
      <point x="86" y="621"/>
      <point x="205" y="713"/>
      <point x="301" y="713" type="qcurve"/>
      <point x="392" y="713"/>
      <point x="471" y="677" type="qcurve"/>
      <point x="471" y="549" type="line"/>
      <point x="399" y="549" type="line"/>
      <point x="399" y="629" type="line"/>
      <point x="351" y="643"/>
      <point x="296" y="643" type="qcurve"/>
      <point x="243" y="643"/>
      <point x="171" y="604"/>
      <point x="171" y="560" type="qcurve"/>
      <point x="171" y="537"/>
      <point x="193" y="504"/>
      <point x="212" y="490" type="qcurve"/>
      <point x="231" y="477"/>
      <point x="281" y="455"/>
      <point x="308" y="444" type="qcurve"/>
      <point x="340" y="431"/>
      <point x="407" y="401"/>
      <point x="435" y="380" type="qcurve"/>
      <point x="460" y="360"/>
      <point x="492" y="304"/>
      <point x="492" y="265" type="qcurve"/>
      <point x="492" y="205"/>
      <point x="411" y="115"/>
      <point x="331" y="99" type="qcurve"/>
    </contour>
    <contour>
      <point x="267" y="392" type="line"/>
      <point x="215" y="385"/>
      <point x="161" y="321"/>
      <point x="161" y="282" type="qcurve"/>
      <point x="161" y="255"/>
      <point x="173" y="237" type="qcurve"/>
      <point x="185" y="219"/>
      <point x="205" y="204" type="qcurve"/>
      <point x="227" y="189"/>
      <point x="281" y="167"/>
      <point x="311" y="156" type="qcurve"/>
      <point x="342" y="144"/>
      <point x="404" y="115"/>
      <point x="426" y="96" type="qcurve"/>
      <point x="451" y="77"/>
      <point x="481" y="24"/>
      <point x="481" y="-14" type="qcurve"/>
      <point x="481" y="-89"/>
      <point x="362" y="-180"/>
      <point x="265" y="-180" type="qcurve"/>
      <point x="175" y="-180"/>
      <point x="95" y="-144" type="qcurve"/>
      <point x="95" y="-13" type="line"/>
      <point x="168" y="-13" type="line"/>
      <point x="168" y="-95" type="line"/>
      <point x="215" y="-110"/>
      <point x="270" y="-110" type="qcurve"/>
      <point x="324" y="-110"/>
      <point x="396" y="-70"/>
      <point x="396" y="-27" type="qcurve"/>
      <point x="396" y="-4"/>
      <point x="374" y="30"/>
      <point x="355" y="43" type="qcurve"/>
      <point x="336" y="56"/>
      <point x="286" y="79"/>
      <point x="260" y="89" type="qcurve"/>
      <point x="226" y="102"/>
      <point x="160" y="132"/>
      <point x="133" y="154" type="qcurve"/>
      <point x="107" y="173"/>
      <point x="75" y="229"/>
      <point x="75" y="268" type="qcurve"/>
      <point x="75" y="329"/>
      <point x="156" y="417"/>
      <point x="236" y="435" type="qcurve"/>
    </contour>
  </outline>
</glyph>
<glyph name="copyright" format="1">
  <advance width="885"/>
  <unicode hex="00A9"/>
  <outline>
    <contour>
      <point x="590" y="165" type="line"/>
      <point x="524" y="125"/>
      <point x="444" y="125" type="qcurve"/>
      <point x="346" y="125"/>
      <point x="233" y="248"/>
      <point x="233" y="350" type="qcurve"/>
      <point x="233" y="450"/>
      <point x="346" y="575"/>
      <point x="445" y="575" type="qcurve"/>
      <point x="519" y="575"/>
      <point x="590" y="538" type="qcurve"/>
      <point x="590" y="415" type="line"/>
      <point x="529" y="415" type="line"/>
      <point x="529" y="492" type="line"/>
      <point x="492" y="512"/>
      <point x="443" y="512" type="qcurve"/>
      <point x="377" y="512"/>
      <point x="311" y="430"/>
      <point x="311" y="354" type="qcurve"/>
      <point x="311" y="276"/>
      <point x="381" y="188"/>
      <point x="450" y="188" type="qcurve"/>
      <point x="514" y="188"/>
      <point x="590" y="232" type="qcurve"/>
    </contour>
    <contour>
      <point x="80" y="351" type="qcurve"/>
      <point x="80" y="508"/>
      <point x="282" y="713"/>
      <point x="442" y="713" type="qcurve"/>
      <point x="602" y="713"/>
      <point x="805" y="508"/>
      <point x="805" y="351" type="qcurve"/>
      <point x="805" y="194"/>
      <point x="602" y="-13"/>
      <point x="442" y="-13" type="qcurve"/>
      <point x="282" y="-13"/>
      <point x="80" y="194"/>
    </contour>
    <contour>
      <point x="140" y="351" type="qcurve"/>
      <point x="140" y="215"/>
      <point x="304" y="42"/>
      <point x="442" y="42" type="qcurve"/>
      <point x="581" y="42"/>
      <point x="745" y="215"/>
      <point x="745" y="351" type="qcurve"/>
      <point x="745" y="487"/>
      <point x="581" y="658"/>
      <point x="442" y="658" type="qcurve"/>
      <point x="304" y="658"/>
      <point x="140" y="487"/>
    </contour>
  </outline>
</glyph>
<glyph name="ordfeminine" format="1">
  <advance width="418"/>
  <unicode hex="00AA"/>
  <note>
    84.71% weight; 81% width
  </note>
  <outline>
    <contour>
      <point x="62" y="612" type="line"/>
      <point x="126" y="645"/>
      <point x="204" y="645" type="qcurve"/>
      <point x="265" y="645"/>
      <point x="343" y="590"/>
      <point x="343" y="525" type="qcurve"/>
      <point x="343" y="340" type="line"/>
      <point x="404" y="340" type="line"/>
      <point x="404" y="281" type="line"/>
      <point x="279" y="281" type="line"/>
      <point x="276" y="326" type="line"/>
      <point x="271" y="326" type="line"/>
      <point x="221" y="268"/>
      <point x="152" y="268" type="qcurve"/>
      <point x="101" y="268"/>
      <point x="35" y="321"/>
      <point x="35" y="370" type="qcurve"/>
      <point x="35" y="490"/>
      <point x="252" y="490" type="qcurve"/>
      <point x="271" y="490" type="line"/>
      <point x="271" y="520" type="line"/>
      <point x="271" y="586"/>
      <point x="195" y="586" type="qcurve"/>
      <point x="129" y="586"/>
      <point x="62" y="552" type="qcurve"/>
    </contour>
    <contour>
      <point x="249" y="440" type="line"/>
      <point x="185" y="440"/>
      <point x="111" y="413"/>
      <point x="111" y="376" type="qcurve"/>
      <point x="111" y="349"/>
      <point x="144" y="327"/>
      <point x="170" y="327" type="qcurve"/>
      <point x="231" y="327"/>
      <point x="271" y="379" type="qcurve"/>
      <point x="271" y="440" type="line"/>
    </contour>
  </outline>
</glyph>
<glyph name="logicalnot" format="1">
  <advance width="561"/>
  <unicode hex="00AC"/>
  <outline>
    <contour>
      <point x="55" y="245" type="line"/>
      <point x="55" y="320" type="line"/>
      <point x="501" y="320" type="line"/>
      <point x="501" y="57" type="line"/>
      <point x="426" y="57" type="line"/>
      <point x="426" y="245" type="line"/>
    </contour>
  </outline>
</glyph>
<glyph name="registered" format="1">
  <advance width="860"/>
  <unicode hex="00AE"/>
  <outline>
    <contour>
      <point x="374" y="193" type="line"/>
      <point x="427" y="193" type="line"/>
      <point x="427" y="135" type="line"/>
      <point x="248" y="135" type="line"/>
      <point x="248" y="193" type="line"/>
      <point x="301" y="193" type="line"/>
      <point x="301" y="507" type="line"/>
      <point x="248" y="507" type="line"/>
      <point x="248" y="565" type="line"/>
      <point x="429" y="565" type="line"/>
      <point x="519" y="565"/>
      <point x="600" y="507"/>
      <point x="600" y="451" type="qcurve"/>
      <point x="600" y="410"/>
      <point x="550" y="343"/>
      <point x="489" y="332" type="qcurve"/>
      <point x="489" y="330" type="line"/>
      <point x="504" y="325"/>
      <point x="533" y="304"/>
      <point x="550" y="276" type="qcurve"/>
      <point x="601" y="193" type="line"/>
      <point x="654" y="193" type="line"/>
      <point x="654" y="135" type="line"/>
      <point x="548" y="135" type="line"/>
      <point x="542" y="146"/>
      <point x="529" y="170"/>
      <point x="512" y="198" type="qcurve"/>
      <point x="475" y="262" type="line"/>
      <point x="454" y="299"/>
      <point x="421" y="321"/>
      <point x="396" y="321" type="qcurve"/>
      <point x="374" y="321" type="line"/>
    </contour>
    <contour>
      <point x="413" y="379" type="line"/>
      <point x="471" y="379"/>
      <point x="524" y="411"/>
      <point x="524" y="444" type="qcurve"/>
      <point x="524" y="477"/>
      <point x="475" y="507"/>
      <point x="421" y="507" type="qcurve"/>
      <point x="374" y="507" type="line"/>
      <point x="374" y="379" type="line"/>
    </contour>
    <contour>
      <point x="80" y="351" type="qcurve"/>
      <point x="80" y="508"/>
      <point x="282" y="713"/>
      <point x="442" y="713" type="qcurve"/>
      <point x="602" y="713"/>
      <point x="805" y="508"/>
      <point x="805" y="351" type="qcurve"/>
      <point x="805" y="194"/>
      <point x="602" y="-13"/>
      <point x="442" y="-13" type="qcurve"/>
      <point x="282" y="-13"/>
      <point x="80" y="194"/>
    </contour>
    <contour>
      <point x="140" y="351" type="qcurve"/>
      <point x="140" y="215"/>
      <point x="304" y="42"/>
      <point x="442" y="42" type="qcurve"/>
      <point x="581" y="42"/>
      <point x="745" y="215"/>
      <point x="745" y="351" type="qcurve"/>
      <point x="745" y="487"/>
      <point x="581" y="658"/>
      <point x="442" y="658" type="qcurve"/>
      <point x="304" y="658"/>
      <point x="140" y="487"/>
    </contour>
  </outline>
</glyph>
<glyph name="degree" format="1">
  <advance width="402"/>
  <unicode hex="00B0"/>
  <outline>
    <contour>
      <point x="40" y="555" type="qcurve"/>
      <point x="40" y="624"/>
      <point x="130" y="713"/>
      <point x="201" y="713" type="qcurve"/>
      <point x="271" y="713"/>
      <point x="362" y="624"/>
      <point x="362" y="555" type="qcurve"/>
      <point x="362" y="486"/>
      <point x="271" y="396"/>
      <point x="201" y="396" type="qcurve"/>
      <point x="130" y="396"/>
      <point x="40" y="486"/>
    </contour>
    <contour>
      <point x="108" y="555" type="qcurve"/>
      <point x="108" y="512"/>
      <point x="160" y="460"/>
      <point x="201" y="460" type="qcurve"/>
      <point x="243" y="460"/>
      <point x="294" y="512"/>
      <point x="294" y="555" type="qcurve"/>
      <point x="294" y="598"/>
      <point x="243" y="650"/>
      <point x="201" y="650" type="qcurve"/>
      <point x="160" y="650"/>
      <point x="108" y="598"/>
    </contour>
  </outline>
</glyph>
<glyph name="plusminus" format="1">
  <advance width="573"/>
  <unicode hex="00B1"/>
  <outline>
    <contour>
      <point x="55" y="290" type="line"/>
      <point x="55" y="365" type="line"/>
      <point x="243" y="365" type="line"/>
      <point x="243" y="508" type="line"/>
      <point x="318" y="508" type="line"/>
      <point x="318" y="365" type="line"/>
      <point x="506" y="365" type="line"/>
      <point x="506" y="290" type="line"/>
      <point x="318" y="290" type="line"/>
      <point x="318" y="146" type="line"/>
      <point x="243" y="146" type="line"/>
      <point x="243" y="290" type="line"/>
    </contour>
    <contour>
      <point x="55" y="32" type="line"/>
      <point x="55" y="107" type="line"/>
      <point x="506" y="107" type="line"/>
      <point x="506" y="32" type="line"/>
    </contour>
  </outline>
</glyph>
<glyph name="twosuperior" format="1">
  <advance width="423"/>
  <unicode hex="00B2"/>
  <outline>
    <contour>
      <point x="383" y="399" type="line"/>
      <point x="383" y="281" type="line"/>
      <point x="55" y="281" type="line"/>
      <point x="55" y="330" type="line"/>
      <point x="152" y="400"/>
      <point x="285" y="532"/>
      <point x="285" y="587" type="qcurve"/>
      <point x="285" y="615"/>
      <point x="246" y="654"/>
      <point x="205" y="654" type="qcurve"/>
      <point x="160" y="654"/>
      <point x="127" y="635" type="qcurve"/>
      <point x="127" y="576" type="line"/>
      <point x="65" y="576" type="line"/>
      <point x="65" y="664" type="line"/>
      <point x="133" y="713"/>
      <point x="215" y="713" type="qcurve"/>
      <point x="281" y="713"/>
      <point x="361" y="652"/>
      <point x="361" y="600" type="qcurve"/>
      <point x="361" y="540"/>
      <point x="246" y="411"/>
      <point x="150" y="340" type="qcurve"/>
      <point x="320" y="340" type="line"/>
      <point x="320" y="399" type="line"/>
    </contour>
  </outline>
</glyph>
<glyph name="threesuperior" format="1">
  <advance width="436"/>
  <unicode hex="00B3"/>
  <outline>
    <contour>
      <point x="65" y="352" type="line"/>
      <point x="123" y="329"/>
      <point x="194" y="329" type="qcurve"/>
      <point x="250" y="329"/>
      <point x="320" y="362"/>
      <point x="320" y="399" type="qcurve"/>
      <point x="320" y="430"/>
      <point x="260" y="461"/>
      <point x="190" y="461" type="qcurve"/>
      <point x="161" y="461" type="line"/>
      <point x="161" y="515" type="line"/>
      <point x="180" y="515" type="line"/>
      <point x="243" y="515"/>
      <point x="300" y="555"/>
      <point x="300" y="590" type="qcurve"/>
      <point x="300" y="619"/>
      <point x="261" y="654"/>
      <point x="213" y="654" type="qcurve"/>
      <point x="163" y="654"/>
      <point x="127" y="636" type="qcurve"/>
      <point x="127" y="576" type="line"/>
      <point x="65" y="576" type="line"/>
      <point x="65" y="665" type="line"/>
      <point x="135" y="713"/>
      <point x="219" y="713" type="qcurve"/>
      <point x="288" y="713"/>
      <point x="375" y="652"/>
      <point x="375" y="600" type="qcurve"/>
      <point x="375" y="529"/>
      <point x="294" y="499" type="qcurve"/>
      <point x="294" y="496" type="line"/>
      <point x="396" y="479"/>
      <point x="396" y="398" type="qcurve"/>
      <point x="396" y="338"/>
      <point x="280" y="268"/>
      <point x="192" y="268" type="qcurve"/>
      <point x="117" y="268"/>
      <point x="65" y="289" type="qcurve"/>
    </contour>
  </outline>
</glyph>
<glyph name="uni00B5" format="1">
  <advance width="590"/>
  <unicode hex="00B5"/>
  <outline>
    <contour>
      <point x="85" y="-220" type="line"/>
      <point x="85" y="499" type="line"/>
      <point x="170" y="499" type="line"/>
      <point x="170" y="138" type="line"/>
      <point x="188" y="93"/>
      <point x="245" y="55"/>
      <point x="277" y="55" type="qcurve"/>
      <point x="315" y="55"/>
      <point x="385" y="104"/>
      <point x="395" y="146" type="qcurve"/>
      <point x="395" y="499" type="line"/>
      <point x="480" y="499" type="line"/>
      <point x="480" y="68" type="line"/>
      <point x="555" y="68" type="line"/>
      <point x="555" y="0" type="line"/>
      <point x="402" y="0" type="line"/>
      <point x="399" y="64" type="line"/>
      <point x="396" y="64" type="line"/>
      <point x="346" y="-13"/>
      <point x="275" y="-13" type="qcurve"/>
      <point x="205" y="-13"/>
      <point x="171" y="55" type="qcurve"/>
      <point x="170" y="55" type="line"/>
      <point x="170" y="-220" type="line"/>
    </contour>
  </outline>
</glyph>
<glyph name="paragraph" format="1">
  <advance width="670"/>
  <unicode hex="00B6"/>
  <outline>
    <contour>
      <point x="274" y="-170" type="line"/>
      <point x="274" y="304" type="line"/>
      <point x="160" y="306"/>
      <point x="35" y="411"/>
      <point x="35" y="510" type="qcurve"/>
      <point x="35" y="600"/>
      <point x="154" y="700"/>
      <point x="280" y="700" type="qcurve"/>
      <point x="595" y="700" type="line"/>
      <point x="595" y="632" type="line"/>
      <point x="520" y="632" type="line"/>
      <point x="520" y="-170" type="line"/>
      <point x="445" y="-170" type="line"/>
      <point x="445" y="632" type="line"/>
      <point x="350" y="632" type="line"/>
      <point x="350" y="-170" type="line"/>
    </contour>
  </outline>
</glyph>
<glyph name="periodcentered" format="1">
  <advance width="250"/>
  <unicode hex="00B7"/>
  <outline>
    <contour>
      <point x="60" y="250" type="qcurve"/>
      <point x="60" y="281"/>
      <point x="95" y="317"/>
      <point x="126" y="317" type="qcurve"/>
      <point x="155" y="317"/>
      <point x="190" y="282"/>
      <point x="190" y="254" type="qcurve"/>
      <point x="190" y="221"/>
      <point x="154" y="187"/>
      <point x="123" y="187" type="qcurve"/>
      <point x="94" y="187"/>
      <point x="60" y="221"/>
    </contour>
  </outline>
</glyph>
<glyph name="onesuperior" format="1">
  <advance width="302"/>
  <unicode hex="00B9"/>
  <outline>
    <contour>
      <point x="130" y="281" type="line"/>
      <point x="130" y="640" type="line"/>
      <point x="55" y="640" type="line"/>
      <point x="55" y="700" type="line"/>
      <point x="202" y="700" type="line"/>
      <point x="202" y="281" type="line"/>
    </contour>
  </outline>
</glyph>
<glyph name="ordmasculine" format="1">
  <advance width="448"/>
  <unicode hex="00BA"/>
  <outline>
    <contour>
      <point x="40" y="455" type="qcurve"/>
      <point x="40" y="540"/>
      <point x="143" y="645"/>
      <point x="230" y="645" type="qcurve"/>
      <point x="314" y="645"/>
      <point x="408" y="544"/>
      <point x="408" y="463" type="qcurve"/>
      <point x="408" y="377"/>
      <point x="304" y="268"/>
      <point x="221" y="268" type="qcurve"/>
      <point x="138" y="268"/>
      <point x="40" y="371"/>
    </contour>
    <contour>
      <point x="115" y="463" type="qcurve"/>
      <point x="115" y="398"/>
      <point x="173" y="327"/>
      <point x="227" y="327" type="qcurve"/>
      <point x="279" y="327"/>
      <point x="332" y="393"/>
      <point x="332" y="457" type="qcurve"/>
      <point x="332" y="520"/>
      <point x="279" y="586"/>
      <point x="221" y="586" type="qcurve"/>
      <point x="171" y="586"/>
      <point x="115" y="527"/>
    </contour>
  </outline>
</glyph>
<glyph name="questiondown" format="1">
  <advance width="415"/>
  <unicode hex="00BF"/>
  <outline>
    <contour>
      <point x="340" y="-200" type="line"/>
      <point x="288" y="-218"/>
      <point x="235" y="-218" type="qcurve"/>
      <point x="149" y="-218"/>
      <point x="40" y="-130"/>
      <point x="40" y="-51" type="qcurve"/>
      <point x="40" y="4"/>
      <point x="89" y="80"/>
      <point x="136" y="115" type="qcurve"/>
      <point x="174" y="144"/>
      <point x="229" y="204"/>
      <point x="229" y="242" type="qcurve"/>
      <point x="229" y="263"/>
      <point x="220" y="290" type="qcurve"/>
      <point x="280" y="290" type="line"/>
      <point x="294" y="254"/>
      <point x="294" y="217" type="qcurve"/>
      <point x="294" y="174"/>
      <point x="246" y="110"/>
      <point x="212" y="85" type="qcurve"/>
      <point x="171" y="56"/>
      <point x="129" y="-6"/>
      <point x="129" y="-46" type="qcurve"/>
      <point x="129" y="-94"/>
      <point x="190" y="-146"/>
      <point x="248" y="-146" type="qcurve"/>
      <point x="292" y="-146"/>
      <point x="340" y="-129" type="qcurve"/>
    </contour>
    <contour>
      <point x="314" y="436" type="qcurve"/>
      <point x="314" y="407"/>
      <point x="279" y="371"/>
      <point x="249" y="371" type="qcurve"/>
      <point x="221" y="371"/>
      <point x="186" y="406"/>
      <point x="186" y="435" type="qcurve"/>
      <point x="186" y="464"/>
      <point x="221" y="499"/>
      <point x="251" y="499" type="qcurve"/>
      <point x="280" y="499"/>
      <point x="314" y="465"/>
    </contour>
  </outline>
</glyph>
<glyph name="AE" format="1">
  <advance width="892"/>
  <unicode hex="00C6"/>
  <outline>
    <contour>
      <point x="769" y="68" type="line"/>
      <point x="769" y="168" type="line"/>
      <point x="842" y="168" type="line"/>
      <point x="842" y="0" type="line"/>
      <point x="358" y="0" type="line"/>
      <point x="358" y="68" type="line"/>
      <point x="429" y="68" type="line"/>
      <point x="429" y="632" type="line"/>
      <point x="358" y="632" type="line"/>
      <point x="379" y="700" type="line"/>
      <point x="832" y="700" type="line"/>
      <point x="832" y="532" type="line"/>
      <point x="760" y="532" type="line"/>
      <point x="760" y="632" type="line"/>
      <point x="513" y="632" type="line"/>
      <point x="513" y="396" type="line"/>
      <point x="656" y="396" type="line"/>
      <point x="656" y="467" type="line"/>
      <point x="725" y="467" type="line"/>
      <point x="725" y="254" type="line"/>
      <point x="656" y="254" type="line"/>
      <point x="656" y="329" type="line"/>
      <point x="513" y="329" type="line"/>
      <point x="513" y="68" type="line"/>
    </contour>
    <contour>
      <point x="129" y="68" type="line"/>
      <point x="198" y="68" type="line"/>
      <point x="198" y="0" type="line"/>
      <point x="-20" y="0" type="line"/>
      <point x="-20" y="68" type="line"/>
      <point x="45" y="68" type="line"/>
    </contour>
    <contour>
      <point x="196" y="329" type="line"/>
      <point x="442" y="329" type="line"/>
      <point x="442" y="260" type="line"/>
      <point x="173" y="260" type="line"/>
    </contour>
    <contour>
      <point x="45" y="68" type="line"/>
      <point x="379" y="700" type="line"/>
      <point x="463" y="689" type="line"/>
      <point x="425" y="632" type="line"/>
      <point x="423" y="632" type="line"/>
      <point x="127" y="57" type="line"/>
    </contour>
  </outline>
</glyph>
<glyph name="multiply" format="1">
  <advance width="561"/>
  <unicode hex="00D7"/>
  <outline>
    <contour>
      <point x="108" y="57" type="line"/>
      <point x="55" y="110" type="line"/>
      <point x="227" y="282" type="line"/>
      <point x="55" y="455" type="line"/>
      <point x="108" y="508" type="line"/>
      <point x="280" y="336" type="line"/>
      <point x="454" y="508" type="line"/>
      <point x="506" y="455" type="line"/>
      <point x="335" y="282" type="line"/>
      <point x="506" y="110" type="line"/>
      <point x="454" y="57" type="line"/>
      <point x="280" y="229" type="line"/>
    </contour>
  </outline>
</glyph>
<glyph name="Oslash" format="1">
  <advance width="760"/>
  <unicode hex="00D8"/>
  <outline>
    <contour>
      <point x="55" y="351" type="qcurve"/>
      <point x="55" y="514"/>
      <point x="235" y="713"/>
      <point x="387" y="713" type="qcurve"/>
      <point x="489" y="713"/>
      <point x="560" y="668" type="qcurve"/>
      <point x="608" y="740" type="line"/>
      <point x="660" y="710" type="line"/>
      <point x="606" y="631" type="line"/>
      <point x="705" y="535"/>
      <point x="705" y="360" type="qcurve"/>
      <point x="705" y="190"/>
      <point x="525" y="-13"/>
      <point x="377" y="-13" type="qcurve"/>
      <point x="274" y="-13"/>
      <point x="204" y="35" type="qcurve"/>
      <point x="151" y="-40" type="line"/>
      <point x="100" y="-10" type="line"/>
      <point x="155" y="73" type="line"/>
      <point x="54" y="179"/>
    </contour>
    <contour>
      <point x="143" y="356" type="qcurve"/>
      <point x="143" y="221"/>
      <point x="204" y="143" type="qcurve"/>
      <point x="515" y="604" type="line"/>
      <point x="462" y="640"/>
      <point x="382" y="640" type="qcurve"/>
      <point x="267" y="640"/>
      <point x="143" y="493"/>
    </contour>
    <contour>
      <point x="380" y="60" type="qcurve"/>
      <point x="492" y="60"/>
      <point x="617" y="218"/>
      <point x="617" y="357" type="qcurve"/>
      <point x="617" y="487"/>
      <point x="560" y="562" type="qcurve"/>
      <point x="246" y="99" type="line"/>
      <point x="302" y="60"/>
    </contour>
  </outline>
</glyph>
<glyph name="Thorn" format="1">
  <advance width="581"/>
  <unicode hex="00DE"/>
  <outline>
    <contour>
      <point x="45" y="68" type="line"/>
      <point x="120" y="68" type="line"/>
      <point x="120" y="632" type="line"/>
      <point x="45" y="632" type="line"/>
      <point x="45" y="700" type="line"/>
      <point x="280" y="700" type="line"/>
      <point x="280" y="632" type="line"/>
      <point x="205" y="632" type="line"/>
      <point x="205" y="555" type="line"/>
      <point x="285" y="555" type="line"/>
      <point x="415" y="555"/>
      <point x="536" y="460"/>
      <point x="536" y="365" type="qcurve"/>
      <point x="536" y="260"/>
      <point x="396" y="154"/>
      <point x="263" y="154" type="qcurve"/>
      <point x="205" y="154" type="line"/>
      <point x="205" y="68" type="line"/>
      <point x="280" y="68" type="line"/>
      <point x="280" y="0" type="line"/>
      <point x="45" y="0" type="line"/>
    </contour>
    <contour>
      <point x="267" y="221" type="line"/>
      <point x="358" y="221"/>
      <point x="448" y="285"/>
      <point x="448" y="358" type="qcurve"/>
      <point x="448" y="429"/>
      <point x="365" y="487"/>
      <point x="276" y="487" type="qcurve"/>
      <point x="205" y="487" type="line"/>
      <point x="205" y="221" type="line"/>
    </contour>
  </outline>
</glyph>
<glyph name="germandbls" format="1">
  <advance width="593"/>
  <unicode hex="00DF"/>
  <outline>
    <contour>
      <point x="195" y="0" type="line"/>
      <point x="35" y="0" type="line"/>
      <point x="35" y="68" type="line"/>
      <point x="110" y="68" type="line"/>
      <point x="110" y="431" type="line"/>
      <point x="35" y="431" type="line"/>
      <point x="35" y="499" type="line"/>
      <point x="110" y="499" type="line"/>
      <point x="111" y="621"/>
      <point x="218" y="745"/>
      <point x="320" y="745" type="qcurve"/>
      <point x="405" y="745"/>
      <point x="510" y="663"/>
      <point x="510" y="592" type="qcurve"/>
      <point x="510" y="562"/>
      <point x="492" y="518"/>
      <point x="479" y="502" type="qcurve"/>
      <point x="464" y="486"/>
      <point x="429" y="461"/>
      <point x="412" y="451" type="qcurve"/>
      <point x="377" y="430"/>
      <point x="360" y="415" type="qcurve"/>
      <point x="340" y="400"/>
      <point x="340" y="374" type="qcurve"/>
      <point x="340" y="356"/>
      <point x="356" y="331"/>
      <point x="369" y="320" type="qcurve"/>
      <point x="381" y="310"/>
      <point x="415" y="293"/>
      <point x="435" y="285" type="qcurve"/>
      <point x="455" y="275"/>
      <point x="499" y="251"/>
      <point x="518" y="235" type="qcurve"/>
      <point x="535" y="218"/>
      <point x="558" y="171"/>
      <point x="558" y="140" type="qcurve"/>
      <point x="558" y="71"/>
      <point x="454" y="-13"/>
      <point x="362" y="-13" type="qcurve"/>
      <point x="314" y="-13"/>
      <point x="263" y="1" type="qcurve"/>
      <point x="263" y="73" type="line"/>
      <point x="314" y="54"/>
      <point x="365" y="54" type="qcurve"/>
      <point x="421" y="54"/>
      <point x="473" y="93"/>
      <point x="473" y="126" type="qcurve"/>
      <point x="473" y="145"/>
      <point x="458" y="173"/>
      <point x="446" y="183" type="qcurve"/>
      <point x="432" y="194"/>
      <point x="400" y="211"/>
      <point x="385" y="219" type="qcurve"/>
      <point x="361" y="230"/>
      <point x="318" y="254"/>
      <point x="300" y="271" type="qcurve"/>
      <point x="285" y="287"/>
      <point x="263" y="330"/>
      <point x="263" y="360" type="qcurve"/>
      <point x="263" y="386"/>
      <point x="280" y="426"/>
      <point x="293" y="440" type="qcurve"/>
      <point x="306" y="455"/>
      <point x="338" y="476"/>
      <point x="352" y="485" type="qcurve"/>
      <point x="365" y="493"/>
      <point x="390" y="511"/>
      <point x="401" y="521" type="qcurve"/>
      <point x="412" y="535"/>
      <point x="424" y="565"/>
      <point x="424" y="587" type="qcurve"/>
      <point x="424" y="635"/>
      <point x="370" y="680"/>
      <point x="321" y="680" type="qcurve"/>
      <point x="257" y="680"/>
      <point x="195" y="596"/>
      <point x="195" y="510" type="qcurve"/>
    </contour>
  </outline>
</glyph>
<glyph name="ae" format="1">
  <advance width="800"/>
  <unicode hex="00E6"/>
  <outline>
    <contour>
      <point x="371" y="92" type="line"/>
      <point x="289" y="-13"/>
      <point x="185" y="-13" type="qcurve"/>
      <point x="120" y="-13"/>
      <point x="40" y="62"/>
      <point x="40" y="124" type="qcurve"/>
      <point x="40" y="201"/>
      <point x="183" y="287"/>
      <point x="311" y="287" type="qcurve"/>
      <point x="336" y="287" type="line"/>
      <point x="336" y="348" type="line"/>
      <point x="336" y="400"/>
      <point x="290" y="446"/>
      <point x="240" y="446" type="qcurve"/>
      <point x="185" y="446"/>
      <point x="146" y="420" type="qcurve"/>
      <point x="146" y="350" type="line"/>
      <point x="73" y="350" type="line"/>
      <point x="73" y="452" type="line"/>
      <point x="160" y="513"/>
      <point x="252" y="513" type="qcurve"/>
      <point x="305" y="513"/>
      <point x="383" y="477"/>
      <point x="400" y="435" type="qcurve"/>
      <point x="402" y="435" type="line"/>
      <point x="435" y="476"/>
      <point x="526" y="513"/>
      <point x="570" y="513" type="qcurve"/>
      <point x="654" y="513"/>
      <point x="755" y="393"/>
      <point x="755" y="288" type="qcurve"/>
      <point x="755" y="246" type="line"/>
      <point x="424" y="246" type="line"/>
      <point x="426" y="157"/>
      <point x="505" y="58"/>
      <point x="585" y="58" type="qcurve"/>
      <point x="667" y="58"/>
      <point x="743" y="107" type="qcurve"/>
      <point x="743" y="35" type="line"/>
      <point x="662" y="-13"/>
      <point x="574" y="-13" type="qcurve"/>
      <point x="435" y="-13"/>
      <point x="373" y="92" type="qcurve"/>
    </contour>
    <contour>
      <point x="306" y="229" type="line"/>
      <point x="224" y="229"/>
      <point x="131" y="185"/>
      <point x="131" y="131" type="qcurve"/>
      <point x="131" y="89"/>
      <point x="179" y="54"/>
      <point x="210" y="54" type="qcurve"/>
      <point x="287" y="54"/>
      <point x="352" y="144" type="qcurve"/>
      <point x="340" y="185"/>
      <point x="337" y="229" type="qcurve"/>
    </contour>
    <contour>
      <point x="668" y="310" type="line"/>
      <point x="668" y="375"/>
      <point x="611" y="446"/>
      <point x="558" y="446" type="qcurve"/>
      <point x="501" y="446"/>
      <point x="432" y="374"/>
      <point x="426" y="310" type="qcurve"/>
    </contour>
  </outline>
</glyph>
<glyph name="eth" format="1">
  <advance width="558"/>
  <unicode hex="00F0"/>
  <outline>
    <contour>
      <point x="420" y="452" type="line"/>
      <point x="414" y="390" type="line"/>
      <point x="350" y="427"/>
      <point x="279" y="427" type="qcurve"/>
      <point x="206" y="427"/>
      <point x="135" y="338"/>
      <point x="135" y="248" type="qcurve"/>
      <point x="135" y="154"/>
      <point x="210" y="54"/>
      <point x="275" y="54" type="qcurve"/>
      <point x="342" y="54"/>
      <point x="413" y="165"/>
      <point x="413" y="290" type="qcurve"/>
      <point x="413" y="410"/>
      <point x="354" y="564"/>
      <point x="300" y="606" type="qcurve"/>
      <point x="265" y="633"/>
      <point x="180" y="667"/>
      <point x="104" y="671" type="qcurve"/>
      <point x="104" y="740" type="line"/>
      <point x="289" y="735"/>
      <point x="504" y="496"/>
      <point x="504" y="307" type="qcurve"/>
      <point x="504" y="160"/>
      <point x="380" y="-13"/>
      <point x="270" y="-13" type="qcurve"/>
      <point x="168" y="-13"/>
      <point x="45" y="125"/>
      <point x="45" y="240" type="qcurve"/>
      <point x="45" y="356"/>
      <point x="173" y="494"/>
      <point x="279" y="494" type="qcurve"/>
      <point x="339" y="494"/>
      <point x="386" y="468" type="qcurve"/>
      <point x="395" y="471" type="line"/>
    </contour>
    <contour>
      <point x="177" y="579" type="line"/>
      <point x="396" y="745" type="line"/>
      <point x="433" y="696" type="line"/>
      <point x="213" y="530" type="line"/>
    </contour>
  </outline>
</glyph>
<glyph name="divide" format="1">
  <advance width="561"/>
  <unicode hex="00F7"/>
  <outline>
    <contour>
      <point x="219" y="115" type="qcurve"/>
      <point x="219" y="145"/>
      <point x="252" y="179"/>
      <point x="281" y="179" type="qcurve"/>
      <point x="308" y="179"/>
      <point x="340" y="146"/>
      <point x="340" y="119" type="qcurve"/>
      <point x="340" y="90"/>
      <point x="307" y="57"/>
      <point x="279" y="57" type="qcurve"/>
      <point x="251" y="57"/>
      <point x="219" y="90"/>
    </contour>
    <contour>
      <point x="55" y="245" type="line"/>
      <point x="55" y="320" type="line"/>
      <point x="506" y="320" type="line"/>
      <point x="506" y="245" type="line"/>
    </contour>
    <contour>
      <point x="219" y="445" type="qcurve"/>
      <point x="219" y="474"/>
      <point x="252" y="508"/>
      <point x="281" y="508" type="qcurve"/>
      <point x="308" y="508"/>
      <point x="340" y="475"/>
      <point x="340" y="448" type="qcurve"/>
      <point x="340" y="419"/>
      <point x="307" y="386"/>
      <point x="279" y="386" type="qcurve"/>
      <point x="251" y="386"/>
      <point x="219" y="419"/>
    </contour>
  </outline>
</glyph>
<glyph name="oslash" format="1">
  <advance width="550"/>
  <unicode hex="00F8"/>
  <outline>
    <contour>
      <point x="45" y="248" type="qcurve"/>
      <point x="45" y="365"/>
      <point x="177" y="513"/>
      <point x="281" y="513" type="qcurve"/>
      <point x="344" y="513"/>
      <point x="396" y="483" type="qcurve"/>
      <point x="435" y="540" type="line"/>
      <point x="482" y="511" type="line"/>
      <point x="440" y="448" type="line"/>
      <point x="505" y="377"/>
      <point x="505" y="260" type="qcurve"/>
      <point x="505" y="138"/>
      <point x="376" y="-13"/>
      <point x="271" y="-13" type="qcurve"/>
      <point x="204" y="-13"/>
      <point x="154" y="19" type="qcurve"/>
      <point x="113" y="-40" type="line"/>
      <point x="65" y="-11" type="line"/>
      <point x="110" y="55" type="line"/>
      <point x="45" y="129"/>
    </contour>
    <contour>
      <point x="417" y="250" type="qcurve"/>
      <point x="417" y="333"/>
      <point x="393" y="377" type="qcurve"/>
      <point x="194" y="81" type="line"/>
      <point x="229" y="54"/>
      <point x="279" y="54" type="qcurve"/>
      <point x="346" y="54"/>
      <point x="417" y="154"/>
    </contour>
    <contour>
      <point x="133" y="260" type="qcurve"/>
      <point x="133" y="177"/>
      <point x="158" y="127" type="qcurve"/>
      <point x="356" y="421" type="line"/>
      <point x="323" y="446"/>
      <point x="273" y="446" type="qcurve"/>
      <point x="206" y="446"/>
      <point x="133" y="356"/>
    </contour>
  </outline>
</glyph>
<glyph name="thorn" format="1">
  <advance width="557"/>
  <unicode hex="00FE"/>
  <outline>
    <contour>
      <point x="512" y="260" type="qcurve"/>
      <point x="512" y="139"/>
      <point x="383" y="-13"/>
      <point x="280" y="-13" type="qcurve"/>
      <point x="224" y="-13"/>
      <point x="171" y="11" type="qcurve"/>
      <point x="170" y="10" type="line"/>
      <point x="170" y="-152" type="line"/>
      <point x="260" y="-152" type="line"/>
      <point x="260" y="-220" type="line"/>
      <point x="10" y="-220" type="line"/>
      <point x="10" y="-152" type="line"/>
      <point x="85" y="-152" type="line"/>
      <point x="85" y="671" type="line"/>
      <point x="10" y="671" type="line"/>
      <point x="10" y="740" type="line"/>
      <point x="170" y="740" type="line"/>
      <point x="170" y="462" type="line"/>
      <point x="171" y="462" type="line"/>
      <point x="235" y="513"/>
      <point x="312" y="513" type="qcurve"/>
      <point x="404" y="513"/>
      <point x="512" y="370"/>
    </contour>
    <contour>
      <point x="268" y="54" type="qcurve"/>
      <point x="340" y="54"/>
      <point x="421" y="148"/>
      <point x="421" y="248" type="qcurve"/>
      <point x="421" y="340"/>
      <point x="350" y="444"/>
      <point x="288" y="444" type="qcurve"/>
      <point x="224" y="444"/>
      <point x="170" y="396" type="qcurve"/>
      <point x="170" y="75" type="line"/>
      <point x="213" y="54"/>
    </contour>
  </outline>
</glyph>
<glyph name="Aogonek" format="1">
  <advance width="664"/>
  <unicode hex="0104"/>
  <outline>
    <contour>
      <point x="211" y="68" type="line"/>
      <point x="211" y="0" type="line"/>
      <point x="-8" y="0" type="line"/>
      <point x="-8" y="68" type="line"/>
      <point x="57" y="68" type="line"/>
      <point x="289" y="704" type="line"/>
      <point x="375" y="704" type="line"/>
      <point x="607" y="68" type="line"/>
      <point x="671" y="68" type="line"/>
      <point x="671" y="0" type="line"/>
      <point x="550" y="0" type="line"/>
      <point x="514" y="-26"/>
      <point x="479" y="-85"/>
      <point x="479" y="-113" type="qcurve"/>
      <point x="479" y="-139"/>
      <point x="507" y="-158"/>
      <point x="527" y="-158" type="qcurve"/>
      <point x="555" y="-158"/>
      <point x="582" y="-143" type="qcurve"/>
      <point x="582" y="-207" type="line"/>
      <point x="551" y="-226"/>
      <point x="514" y="-226" type="qcurve"/>
      <point x="470" y="-226"/>
      <point x="407" y="-179"/>
      <point x="407" y="-129" type="qcurve"/>
      <point x="407" y="-88"/>
      <point x="464" y="-1"/>
      <point x="524" y="42" type="qcurve"/>
      <point x="449" y="252" type="line"/>
      <point x="205" y="252" type="line"/>
      <point x="140" y="68" type="line"/>
    </contour>
    <contour>
      <point x="325" y="594" type="line"/>
      <point x="229" y="321" type="line"/>
      <point x="424" y="321" type="line"/>
      <point x="327" y="594" type="line"/>
    </contour>
  </outline>
</glyph>
<glyph name="Dcroat" format="1">
  <advance width="724"/>
  <unicode hex="0110"/>
  <outline>
    <contour>
      <point x="125" y="329" type="line"/>
      <point x="50" y="329" type="line"/>
      <point x="50" y="396" type="line"/>
      <point x="125" y="396" type="line"/>
      <point x="125" y="632" type="line"/>
      <point x="50" y="632" type="line"/>
      <point x="50" y="700" type="line"/>
      <point x="307" y="700" type="line"/>
      <point x="492" y="700"/>
      <point x="669" y="533"/>
      <point x="669" y="369" type="qcurve"/>
      <point x="669" y="188"/>
      <point x="468" y="0"/>
      <point x="281" y="0" type="qcurve"/>
      <point x="50" y="0" type="line"/>
      <point x="50" y="68" type="line"/>
      <point x="125" y="68" type="line"/>
    </contour>
    <contour>
      <point x="210" y="68" type="line"/>
      <point x="290" y="68" type="line"/>
      <point x="430" y="68"/>
      <point x="579" y="210"/>
      <point x="579" y="360" type="qcurve"/>
      <point x="579" y="500"/>
      <point x="442" y="632"/>
      <point x="292" y="632" type="qcurve"/>
      <point x="210" y="632" type="line"/>
      <point x="210" y="396" type="line"/>
      <point x="315" y="396" type="line"/>
      <point x="315" y="329" type="line"/>
      <point x="210" y="329" type="line"/>
    </contour>
  </outline>
</glyph>
<glyph name="dcroat" format="1">
  <advance width="577"/>
  <unicode hex="0111"/>
  <outline>
    <contour>
      <point x="302" y="671" type="line"/>
      <point x="302" y="740" type="line"/>
      <point x="471" y="740" type="line"/>
      <point x="471" y="612" type="line"/>
      <point x="546" y="612" type="line"/>
      <point x="546" y="550" type="line"/>
      <point x="471" y="550" type="line"/>
      <point x="471" y="68" type="line"/>
      <point x="546" y="68" type="line"/>
      <point x="546" y="0" type="line"/>
      <point x="390" y="0" type="line"/>
      <point x="387" y="48" type="line"/>
      <point x="385" y="48" type="line"/>
      <point x="325" y="-13"/>
      <point x="240" y="-13" type="qcurve"/>
      <point x="154" y="-13"/>
      <point x="45" y="124"/>
      <point x="45" y="236" type="qcurve"/>
      <point x="45" y="357"/>
      <point x="179" y="499"/>
      <point x="279" y="499" type="qcurve"/>
      <point x="335" y="499"/>
      <point x="385" y="476" type="qcurve"/>
      <point x="387" y="477" type="line"/>
      <point x="387" y="550" type="line"/>
      <point x="227" y="550" type="line"/>
      <point x="227" y="612" type="line"/>
      <point x="387" y="612" type="line"/>
      <point x="387" y="671" type="line"/>
    </contour>
    <contour>
      <point x="387" y="410" type="line"/>
      <point x="340" y="432"/>
      <point x="282" y="432" type="qcurve"/>
      <point x="210" y="432"/>
      <point x="135" y="339"/>
      <point x="135" y="244" type="qcurve"/>
      <point x="135" y="154"/>
      <point x="204" y="54"/>
      <point x="265" y="54" type="qcurve"/>
      <point x="337" y="54"/>
      <point x="387" y="112" type="qcurve"/>
    </contour>
  </outline>
</glyph>
<glyph name="Hbar" format="1">
  <advance width="785"/>
  <unicode hex="0126"/>
  <outline>
    <contour>
      <point x="735" y="476" type="line"/>
      <point x="660" y="476" type="line"/>
      <point x="660" y="68" type="line"/>
      <point x="735" y="68" type="line"/>
      <point x="735" y="0" type="line"/>
      <point x="500" y="0" type="line"/>
      <point x="500" y="68" type="line"/>
      <point x="575" y="68" type="line"/>
      <point x="575" y="319" type="line"/>
      <point x="210" y="319" type="line"/>
      <point x="210" y="68" type="line"/>
      <point x="285" y="68" type="line"/>
      <point x="285" y="0" type="line"/>
      <point x="50" y="0" type="line"/>
      <point x="50" y="68" type="line"/>
      <point x="125" y="68" type="line"/>
      <point x="125" y="476" type="line"/>
      <point x="50" y="476" type="line"/>
      <point x="50" y="540" type="line"/>
      <point x="125" y="540" type="line"/>
      <point x="125" y="632" type="line"/>
      <point x="50" y="632" type="line"/>
      <point x="50" y="700" type="line"/>
      <point x="285" y="700" type="line"/>
      <point x="285" y="632" type="line"/>
      <point x="210" y="632" type="line"/>
      <point x="210" y="540" type="line"/>
      <point x="575" y="540" type="line"/>
      <point x="575" y="632" type="line"/>
      <point x="500" y="632" type="line"/>
      <point x="500" y="700" type="line"/>
      <point x="735" y="700" type="line"/>
      <point x="735" y="632" type="line"/>
      <point x="660" y="632" type="line"/>
      <point x="660" y="540" type="line"/>
      <point x="735" y="540" type="line"/>
    </contour>
    <contour>
      <point x="575" y="387" type="line"/>
      <point x="575" y="476" type="line"/>
      <point x="210" y="476" type="line"/>
      <point x="210" y="387" type="line"/>
    </contour>
  </outline>
</glyph>
<glyph name="hbar" format="1">
  <advance width="589"/>
  <unicode hex="0127"/>
  <outline>
    <contour>
      <point x="30" y="612" type="line"/>
      <point x="105" y="612" type="line"/>
      <point x="105" y="671" type="line"/>
      <point x="30" y="671" type="line"/>
      <point x="30" y="740" type="line"/>
      <point x="190" y="740" type="line"/>
      <point x="190" y="612" type="line"/>
      <point x="350" y="612" type="line"/>
      <point x="350" y="550" type="line"/>
      <point x="190" y="550" type="line"/>
      <point x="190" y="430" type="line"/>
      <point x="192" y="430" type="line"/>
      <point x="227" y="465"/>
      <point x="304" y="499"/>
      <point x="351" y="499" type="qcurve"/>
      <point x="431" y="499"/>
      <point x="499" y="413"/>
      <point x="499" y="340" type="qcurve"/>
      <point x="499" y="68" type="line"/>
      <point x="574" y="68" type="line"/>
      <point x="574" y="0" type="line"/>
      <point x="344" y="0" type="line"/>
      <point x="344" y="68" type="line"/>
      <point x="414" y="68" type="line"/>
      <point x="414" y="329" type="line"/>
      <point x="414" y="385"/>
      <point x="371" y="430"/>
      <point x="327" y="430" type="qcurve"/>
      <point x="250" y="430"/>
      <point x="190" y="360" type="qcurve"/>
      <point x="190" y="68" type="line"/>
      <point x="260" y="68" type="line"/>
      <point x="260" y="0" type="line"/>
      <point x="30" y="0" type="line"/>
      <point x="30" y="68" type="line"/>
      <point x="105" y="68" type="line"/>
      <point x="105" y="550" type="line"/>
      <point x="30" y="550" type="line"/>
    </contour>
  </outline>
</glyph>
<glyph name="dotlessi" format="1">
  <advance width="295"/>
  <unicode hex="0131"/>
  <outline>
    <contour>
      <point x="35" y="68" type="line"/>
      <point x="110" y="68" type="line"/>
      <point x="110" y="431" type="line"/>
      <point x="35" y="431" type="line"/>
      <point x="35" y="499" type="line"/>
      <point x="195" y="499" type="line"/>
      <point x="195" y="68" type="line"/>
      <point x="270" y="68" type="line"/>
      <point x="270" y="0" type="line"/>
      <point x="35" y="0" type="line"/>
    </contour>
  </outline>
</glyph>
<glyph name="Ldot" format="1">
  <advance width="544"/>
  <unicode hex="013F"/>
  <outline>
    <contour>
      <point x="379" y="362" type="qcurve"/>
      <point x="379" y="388"/>
      <point x="410" y="420"/>
      <point x="435" y="420" type="qcurve"/>
      <point x="460" y="420"/>
      <point x="490" y="389"/>
      <point x="490" y="364" type="qcurve"/>
      <point x="490" y="338"/>
      <point x="460" y="307"/>
      <point x="433" y="307" type="qcurve"/>
      <point x="408" y="307"/>
      <point x="379" y="338"/>
    </contour>
    <contour>
      <point x="45" y="68" type="line"/>
      <point x="120" y="68" type="line"/>
      <point x="120" y="632" type="line"/>
      <point x="45" y="632" type="line"/>
      <point x="45" y="700" type="line"/>
      <point x="279" y="700" type="line"/>
      <point x="279" y="632" type="line"/>
      <point x="205" y="632" type="line"/>
      <point x="205" y="68" type="line"/>
      <point x="440" y="68" type="line"/>
      <point x="440" y="168" type="line"/>
      <point x="514" y="168" type="line"/>
      <point x="514" y="0" type="line"/>
      <point x="45" y="0" type="line"/>
    </contour>
  </outline>
</glyph>
<glyph name="ldot" format="1">
  <advance width="329"/>
  <unicode hex="0140"/>
  <outline>
    <contour>
      <point x="256" y="371" type="qcurve"/>
      <point x="256" y="396"/>
      <point x="286" y="429"/>
      <point x="312" y="429" type="qcurve"/>
      <point x="336" y="429"/>
      <point x="367" y="396"/>
      <point x="367" y="373" type="qcurve"/>
      <point x="367" y="346"/>
      <point x="336" y="317"/>
      <point x="310" y="317" type="qcurve"/>
      <point x="286" y="317"/>
      <point x="256" y="348"/>
    </contour>
    <contour>
      <point x="30" y="68" type="line"/>
      <point x="105" y="68" type="line"/>
      <point x="105" y="671" type="line"/>
      <point x="30" y="671" type="line"/>
      <point x="30" y="740" type="line"/>
      <point x="190" y="740" type="line"/>
      <point x="190" y="68" type="line"/>
      <point x="265" y="68" type="line"/>
      <point x="265" y="0" type="line"/>
      <point x="30" y="0" type="line"/>
    </contour>
  </outline>
</glyph>
<glyph name="Lslash" format="1">
  <advance width="544"/>
  <unicode hex="0141"/>
  <outline>
    <contour>
      <point x="345" y="419" type="line"/>
      <point x="210" y="338" type="line"/>
      <point x="210" y="68" type="line"/>
      <point x="446" y="68" type="line"/>
      <point x="446" y="168" type="line"/>
      <point x="519" y="168" type="line"/>
      <point x="519" y="0" type="line"/>
      <point x="50" y="0" type="line"/>
      <point x="50" y="68" type="line"/>
      <point x="125" y="68" type="line"/>
      <point x="125" y="290" type="line"/>
      <point x="50" y="246" type="line"/>
      <point x="50" y="320" type="line"/>
      <point x="125" y="365" type="line"/>
      <point x="125" y="632" type="line"/>
      <point x="50" y="632" type="line"/>
      <point x="50" y="700" type="line"/>
      <point x="285" y="700" type="line"/>
      <point x="285" y="632" type="line"/>
      <point x="210" y="632" type="line"/>
      <point x="210" y="412" type="line"/>
      <point x="345" y="493" type="line"/>
    </contour>
  </outline>
</glyph>
<glyph name="lslash" format="1">
  <advance width="305"/>
  <unicode hex="0142"/>
  <outline>
    <contour>
      <point x="35" y="68" type="line"/>
      <point x="110" y="68" type="line"/>
      <point x="110" y="671" type="line"/>
      <point x="35" y="671" type="line"/>
      <point x="35" y="740" type="line"/>
      <point x="195" y="740" type="line"/>
      <point x="195" y="68" type="line"/>
      <point x="270" y="68" type="line"/>
      <point x="270" y="0" type="line"/>
      <point x="35" y="0" type="line"/>
    </contour>
    <contour>
      <point x="130" y="460" type="line"/>
      <point x="270" y="513" type="line"/>
      <point x="270" y="446" type="line"/>
      <point x="130" y="393" type="line"/>
    </contour>
    <contour>
      <point x="35" y="424" type="line"/>
      <point x="175" y="479" type="line"/>
      <point x="175" y="412" type="line"/>
      <point x="35" y="358" type="line"/>
    </contour>
  </outline>
</glyph>
<glyph name="Eng" format="1">
  <advance width="752"/>
  <unicode hex="014A"/>
  <outline>
    <contour>
      <point x="449" y="-106" type="line"/>
      <point x="465" y="-108"/>
      <point x="483" y="-108" type="qcurve"/>
      <point x="530" y="-108"/>
      <point x="568" y="-60"/>
      <point x="568" y="4" type="qcurve"/>
      <point x="200" y="546" type="line"/>
      <point x="198" y="546" type="line"/>
      <point x="198" y="68" type="line"/>
      <point x="273" y="68" type="line"/>
      <point x="273" y="0" type="line"/>
      <point x="45" y="0" type="line"/>
      <point x="45" y="68" type="line"/>
      <point x="120" y="68" type="line"/>
      <point x="120" y="632" type="line"/>
      <point x="45" y="632" type="line"/>
      <point x="45" y="700" type="line"/>
      <point x="202" y="700" type="line"/>
      <point x="565" y="160" type="line"/>
      <point x="568" y="160" type="line"/>
      <point x="568" y="632" type="line"/>
      <point x="493" y="632" type="line"/>
      <point x="493" y="700" type="line"/>
      <point x="721" y="700" type="line"/>
      <point x="721" y="632" type="line"/>
      <point x="646" y="632" type="line"/>
      <point x="646" y="15" type="line"/>
      <point x="646" y="-89"/>
      <point x="573" y="-180"/>
      <point x="490" y="-180" type="qcurve"/>
      <point x="470" y="-180"/>
      <point x="449" y="-176" type="qcurve"/>
    </contour>
  </outline>
</glyph>
<glyph name="eng" format="1">
  <advance width="579"/>
  <unicode hex="014B"/>
  <outline>
    <contour>
      <point x="414" y="343" type="line"/>
      <point x="414" y="400"/>
      <point x="370" y="444"/>
      <point x="333" y="444" type="qcurve"/>
      <point x="290" y="444"/>
      <point x="219" y="400"/>
      <point x="195" y="368" type="qcurve"/>
      <point x="195" y="68" type="line"/>
      <point x="270" y="68" type="line"/>
      <point x="270" y="0" type="line"/>
      <point x="35" y="0" type="line"/>
      <point x="35" y="68" type="line"/>
      <point x="110" y="68" type="line"/>
      <point x="110" y="431" type="line"/>
      <point x="35" y="431" type="line"/>
      <point x="35" y="499" type="line"/>
      <point x="192" y="499" type="line"/>
      <point x="195" y="439" type="line"/>
      <point x="196" y="439" type="line"/>
      <point x="229" y="473"/>
      <point x="307" y="513"/>
      <point x="357" y="513" type="qcurve"/>
      <point x="430" y="513"/>
      <point x="499" y="429"/>
      <point x="499" y="354" type="qcurve"/>
      <point x="499" y="-36" type="line"/>
      <point x="499" y="-132"/>
      <point x="429" y="-225"/>
      <point x="354" y="-225" type="qcurve"/>
      <point x="339" y="-225"/>
      <point x="318" y="-221"/>
      <point x="314" y="-221" type="qcurve"/>
      <point x="314" y="-155" type="line"/>
      <point x="321" y="-156"/>
      <point x="336" y="-156"/>
      <point x="337" y="-156" type="qcurve"/>
      <point x="382" y="-156"/>
      <point x="414" y="-108"/>
      <point x="414" y="-49" type="qcurve"/>
    </contour>
  </outline>
</glyph>
<glyph name="OE" format="1">
  <advance width="965"/>
  <unicode hex="0152"/>
  <outline>
    <contour>
      <point x="842" y="68" type="line"/>
      <point x="842" y="168" type="line"/>
      <point x="915" y="168" type="line"/>
      <point x="915" y="0" type="line"/>
      <point x="490" y="0" type="line"/>
      <point x="490" y="4" type="line"/>
      <point x="436" y="-13"/>
      <point x="383" y="-13" type="qcurve"/>
      <point x="235" y="-13"/>
      <point x="55" y="187"/>
      <point x="55" y="351" type="qcurve"/>
      <point x="55" y="515"/>
      <point x="237" y="713"/>
      <point x="393" y="713" type="qcurve"/>
      <point x="445" y="713"/>
      <point x="490" y="699" type="qcurve"/>
      <point x="490" y="700" type="line"/>
      <point x="905" y="700" type="line"/>
      <point x="905" y="532" type="line"/>
      <point x="832" y="532" type="line"/>
      <point x="832" y="632" type="line"/>
      <point x="576" y="632" type="line"/>
      <point x="576" y="396" type="line"/>
      <point x="729" y="396" type="line"/>
      <point x="729" y="467" type="line"/>
      <point x="798" y="467" type="line"/>
      <point x="798" y="260" type="line"/>
      <point x="729" y="260" type="line"/>
      <point x="729" y="329" type="line"/>
      <point x="576" y="329" type="line"/>
      <point x="576" y="68" type="line"/>
    </contour>
    <contour>
      <point x="386" y="60" type="qcurve"/>
      <point x="446" y="60"/>
      <point x="490" y="81" type="qcurve"/>
      <point x="490" y="621" type="line"/>
      <point x="440" y="640"/>
      <point x="388" y="640" type="qcurve"/>
      <point x="270" y="640"/>
      <point x="145" y="494"/>
      <point x="145" y="356" type="qcurve"/>
      <point x="145" y="218"/>
      <point x="275" y="60"/>
    </contour>
  </outline>
</glyph>
<glyph name="oe" format="1">
  <advance width="871"/>
  <unicode hex="0153"/>
  <outline>
    <contour>
      <point x="646" y="-13" type="qcurve"/>
      <point x="512" y="-13"/>
      <point x="451" y="85" type="qcurve"/>
      <point x="449" y="85" type="line"/>
      <point x="385" y="-13"/>
      <point x="269" y="-13" type="qcurve"/>
      <point x="167" y="-13"/>
      <point x="45" y="132"/>
      <point x="45" y="248" type="qcurve"/>
      <point x="45" y="368"/>
      <point x="176" y="513"/>
      <point x="279" y="513" type="qcurve"/>
      <point x="396" y="513"/>
      <point x="457" y="415" type="qcurve"/>
      <point x="460" y="415" type="line"/>
      <point x="494" y="467"/>
      <point x="592" y="513"/>
      <point x="640" y="513" type="qcurve"/>
      <point x="725" y="513"/>
      <point x="826" y="393"/>
      <point x="826" y="288" type="qcurve"/>
      <point x="826" y="246" type="line"/>
      <point x="495" y="246" type="line"/>
      <point x="496" y="157"/>
      <point x="576" y="58"/>
      <point x="657" y="58" type="qcurve"/>
      <point x="737" y="58"/>
      <point x="814" y="107" type="qcurve"/>
      <point x="814" y="35" type="line"/>
      <point x="735" y="-13"/>
    </contour>
    <contour>
      <point x="135" y="260" type="qcurve"/>
      <point x="135" y="163"/>
      <point x="206" y="54"/>
      <point x="275" y="54" type="qcurve"/>
      <point x="342" y="54"/>
      <point x="410" y="155"/>
      <point x="410" y="250" type="qcurve"/>
      <point x="410" y="344"/>
      <point x="342" y="446"/>
      <point x="271" y="446" type="qcurve"/>
      <point x="205" y="446"/>
      <point x="135" y="355"/>
    </contour>
    <contour>
      <point x="739" y="310" type="line"/>
      <point x="739" y="376"/>
      <point x="682" y="446"/>
      <point x="629" y="446" type="qcurve"/>
      <point x="571" y="446"/>
      <point x="504" y="374"/>
      <point x="496" y="310" type="qcurve"/>
    </contour>
  </outline>
</glyph>
<glyph name="tbar" format="1">
  <advance width="337"/>
  <unicode hex="0167"/>
  <outline>
    <contour>
      <point x="227" y="-13" type="qcurve"/>
      <point x="171" y="-13"/>
      <point x="95" y="50"/>
      <point x="95" y="112" type="qcurve"/>
      <point x="95" y="269" type="line"/>
      <point x="20" y="269" type="line"/>
      <point x="20" y="337" type="line"/>
      <point x="95" y="337" type="line"/>
      <point x="95" y="431" type="line"/>
      <point x="20" y="431" type="line"/>
      <point x="20" y="499" type="line"/>
      <point x="95" y="499" type="line"/>
      <point x="95" y="613" type="line"/>
      <point x="180" y="629" type="line"/>
      <point x="180" y="499" type="line"/>
      <point x="307" y="499" type="line"/>
      <point x="307" y="431" type="line"/>
      <point x="180" y="431" type="line"/>
      <point x="180" y="337" type="line"/>
      <point x="307" y="337" type="line"/>
      <point x="307" y="269" type="line"/>
      <point x="180" y="269" type="line"/>
      <point x="180" y="126" type="line"/>
      <point x="180" y="85"/>
      <point x="214" y="57"/>
      <point x="240" y="57" type="qcurve"/>
      <point x="263" y="57"/>
      <point x="296" y="69"/>
      <point x="307" y="74" type="qcurve"/>
      <point x="307" y="5" type="line"/>
      <point x="293" y="-2"/>
      <point x="252" y="-13"/>
    </contour>
  </outline>
</glyph>
<glyph name="uni0192" format="1">
  <advance width="471"/>
  <unicode hex="0192"/>
  <outline>
    <contour>
      <point x="480" y="629" type="line"/>
      <point x="445" y="635"/>
      <point x="423" y="635" type="qcurve"/>
      <point x="353" y="635"/>
      <point x="289" y="563"/>
      <point x="282" y="470" type="qcurve"/>
      <point x="277" y="405" type="line"/>
      <point x="414" y="405" type="line"/>
      <point x="414" y="342" type="line"/>
      <point x="273" y="342" type="line"/>
      <point x="256" y="131" type="line"/>
      <point x="246" y="2"/>
      <point x="143" y="-140"/>
      <point x="51" y="-140" type="qcurve"/>
      <point x="15" y="-140"/>
      <point x="-10" y="-133" type="qcurve"/>
      <point x="-10" y="-65" type="line"/>
      <point x="10" y="-70"/>
      <point x="44" y="-70" type="qcurve"/>
      <point x="105" y="-70"/>
      <point x="164" y="28"/>
      <point x="173" y="133" type="qcurve"/>
      <point x="190" y="342" type="line"/>
      <point x="90" y="342" type="line"/>
      <point x="90" y="405" type="line"/>
      <point x="195" y="405" type="line"/>
      <point x="201" y="474" type="line"/>
      <point x="210" y="586"/>
      <point x="315" y="705"/>
      <point x="415" y="705" type="qcurve"/>
      <point x="450" y="705"/>
      <point x="481" y="700" type="qcurve"/>
    </contour>
  </outline>
</glyph>
<glyph name="uni0237" format="1">
  <advance width="270"/>
  <unicode hex="0237"/>
  <outline>
    <contour>
      <point x="185" y="-36" type="line"/>
      <point x="185" y="-132"/>
      <point x="115" y="-225"/>
      <point x="39" y="-225" type="qcurve"/>
      <point x="25" y="-225"/>
      <point x="0" y="-221" type="qcurve"/>
      <point x="0" y="-155" type="line"/>
      <point x="8" y="-156"/>
      <point x="23" y="-156" type="qcurve"/>
      <point x="68" y="-156"/>
      <point x="100" y="-108"/>
      <point x="100" y="-49" type="qcurve"/>
      <point x="100" y="431" type="line"/>
      <point x="25" y="431" type="line"/>
      <point x="25" y="499" type="line"/>
      <point x="185" y="499" type="line"/>
    </contour>
  </outline>
</glyph>
<glyph name="uni0300" format="1">
  <advance width="0"/>
  <unicode hex="0300"/>
  <outline>
    <contour>
      <point x="-232" y="554" type="line"/>
      <point x="-296" y="554" type="line"/>
      <point x="-406" y="713" type="line"/>
      <point x="-306" y="713" type="line"/>
    </contour>
  </outline>
</glyph>
<glyph name="uni0301" format="1">
  <advance width="0"/>
  <unicode hex="0301"/>
  <outline>
    <contour>
      <point x="-238" y="713" type="line"/>
      <point x="-138" y="713" type="line"/>
      <point x="-246" y="554" type="line"/>
      <point x="-312" y="554" type="line"/>
    </contour>
  </outline>
</glyph>
<glyph name="uni0302" format="1">
  <advance width="0"/>
  <unicode hex="0302"/>
  <outline>
    <contour>
      <point x="-273" y="645" type="line"/>
      <point x="-348" y="554" type="line"/>
      <point x="-425" y="554" type="line"/>
      <point x="-305" y="713" type="line"/>
      <point x="-239" y="713" type="line"/>
      <point x="-119" y="554" type="line"/>
      <point x="-196" y="554" type="line"/>
      <point x="-271" y="645" type="line"/>
    </contour>
  </outline>
</glyph>
<glyph name="uni0303" format="1">
  <advance width="0"/>
  <unicode hex="0303"/>
  <outline>
    <contour>
      <point x="-406" y="660" type="line"/>
      <point x="-367" y="690"/>
      <point x="-324" y="690" type="qcurve"/>
      <point x="-306" y="690"/>
      <point x="-277" y="680"/>
      <point x="-264" y="673" type="qcurve"/>
      <point x="-250" y="665"/>
      <point x="-225" y="654"/>
      <point x="-208" y="654" type="qcurve"/>
      <point x="-167" y="654"/>
      <point x="-129" y="688" type="qcurve"/>
      <point x="-129" y="619" type="line"/>
      <point x="-167" y="587"/>
      <point x="-210" y="587" type="qcurve"/>
      <point x="-230" y="587"/>
      <point x="-260" y="599"/>
      <point x="-273" y="607" type="qcurve"/>
      <point x="-286" y="614"/>
      <point x="-311" y="624"/>
      <point x="-326" y="624" type="qcurve"/>
      <point x="-367" y="624"/>
      <point x="-406" y="590" type="qcurve"/>
    </contour>
  </outline>
</glyph>
<glyph name="uni0304" format="1">
  <advance width="0"/>
  <unicode hex="0304"/>
  <outline>
    <contour>
      <point x="-407" y="673" type="line"/>
      <point x="-137" y="673" type="line"/>
      <point x="-137" y="608" type="line"/>
      <point x="-407" y="608" type="line"/>
    </contour>
  </outline>
</glyph>
<glyph name="uni0306" format="1">
  <advance width="0"/>
  <unicode hex="0306"/>
  <outline>
    <contour>
      <point x="-358" y="707" type="line"/>
      <point x="-354" y="663"/>
      <point x="-307" y="615"/>
      <point x="-271" y="615" type="qcurve"/>
      <point x="-236" y="615"/>
      <point x="-190" y="664"/>
      <point x="-186" y="707" type="qcurve"/>
      <point x="-126" y="707" type="line"/>
      <point x="-129" y="635"/>
      <point x="-206" y="549"/>
      <point x="-271" y="549" type="qcurve"/>
      <point x="-337" y="549"/>
      <point x="-415" y="635"/>
      <point x="-418" y="707" type="qcurve"/>
    </contour>
  </outline>
</glyph>
<glyph name="uni0307" format="1">
  <advance width="0"/>
  <unicode hex="0307"/>
  <outline>
    <contour>
      <point x="-332" y="646" type="qcurve"/>
      <point x="-332" y="675"/>
      <point x="-300" y="708"/>
      <point x="-271" y="708" type="qcurve"/>
      <point x="-246" y="708"/>
      <point x="-213" y="675"/>
      <point x="-213" y="649" type="qcurve"/>
      <point x="-213" y="621"/>
      <point x="-246" y="589"/>
      <point x="-274" y="589" type="qcurve"/>
      <point x="-300" y="589"/>
      <point x="-332" y="621"/>
    </contour>
  </outline>
</glyph>
<glyph name="uni0308" format="1">
  <advance width="0"/>
  <unicode hex="0308"/>
  <outline>
    <contour>
      <point x="-429" y="645" type="qcurve"/>
      <point x="-429" y="671"/>
      <point x="-396" y="704"/>
      <point x="-371" y="704" type="qcurve"/>
      <point x="-345" y="704"/>
      <point x="-314" y="671"/>
      <point x="-314" y="646" type="qcurve"/>
      <point x="-314" y="620"/>
      <point x="-346" y="589"/>
      <point x="-373" y="589" type="qcurve"/>
      <point x="-398" y="589"/>
      <point x="-429" y="620"/>
    </contour>
    <contour>
      <point x="-230" y="645" type="qcurve"/>
      <point x="-230" y="671"/>
      <point x="-199" y="704"/>
      <point x="-171" y="704" type="qcurve"/>
      <point x="-146" y="704"/>
      <point x="-115" y="671"/>
      <point x="-115" y="646" type="qcurve"/>
      <point x="-115" y="620"/>
      <point x="-148" y="589"/>
      <point x="-174" y="589" type="qcurve"/>
      <point x="-200" y="589"/>
      <point x="-230" y="620"/>
    </contour>
  </outline>
</glyph>
<glyph name="uni030A" format="1">
  <advance width="0"/>
  <unicode hex="030A"/>
  <outline>
    <contour>
      <point x="-368" y="637" type="qcurve"/>
      <point x="-368" y="679"/>
      <point x="-314" y="726"/>
      <point x="-269" y="726" type="qcurve"/>
      <point x="-225" y="726"/>
      <point x="-176" y="679"/>
      <point x="-176" y="640" type="qcurve"/>
      <point x="-176" y="600"/>
      <point x="-229" y="549"/>
      <point x="-274" y="549" type="qcurve"/>
      <point x="-318" y="549"/>
      <point x="-368" y="599"/>
    </contour>
    <contour>
      <point x="-320" y="639" type="qcurve"/>
      <point x="-320" y="615"/>
      <point x="-295" y="589"/>
      <point x="-271" y="589" type="qcurve"/>
      <point x="-248" y="589"/>
      <point x="-224" y="617"/>
      <point x="-224" y="639" type="qcurve"/>
      <point x="-224" y="660"/>
      <point x="-248" y="686"/>
      <point x="-271" y="686" type="qcurve"/>
      <point x="-295" y="686"/>
      <point x="-320" y="661"/>
    </contour>
  </outline>
</glyph>
<glyph name="uni030B" format="1">
  <advance width="0"/>
  <unicode hex="030B"/>
  <outline>
    <contour>
      <point x="-306" y="713" type="line"/>
      <point x="-215" y="713" type="line"/>
      <point x="-317" y="554" type="line"/>
      <point x="-380" y="554" type="line"/>
    </contour>
    <contour>
      <point x="-164" y="713" type="line"/>
      <point x="-71" y="713" type="line"/>
      <point x="-180" y="554" type="line"/>
      <point x="-243" y="554" type="line"/>
    </contour>
  </outline>
</glyph>
<glyph name="uni030C" format="1">
  <advance width="0"/>
  <unicode hex="030C"/>
  <outline>
    <contour>
      <point x="-271" y="621" type="line"/>
      <point x="-196" y="713" type="line"/>
      <point x="-119" y="713" type="line"/>
      <point x="-239" y="554" type="line"/>
      <point x="-305" y="554" type="line"/>
      <point x="-425" y="713" type="line"/>
      <point x="-348" y="713" type="line"/>
      <point x="-273" y="621" type="line"/>
    </contour>
  </outline>
</glyph>
<glyph name="uni0312" format="1">
  <advance width="0"/>
  <unicode hex="0312"/>
  <outline>
    <contour>
      <point x="-229" y="554" type="line"/>
      <point x="-319" y="554" type="line"/>
      <point x="-262" y="718" type="line"/>
      <point x="-202" y="718" type="line"/>
    </contour>
  </outline>
</glyph>
<glyph name="uni0315" format="1">
  <advance width="70"/>
  <unicode hex="0315"/>
  <outline>
    <contour>
      <point x="-26" y="700" type="line"/>
      <point x="65" y="700" type="line"/>
      <point x="5" y="527" type="line"/>
      <point x="-55" y="527" type="line"/>
    </contour>
  </outline>
</glyph>
<glyph name="uni0326" format="1">
  <advance width="0"/>
  <unicode hex="0326"/>
  <outline>
    <contour>
      <point x="-315" y="-54" type="line"/>
      <point x="-225" y="-54" type="line"/>
      <point x="-282" y="-220" type="line"/>
      <point x="-342" y="-220" type="line"/>
    </contour>
  </outline>
</glyph>
<glyph name="uni0327" format="1">
  <advance width="0"/>
  <unicode hex="0327"/>
  <outline>
    <contour>
      <point x="-364" y="-162" type="line"/>
      <point x="-354" y="-165"/>
      <point x="-329" y="-170"/>
      <point x="-314" y="-170" type="qcurve"/>
      <point x="-294" y="-170"/>
      <point x="-263" y="-155"/>
      <point x="-263" y="-133" type="qcurve"/>
      <point x="-263" y="-110"/>
      <point x="-304" y="-90"/>
      <point x="-333" y="-90" type="qcurve"/>
      <point x="-296" y="10" type="line"/>
      <point x="-238" y="10" type="line"/>
      <point x="-262" y="-55" type="line"/>
      <point x="-226" y="-62"/>
      <point x="-192" y="-108"/>
      <point x="-192" y="-132" type="qcurve"/>
      <point x="-192" y="-156"/>
      <point x="-211" y="-190"/>
      <point x="-244" y="-213"/>
      <point x="-287" y="-226"/>
      <point x="-311" y="-226" type="qcurve"/>
      <point x="-325" y="-226"/>
      <point x="-351" y="-221"/>
      <point x="-364" y="-217" type="qcurve"/>
    </contour>
  </outline>
</glyph>
<glyph name="uni0328" format="1">
  <advance width="0"/>
  <unicode hex="0328"/>
  <outline>
    <contour>
      <point x="-107" y="-158" type="qcurve"/>
      <point x="-79" y="-158"/>
      <point x="-51" y="-143" type="qcurve"/>
      <point x="-51" y="-207" type="line"/>
      <point x="-82" y="-226"/>
      <point x="-119" y="-226" type="qcurve"/>
      <point x="-163" y="-226"/>
      <point x="-226" y="-179"/>
      <point x="-226" y="-129" type="qcurve"/>
      <point x="-226" y="-99"/>
      <point x="-190" y="-35"/>
      <point x="-155" y="-2" type="qcurve"/>
      <point x="-155" y="10" type="line"/>
      <point x="-83" y="10" type="line"/>
      <point x="-83" y="0" type="line"/>
      <point x="-119" y="-26"/>
      <point x="-155" y="-86"/>
      <point x="-155" y="-112" type="qcurve"/>
      <point x="-155" y="-138"/>
      <point x="-127" y="-158"/>
    </contour>
  </outline>
</glyph>
<glyph name="emdash" format="1">
  <advance width="1000"/>
  <unicode hex="2014"/>
  <outline>
    <contour>
      <point x="40" y="290" type="line"/>
      <point x="960" y="290" type="line"/>
      <point x="960" y="221" type="line"/>
      <point x="40" y="221" type="line"/>
    </contour>
  </outline>
</glyph>
<glyph name="quoteleft" format="1">
  <advance width="230"/>
  <unicode hex="2018"/>
  <outline>
    <contour>
      <point x="102" y="440" type="line"/>
      <point x="46" y="496"/>
      <point x="46" y="555" type="qcurve"/>
      <point x="46" y="629"/>
      <point x="135" y="713" type="qcurve"/>
      <point x="173" y="679" type="line"/>
      <point x="129" y="631"/>
      <point x="129" y="588" type="qcurve"/>
      <point x="129" y="548"/>
      <point x="174" y="504" type="qcurve"/>
    </contour>
  </outline>
</glyph>
<glyph name="quoteright" format="1">
  <advance width="230"/>
  <unicode hex="2019"/>
  <outline>
    <contour>
      <point x="129" y="708" type="line"/>
      <point x="185" y="654"/>
      <point x="185" y="594" type="qcurve"/>
      <point x="185" y="520"/>
      <point x="96" y="436" type="qcurve"/>
      <point x="57" y="471" type="line"/>
      <point x="101" y="518"/>
      <point x="101" y="561" type="qcurve"/>
      <point x="101" y="601"/>
      <point x="56" y="645" type="qcurve"/>
    </contour>
  </outline>
</glyph>
<glyph name="quotesinglbase" format="1">
  <advance width="230"/>
  <unicode hex="201A"/>
  <outline>
    <contour>
      <point x="129" y="129" type="line"/>
      <point x="185" y="73"/>
      <point x="185" y="14" type="qcurve"/>
      <point x="185" y="-60"/>
      <point x="96" y="-144" type="qcurve"/>
      <point x="57" y="-110" type="line"/>
      <point x="101" y="-62"/>
      <point x="101" y="-19" type="qcurve"/>
      <point x="101" y="21"/>
      <point x="56" y="65" type="qcurve"/>
    </contour>
  </outline>
</glyph>
<glyph name="dagger" format="1">
  <advance width="554"/>
  <unicode hex="2020"/>
  <outline>
    <contour>
      <point x="312" y="480" type="line"/>
      <point x="510" y="480" type="line"/>
      <point x="510" y="415" type="line"/>
      <point x="312" y="415" type="line"/>
      <point x="312" y="-170" type="line"/>
      <point x="242" y="-170" type="line"/>
      <point x="242" y="415" type="line"/>
      <point x="45" y="415" type="line"/>
      <point x="45" y="480" type="line"/>
      <point x="242" y="480" type="line"/>
      <point x="242" y="700" type="line"/>
      <point x="312" y="700" type="line"/>
    </contour>
  </outline>
</glyph>
<glyph name="daggerdbl" format="1">
  <advance width="574"/>
  <unicode hex="2021"/>
  <outline>
    <contour>
      <point x="252" y="50" type="line"/>
      <point x="55" y="50" type="line"/>
      <point x="55" y="115" type="line"/>
      <point x="252" y="115" type="line"/>
      <point x="252" y="415" type="line"/>
      <point x="55" y="415" type="line"/>
      <point x="55" y="480" type="line"/>
      <point x="252" y="480" type="line"/>
      <point x="252" y="700" type="line"/>
      <point x="321" y="700" type="line"/>
      <point x="321" y="480" type="line"/>
      <point x="519" y="480" type="line"/>
      <point x="519" y="415" type="line"/>
      <point x="321" y="415" type="line"/>
      <point x="321" y="115" type="line"/>
      <point x="519" y="115" type="line"/>
      <point x="519" y="50" type="line"/>
      <point x="321" y="50" type="line"/>
      <point x="321" y="-170" type="line"/>
      <point x="252" y="-170" type="line"/>
    </contour>
  </outline>
</glyph>
<glyph name="bullet" format="1">
  <advance width="355"/>
  <unicode hex="2022"/>
  <outline>
    <contour>
      <point x="80" y="360" type="qcurve"/>
      <point x="80" y="406"/>
      <point x="133" y="460"/>
      <point x="179" y="460" type="qcurve"/>
      <point x="221" y="460"/>
      <point x="275" y="407"/>
      <point x="275" y="364" type="qcurve"/>
      <point x="275" y="318"/>
      <point x="221" y="265"/>
      <point x="175" y="265" type="qcurve"/>
      <point x="132" y="265"/>
      <point x="80" y="318"/>
    </contour>
  </outline>
</glyph>
<glyph name="ellipsis" format="1">
  <advance width="800"/>
  <unicode hex="2026"/>
  <outline>
    <contour>
      <point x="60" y="50" type="qcurve"/>
      <point x="60" y="81"/>
      <point x="95" y="117"/>
      <point x="126" y="117" type="qcurve"/>
      <point x="155" y="117"/>
      <point x="190" y="82"/>
      <point x="190" y="54" type="qcurve"/>
      <point x="190" y="21"/>
      <point x="154" y="-13"/>
      <point x="123" y="-13" type="qcurve"/>
      <point x="94" y="-13"/>
      <point x="60" y="21"/>
    </contour>
    <contour>
      <point x="330" y="50" type="qcurve"/>
      <point x="330" y="81"/>
      <point x="365" y="117"/>
      <point x="396" y="117" type="qcurve"/>
      <point x="425" y="117"/>
      <point x="460" y="82"/>
      <point x="460" y="54" type="qcurve"/>
      <point x="460" y="21"/>
      <point x="424" y="-13"/>
      <point x="393" y="-13" type="qcurve"/>
      <point x="364" y="-13"/>
      <point x="330" y="21"/>
    </contour>
    <contour>
      <point x="600" y="50" type="qcurve"/>
      <point x="600" y="81"/>
      <point x="635" y="117"/>
      <point x="665" y="117" type="qcurve"/>
      <point x="695" y="117"/>
      <point x="730" y="82"/>
      <point x="730" y="54" type="qcurve"/>
      <point x="730" y="21"/>
      <point x="694" y="-13"/>
      <point x="663" y="-13" type="qcurve"/>
      <point x="635" y="-13"/>
      <point x="600" y="21"/>
    </contour>
  </outline>
</glyph>
<glyph name="guilsinglleft" format="1">
  <advance width="308"/>
  <unicode hex="2039"/>
  <outline>
    <contour>
      <point x="45" y="240" type="line"/>
      <point x="165" y="421" type="line"/>
      <point x="254" y="421" type="line"/>
      <point x="132" y="240" type="line"/>
      <point x="254" y="58" type="line"/>
      <point x="165" y="58" type="line"/>
    </contour>
  </outline>
</glyph>
<glyph name="guilsinglright" format="1">
  <advance width="308"/>
  <unicode hex="203A"/>
  <outline>
    <contour>
      <point x="142" y="58" type="line"/>
      <point x="55" y="58" type="line"/>
      <point x="176" y="240" type="line"/>
      <point x="55" y="421" type="line"/>
      <point x="142" y="421" type="line"/>
      <point x="263" y="240" type="line"/>
    </contour>
  </outline>
</glyph>
<glyph name="fraction" format="1">
  <advance width="104"/>
  <unicode hex="2044"/>
  <outline>
    <contour>
      <point x="349" y="713" type="line"/>
      <point x="-165" y="-13" type="line"/>
      <point x="-245" y="-13" type="line"/>
      <point x="269" y="713" type="line"/>
    </contour>
  </outline>
</glyph>
<glyph name="uni2070" format="1">
  <advance width="487"/>
  <unicode hex="2070"/>
  <outline>
    <contour>
      <point x="50" y="490" type="qcurve"/>
      <point x="50" y="594"/>
      <point x="160" y="713"/>
      <point x="248" y="713" type="qcurve"/>
      <point x="337" y="713"/>
      <point x="437" y="594"/>
      <point x="437" y="496" type="qcurve"/>
      <point x="437" y="390"/>
      <point x="329" y="268"/>
      <point x="242" y="268" type="qcurve"/>
      <point x="156" y="268"/>
      <point x="50" y="390"/>
    </contour>
    <contour>
      <point x="127" y="494" type="qcurve"/>
      <point x="127" y="418"/>
      <point x="187" y="329"/>
      <point x="244" y="329" type="qcurve"/>
      <point x="300" y="329"/>
      <point x="361" y="418"/>
      <point x="361" y="494" type="qcurve"/>
      <point x="361" y="568"/>
      <point x="304" y="654"/>
      <point x="245" y="654" type="qcurve"/>
      <point x="188" y="654"/>
      <point x="127" y="570"/>
    </contour>
  </outline>
</glyph>
<glyph name="uni2074" format="1">
  <advance width="439"/>
  <unicode hex="2074"/>
  <outline>
    <contour>
      <point x="252" y="377" type="line"/>
      <point x="30" y="377" type="line"/>
      <point x="30" y="429" type="line"/>
      <point x="261" y="705" type="line"/>
      <point x="324" y="705" type="line"/>
      <point x="324" y="435" type="line"/>
      <point x="410" y="435" type="line"/>
      <point x="410" y="377" type="line"/>
      <point x="324" y="377" type="line"/>
      <point x="324" y="281" type="line"/>
      <point x="252" y="281" type="line"/>
    </contour>
    <contour>
      <point x="107" y="435" type="line"/>
      <point x="252" y="435" type="line"/>
      <point x="252" y="610" type="line"/>
      <point x="250" y="610" type="line"/>
      <point x="106" y="437" type="line"/>
    </contour>
  </outline>
</glyph>
<glyph name="Euro" format="1">
  <advance width="640"/>
  <unicode hex="20AC"/>
  <outline>
    <contour>
      <point x="585" y="19" type="line"/>
      <point x="501" y="-13"/>
      <point x="415" y="-13" type="qcurve"/>
      <point x="267" y="-13"/>
      <point x="99" y="175"/>
      <point x="99" y="344" type="qcurve"/>
      <point x="99" y="511"/>
      <point x="267" y="707"/>
      <point x="417" y="707" type="qcurve"/>
      <point x="504" y="707"/>
      <point x="585" y="675" type="qcurve"/>
      <point x="585" y="543" type="line"/>
      <point x="513" y="543" type="line"/>
      <point x="513" y="623" type="line"/>
      <point x="470" y="637"/>
      <point x="415" y="637" type="qcurve"/>
      <point x="299" y="637"/>
      <point x="188" y="490"/>
      <point x="188" y="352" type="qcurve"/>
      <point x="188" y="204"/>
      <point x="307" y="57"/>
      <point x="419" y="57" type="qcurve"/>
      <point x="496" y="57"/>
      <point x="585" y="90" type="qcurve"/>
    </contour>
    <contour>
      <point x="33" y="307" type="line"/>
      <point x="475" y="307" type="line"/>
      <point x="462" y="244" type="line"/>
      <point x="20" y="244" type="line"/>
    </contour>
    <contour>
      <point x="36" y="440" type="line"/>
      <point x="504" y="440" type="line"/>
      <point x="490" y="377" type="line"/>
      <point x="23" y="377" type="line"/>
    </contour>
  </outline>
</glyph>
<glyph name="trademark" format="1">
  <advance width="1094"/>
  <unicode hex="2122"/>
  <outline>
    <contour>
      <point x="121" y="340" type="line"/>
      <point x="187" y="340" type="line"/>
      <point x="187" y="640" type="line"/>
      <point x="92" y="640" type="line"/>
      <point x="92" y="561" type="line"/>
      <point x="30" y="561" type="line"/>
      <point x="30" y="700" type="line"/>
      <point x="417" y="700" type="line"/>
      <point x="417" y="561" type="line"/>
      <point x="355" y="561" type="line"/>
      <point x="355" y="640" type="line"/>
      <point x="260" y="640" type="line"/>
      <point x="260" y="340" type="line"/>
      <point x="325" y="340" type="line"/>
      <point x="325" y="281" type="line"/>
      <point x="121" y="281" type="line"/>
    </contour>
    <contour>
      <point x="908" y="599" type="line"/>
      <point x="779" y="277" type="line"/>
      <point x="726" y="277" type="line"/>
      <point x="596" y="592" type="line"/>
      <point x="595" y="592" type="line"/>
      <point x="588" y="340" type="line"/>
      <point x="650" y="340" type="line"/>
      <point x="650" y="281" type="line"/>
      <point x="461" y="281" type="line"/>
      <point x="461" y="340" type="line"/>
      <point x="523" y="340" type="line"/>
      <point x="532" y="640" type="line"/>
      <point x="464" y="640" type="line"/>
      <point x="464" y="700" type="line"/>
      <point x="630" y="700" type="line"/>
      <point x="756" y="390" type="line"/>
      <point x="758" y="390" type="line"/>
      <point x="882" y="700" type="line"/>
      <point x="1043" y="700" type="line"/>
      <point x="1043" y="640" type="line"/>
      <point x="980" y="640" type="line"/>
      <point x="987" y="340" type="line"/>
      <point x="1049" y="340" type="line"/>
      <point x="1049" y="281" type="line"/>
      <point x="855" y="281" type="line"/>
      <point x="855" y="340" type="line"/>
      <point x="917" y="340" type="line"/>
      <point x="911" y="599" type="line"/>
    </contour>
  </outline>
</glyph>
<glyph name="minus" format="1">
  <advance width="561"/>
  <unicode hex="2212"/>
  <outline>
    <contour>
      <point x="55" y="245" type="line"/>
      <point x="55" y="320" type="line"/>
      <point x="506" y="320" type="line"/>
      <point x="506" y="245" type="line"/>
    </contour>
  </outline>
</glyph>
<glyph name="f_f" format="1">
  <advance width="621"/>
  <unicode hex="FB00"/>
  <outline>
    <contour>
      <point x="705" y="604" type="line"/>
      <point x="633" y="604" type="line"/>
      <point x="633" y="674" type="line"/>
      <point x="614" y="679"/>
      <point x="590" y="679" type="qcurve"/>
      <point x="538" y="679"/>
      <point x="490" y="617"/>
      <point x="490" y="558" type="qcurve"/>
      <point x="490" y="499" type="line"/>
      <point x="615" y="499" type="line"/>
      <point x="615" y="431" type="line"/>
      <point x="490" y="431" type="line"/>
      <point x="490" y="68" type="line"/>
      <point x="565" y="68" type="line"/>
      <point x="565" y="0" type="line"/>
      <point x="336" y="0" type="line"/>
      <point x="336" y="68" type="line"/>
      <point x="406" y="68" type="line"/>
      <point x="406" y="431" type="line"/>
      <point x="195" y="431" type="line"/>
      <point x="195" y="68" type="line"/>
      <point x="270" y="68" type="line"/>
      <point x="270" y="0" type="line"/>
      <point x="35" y="0" type="line"/>
      <point x="35" y="68" type="line"/>
      <point x="110" y="68" type="line"/>
      <point x="110" y="431" type="line"/>
      <point x="35" y="431" type="line"/>
      <point x="35" y="499" type="line"/>
      <point x="110" y="499" type="line"/>
      <point x="110" y="537" type="line"/>
      <point x="110" y="640"/>
      <point x="207" y="740"/>
      <point x="292" y="740" type="qcurve"/>
      <point x="344" y="740"/>
      <point x="390" y="726" type="qcurve"/>
      <point x="390" y="604" type="line"/>
      <point x="320" y="604" type="line"/>
      <point x="320" y="671" type="line"/>
      <point x="308" y="674"/>
      <point x="294" y="674" type="qcurve"/>
      <point x="242" y="674"/>
      <point x="195" y="612"/>
      <point x="195" y="554" type="qcurve"/>
      <point x="195" y="499" type="line"/>
      <point x="406" y="499" type="line"/>
      <point x="406" y="542" type="line"/>
      <point x="406" y="645"/>
      <point x="504" y="745"/>
      <point x="588" y="745" type="qcurve"/>
      <point x="648" y="745"/>
      <point x="705" y="724" type="qcurve"/>
    </contour>
  </outline>
</glyph>
<glyph name="f_i" format="1">
  <advance width="585"/>
  <unicode hex="FB01"/>
  <outline>
    <contour>
      <point x="254" y="499" type="line"/>
      <point x="485" y="499" type="line"/>
      <point x="485" y="68" type="line"/>
      <point x="560" y="68" type="line"/>
      <point x="560" y="0" type="line"/>
      <point x="335" y="0" type="line"/>
      <point x="335" y="68" type="line"/>
      <point x="400" y="68" type="line"/>
      <point x="400" y="431" type="line"/>
      <point x="254" y="431" type="line"/>
    </contour>
    <contour>
      <point x="315" y="431" type="line"/>
      <point x="195" y="431" type="line"/>
      <point x="195" y="68" type="line"/>
      <point x="260" y="68" type="line"/>
      <point x="260" y="0" type="line"/>
      <point x="35" y="0" type="line"/>
      <point x="35" y="68" type="line"/>
      <point x="110" y="68" type="line"/>
      <point x="110" y="431" type="line"/>
      <point x="35" y="431" type="line"/>
      <point x="35" y="499" type="line"/>
      <point x="110" y="499" type="line"/>
      <point x="110" y="539" type="line"/>
      <point x="110" y="639"/>
      <point x="217" y="745"/>
      <point x="321" y="745" type="qcurve"/>
      <point x="398" y="745"/>
      <point x="476" y="721" type="qcurve"/>
      <point x="476" y="599" type="line"/>
      <point x="402" y="599" type="line"/>
      <point x="402" y="669" type="line"/>
      <point x="361" y="679"/>
      <point x="321" y="679" type="qcurve"/>
      <point x="254" y="679"/>
      <point x="195" y="615"/>
      <point x="195" y="555" type="qcurve"/>
      <point x="195" y="499" type="line"/>
      <point x="315" y="499" type="line"/>
    </contour>
  </outline>
</glyph>
<glyph name="f_f_i" format="1">
  <advance width="881"/>
  <unicode hex="FB03"/>
  <outline>
    <contour>
      <point x="696" y="431" type="line"/>
      <point x="490" y="431" type="line"/>
      <point x="490" y="68" type="line"/>
      <point x="556" y="68" type="line"/>
      <point x="556" y="0" type="line"/>
      <point x="340" y="0" type="line"/>
      <point x="340" y="68" type="line"/>
      <point x="406" y="68" type="line"/>
      <point x="406" y="431" type="line"/>
      <point x="195" y="431" type="line"/>
      <point x="195" y="68" type="line"/>
      <point x="270" y="68" type="line"/>
      <point x="270" y="0" type="line"/>
      <point x="35" y="0" type="line"/>
      <point x="35" y="68" type="line"/>
      <point x="110" y="68" type="line"/>
      <point x="110" y="431" type="line"/>
      <point x="35" y="431" type="line"/>
      <point x="35" y="499" type="line"/>
      <point x="110" y="499" type="line"/>
      <point x="110" y="537" type="line"/>
      <point x="110" y="640"/>
      <point x="207" y="740"/>
      <point x="292" y="740" type="qcurve"/>
      <point x="346" y="740"/>
      <point x="390" y="726" type="qcurve"/>
      <point x="390" y="604" type="line"/>
      <point x="320" y="604" type="line"/>
      <point x="320" y="671" type="line"/>
      <point x="307" y="674"/>
      <point x="294" y="674" type="qcurve"/>
      <point x="242" y="674"/>
      <point x="195" y="612"/>
      <point x="195" y="554" type="qcurve"/>
      <point x="195" y="499" type="line"/>
      <point x="406" y="499" type="line"/>
      <point x="406" y="539" type="line"/>
      <point x="406" y="639"/>
      <point x="513" y="745"/>
      <point x="618" y="745" type="qcurve"/>
      <point x="694" y="745"/>
      <point x="771" y="721" type="qcurve"/>
      <point x="771" y="599" type="line"/>
      <point x="698" y="599" type="line"/>
      <point x="698" y="669" type="line"/>
      <point x="657" y="679"/>
      <point x="617" y="679" type="qcurve"/>
      <point x="550" y="679"/>
      <point x="490" y="615"/>
      <point x="490" y="555" type="qcurve"/>
      <point x="490" y="499" type="line"/>
      <point x="781" y="499" type="line"/>
      <point x="781" y="68" type="line"/>
      <point x="856" y="68" type="line"/>
      <point x="856" y="0" type="line"/>
      <point x="631" y="0" type="line"/>
      <point x="631" y="68" type="line"/>
      <point x="696" y="68" type="line"/>
    </contour>
  </outline>
</glyph>
